<svg width="217" height="115" viewBox="0 0 217 115" fill="none" xmlns="http://www.w3.org/2000/svg">
<path d="M9.16163 99.55H3.95363L2.87563 102H1.43363L5.87163 92.2H7.25763L11.7096 102H10.2396L9.16163 99.55ZM8.67163 98.43L6.55763 93.628L4.44363 98.43H8.67163ZM13.177 94.58H14.521V97.73H18.749V94.58H20.093V102H18.749V98.892H14.521V102H13.177V94.58ZM25.3523 94.51C26.379 94.51 27.163 94.762 27.7043 95.266C28.255 95.77 28.5303 96.5213 28.5303 97.52V102H27.2563V101.02C27.0323 101.365 26.7103 101.631 26.2903 101.818C25.8796 101.995 25.3896 102.084 24.8203 102.084C23.9896 102.084 23.3223 101.883 22.8183 101.482C22.3236 101.081 22.0763 100.553 22.0763 99.9C22.0763 99.2467 22.3143 98.724 22.7903 98.332C23.2663 97.9307 24.0223 97.73 25.0583 97.73H27.1863V97.464C27.1863 96.8853 27.0183 96.442 26.6823 96.134C26.3463 95.826 25.8516 95.672 25.1983 95.672C24.7596 95.672 24.3303 95.7467 23.9103 95.896C23.4903 96.036 23.1356 96.2273 22.8463 96.47L22.2863 95.462C22.669 95.154 23.1263 94.9207 23.6583 94.762C24.1903 94.594 24.755 94.51 25.3523 94.51ZM25.0443 101.048C25.5576 101.048 26.001 100.936 26.3743 100.712C26.7476 100.479 27.0183 100.152 27.1863 99.732V98.696H25.1143C23.9756 98.696 23.4063 99.0787 23.4063 99.844C23.4063 100.217 23.551 100.511 23.8403 100.726C24.1296 100.941 24.531 101.048 25.0443 101.048ZM30.9504 94.58H32.2944V97.73H36.5224V94.58H37.8664V102H36.5224V98.892H32.2944V102H30.9504V94.58ZM44.4137 94.51C45.1324 94.51 45.7764 94.6687 46.3457 94.986C46.9151 95.3033 47.3584 95.7467 47.6757 96.316C48.0024 96.8853 48.1657 97.5433 48.1657 98.29C48.1657 99.0367 48.0024 99.6993 47.6757 100.278C47.3584 100.847 46.9151 101.291 46.3457 101.608C45.7764 101.925 45.1324 102.084 44.4137 102.084C43.8817 102.084 43.3917 101.981 42.9437 101.776C42.5051 101.571 42.1317 101.272 41.8237 100.88V104.716H40.4797V94.58H41.7677V95.756C42.0664 95.3453 42.4444 95.0373 42.9017 94.832C43.3591 94.6173 43.8631 94.51 44.4137 94.51ZM44.3017 100.908C44.7777 100.908 45.2024 100.801 45.5757 100.586C45.9584 100.362 46.2571 100.054 46.4717 99.662C46.6957 99.2607 46.8077 98.8033 46.8077 98.29C46.8077 97.7767 46.6957 97.324 46.4717 96.932C46.2571 96.5307 45.9584 96.2227 45.5757 96.008C45.2024 95.7933 44.7777 95.686 44.3017 95.686C43.8351 95.686 43.4104 95.798 43.0277 96.022C42.6544 96.2367 42.3557 96.54 42.1317 96.932C41.9171 97.324 41.8097 97.7767 41.8097 98.29C41.8097 98.8033 41.9171 99.2607 42.1317 99.662C42.3464 100.054 42.6451 100.362 43.0277 100.586C43.4104 100.801 43.8351 100.908 44.3017 100.908ZM55.375 95.756H52.659V102H51.315V95.756H48.599V94.58H55.375V95.756ZM61.2602 102L59.1182 99.158L56.9482 102H55.4502L58.3762 98.206L55.5902 94.58H57.0882L59.1322 97.254L61.1622 94.58H62.6322L59.8322 98.206L62.7862 102H61.2602ZM66.7097 94.51C67.7364 94.51 68.5204 94.762 69.0617 95.266C69.6124 95.77 69.8877 96.5213 69.8877 97.52V102H68.6137V101.02C68.3897 101.365 68.0677 101.631 67.6477 101.818C67.2371 101.995 66.7471 102.084 66.1777 102.084C65.3471 102.084 64.6797 101.883 64.1757 101.482C63.6811 101.081 63.4337 100.553 63.4337 99.9C63.4337 99.2467 63.6717 98.724 64.1477 98.332C64.6237 97.9307 65.3797 97.73 66.4157 97.73H68.5437V97.464C68.5437 96.8853 68.3757 96.442 68.0397 96.134C67.7037 95.826 67.2091 95.672 66.5557 95.672C66.1171 95.672 65.6877 95.7467 65.2677 95.896C64.8477 96.036 64.4931 96.2273 64.2037 96.47L63.6437 95.462C64.0264 95.154 64.4837 94.9207 65.0157 94.762C65.5477 94.594 66.1124 94.51 66.7097 94.51ZM66.4017 101.048C66.9151 101.048 67.3584 100.936 67.7317 100.712C68.1051 100.479 68.3757 100.152 68.5437 99.732V98.696H66.4717C65.3331 98.696 64.7637 99.0787 64.7637 99.844C64.7637 100.217 64.9084 100.511 65.1977 100.726C65.4871 100.941 65.8884 101.048 66.4017 101.048ZM71.8039 97.576H75.5699V98.738H71.8039V97.576ZM77.6672 94.58H79.0112V97.73H83.2392V94.58H84.5832V102H83.2392V98.892H79.0112V102H77.6672V94.58ZM87.1965 94.58H88.5405V99.984L93.0905 94.58H94.3085V102H92.9645V96.596L88.4285 102H87.1965V94.58ZM101.971 98.15C102.933 98.3927 103.413 98.9947 103.413 99.956C103.413 100.609 103.166 101.113 102.671 101.468C102.186 101.823 101.458 102 100.487 102H96.9172V94.58H100.361C101.239 94.58 101.925 94.748 102.419 95.084C102.914 95.4107 103.161 95.8773 103.161 96.484C103.161 96.876 103.054 97.2167 102.839 97.506C102.634 97.786 102.345 98.0007 101.971 98.15ZM98.2332 97.772H100.249C100.763 97.772 101.15 97.6787 101.411 97.492C101.682 97.3053 101.817 97.0347 101.817 96.68C101.817 95.9707 101.295 95.616 100.249 95.616H98.2332V97.772ZM100.389 100.964C100.949 100.964 101.369 100.875 101.649 100.698C101.929 100.521 102.069 100.245 102.069 99.872C102.069 99.4893 101.939 99.2047 101.677 99.018C101.425 98.8313 101.024 98.738 100.473 98.738H98.2332V100.964H100.389ZM109.451 94.51C110.17 94.51 110.814 94.6687 111.383 94.986C111.952 95.3033 112.396 95.7467 112.713 96.316C113.04 96.8853 113.203 97.5433 113.203 98.29C113.203 99.0367 113.04 99.6993 112.713 100.278C112.396 100.847 111.952 101.291 111.383 101.608C110.814 101.925 110.17 102.084 109.451 102.084C108.919 102.084 108.429 101.981 107.981 101.776C107.542 101.571 107.169 101.272 106.861 100.88V104.716H105.517V94.58H106.805V95.756C107.104 95.3453 107.482 95.0373 107.939 94.832C108.396 94.6173 108.9 94.51 109.451 94.51ZM109.339 100.908C109.815 100.908 110.24 100.801 110.613 100.586C110.996 100.362 111.294 100.054 111.509 99.662C111.733 99.2607 111.845 98.8033 111.845 98.29C111.845 97.7767 111.733 97.324 111.509 96.932C111.294 96.5307 110.996 96.2227 110.613 96.008C110.24 95.7933 109.815 95.686 109.339 95.686C108.872 95.686 108.448 95.798 108.065 96.022C107.692 96.2367 107.393 96.54 107.169 96.932C106.954 97.324 106.847 97.7767 106.847 98.29C106.847 98.8033 106.954 99.2607 107.169 99.662C107.384 100.054 107.682 100.362 108.065 100.586C108.448 100.801 108.872 100.908 109.339 100.908ZM115.156 94.58H116.5V99.984L121.05 94.58H122.268V102H120.924V96.596L116.388 102H115.156V94.58ZM130.406 95.756H127.69V102H126.346V95.756H123.63V94.58H130.406V95.756ZM137.447 95.756H134.731V102H133.387V95.756H130.671V94.58H137.447V95.756ZM138.822 94.58H140.166V99.984L144.716 94.58H145.934V102H144.59V96.596L140.054 102H138.822V94.58Z" fill="#A4199E"/>
<path d="M216.949 39.9851C216.949 62.0682 176.974 114.957 176.974 114.957C176.974 114.957 137 62.0682 137 39.9851C137 17.9019 154.897 0 176.974 0C199.052 0 216.949 17.9019 216.949 39.9851Z" fill="url(#paint0_linear)"/>
<path d="M184.447 32.9315C184.067 27.4716 181.808 22.1487 177.571 18C173.294 22.1879 170.935 27.5108 170.456 32.9315C173.034 34.2622 175.392 35.9843 177.451 38.0783C179.51 36.0039 181.868 34.2818 184.447 32.9315ZM177.451 44.3209C173.154 37.9021 165.819 33.6556 157.464 33.6556C157.464 53.225 176.092 56.9237 177.451 57.1389C178.81 56.9041 197.438 53.225 197.438 33.6556C189.084 33.6556 181.748 37.9021 177.451 44.3209Z" fill="#A4199E"/>
<defs>
<linearGradient id="paint0_linear" x1="133.998" y1="109.99" x2="250.793" y2="64.7023" gradientUnits="userSpaceOnUse">
<stop stop-color="#F3AAFF"/>
<stop offset="0.940625" stop-color="#E936E2"/>
</linearGradient>
</defs>
</svg>
