<svg width="186" height="115" viewBox="0 0 186 115" fill="none" xmlns="http://www.w3.org/2000/svg">
<path d="M10.872 92.2V102H9.47197V97.632H3.84397V102H2.44397V92.2H3.84397V96.414H9.47197V92.2H10.872ZM16.3503 94.51C17.377 94.51 18.161 94.762 18.7023 95.266C19.253 95.77 19.5283 96.5213 19.5283 97.52V102H18.2543V101.02C18.0303 101.365 17.7083 101.631 17.2883 101.818C16.8777 101.995 16.3877 102.084 15.8183 102.084C14.9877 102.084 14.3203 101.883 13.8163 101.482C13.3217 101.081 13.0743 100.553 13.0743 99.9C13.0743 99.2467 13.3123 98.724 13.7883 98.332C14.2643 97.9307 15.0203 97.73 16.0563 97.73H18.1843V97.464C18.1843 96.8853 18.0163 96.442 17.6803 96.134C17.3443 95.826 16.8497 95.672 16.1963 95.672C15.7577 95.672 15.3283 95.7467 14.9083 95.896C14.4883 96.036 14.1337 96.2273 13.8443 96.47L13.2843 95.462C13.667 95.154 14.1243 94.9207 14.6563 94.762C15.1883 94.594 15.753 94.51 16.3503 94.51ZM16.0423 101.048C16.5557 101.048 16.999 100.936 17.3723 100.712C17.7457 100.479 18.0163 100.152 18.1843 99.732V98.696H16.1123C14.9737 98.696 14.4043 99.0787 14.4043 99.844C14.4043 100.217 14.549 100.511 14.8383 100.726C15.1277 100.941 15.529 101.048 16.0423 101.048ZM32.0783 94.58V102H30.7343V95.756H27.5423L27.4583 97.408C27.4116 98.4067 27.3229 99.242 27.1923 99.914C27.0616 100.577 26.8469 101.109 26.5483 101.51C26.2496 101.911 25.8343 102.112 25.3023 102.112C25.0596 102.112 24.7843 102.07 24.4763 101.986L24.5603 100.852C24.6816 100.88 24.7936 100.894 24.8963 100.894C25.2696 100.894 25.5496 100.731 25.7363 100.404C25.9229 100.077 26.0443 99.69 26.1003 99.242C26.1563 98.794 26.2076 98.1547 26.2542 97.324L26.3803 94.58H32.0783ZM41.243 94.51C41.9617 94.51 42.6057 94.6733 43.175 95C43.7443 95.3173 44.1923 95.7653 44.519 96.344C44.8457 96.9133 45.009 97.562 45.009 98.29C45.009 99.018 44.8457 99.6713 44.519 100.25C44.1923 100.819 43.7443 101.267 43.175 101.594C42.6057 101.921 41.9617 102.084 41.243 102.084C40.5897 102.084 39.997 101.949 39.465 101.678C38.933 101.407 38.4943 101.029 38.149 100.544C37.813 100.049 37.603 99.4893 37.519 98.864H36.021V102H34.677V94.58H36.021V97.618H37.533C37.6263 97.002 37.841 96.4607 38.177 95.994C38.5223 95.518 38.9563 95.154 39.479 94.902C40.011 94.6407 40.599 94.51 41.243 94.51ZM41.243 100.908C41.7003 100.908 42.111 100.801 42.475 100.586C42.8483 100.371 43.1423 100.068 43.357 99.676C43.5717 99.2747 43.679 98.8127 43.679 98.29C43.679 97.7767 43.5717 97.324 43.357 96.932C43.1423 96.5307 42.8483 96.2227 42.475 96.008C42.111 95.7933 41.7003 95.686 41.243 95.686C40.7857 95.686 40.3703 95.7933 39.997 96.008C39.6237 96.2227 39.3297 96.5307 39.115 96.932C38.9097 97.324 38.807 97.7767 38.807 98.29C38.807 98.8127 38.9097 99.2747 39.115 99.676C39.3297 100.068 39.6237 100.371 39.997 100.586C40.3703 100.801 40.7857 100.908 41.243 100.908ZM50.7207 94.832C51.4113 94.832 52.0273 94.986 52.5687 95.294C53.11 95.602 53.53 96.0313 53.8287 96.582C54.1367 97.1233 54.2907 97.744 54.2907 98.444C54.2907 99.1627 54.1273 99.802 53.8007 100.362C53.4833 100.913 53.0307 101.342 52.4427 101.65C51.864 101.958 51.2013 102.112 50.4547 102.112C49.1947 102.112 48.2193 101.683 47.5287 100.824C46.8473 99.956 46.5067 98.738 46.5067 97.17C46.5067 95.6487 46.8193 94.4587 47.4447 93.6C48.07 92.732 49.0267 92.158 50.3147 91.878L53.7027 91.122L53.8987 92.354L50.7767 93.026C49.806 93.2407 49.0827 93.6047 48.6067 94.118C48.1307 94.6313 47.86 95.3687 47.7947 96.33C48.112 95.854 48.5227 95.4853 49.0267 95.224C49.5307 94.9627 50.0953 94.832 50.7207 94.832ZM50.4827 100.992C50.9587 100.992 51.3787 100.885 51.7427 100.67C52.116 100.455 52.4053 100.161 52.6107 99.788C52.816 99.4053 52.9187 98.9713 52.9187 98.486C52.9187 97.7487 52.6947 97.156 52.2467 96.708C51.7987 96.26 51.2107 96.036 50.4827 96.036C49.7547 96.036 49.162 96.26 48.7047 96.708C48.2567 97.156 48.0327 97.7487 48.0327 98.486C48.0327 98.9713 48.1353 99.4053 48.3407 99.788C48.5553 100.161 48.8493 100.455 49.2227 100.67C49.596 100.885 50.016 100.992 50.4827 100.992ZM59.3882 102.084C58.6509 102.084 57.9882 101.921 57.4002 101.594C56.8122 101.267 56.3502 100.819 56.0142 100.25C55.6875 99.6713 55.5242 99.018 55.5242 98.29C55.5242 97.562 55.6875 96.9133 56.0142 96.344C56.3502 95.7653 56.8122 95.3173 57.4002 95C57.9882 94.6733 58.6509 94.51 59.3882 94.51C60.1255 94.51 60.7835 94.6733 61.3622 95C61.9502 95.3173 62.4075 95.7653 62.7342 96.344C63.0702 96.9133 63.2382 97.562 63.2382 98.29C63.2382 99.018 63.0702 99.6713 62.7342 100.25C62.4075 100.819 61.9502 101.267 61.3622 101.594C60.7835 101.921 60.1255 102.084 59.3882 102.084ZM59.3882 100.908C59.8642 100.908 60.2889 100.801 60.6622 100.586C61.0449 100.362 61.3435 100.054 61.5582 99.662C61.7729 99.2607 61.8802 98.8033 61.8802 98.29C61.8802 97.7767 61.7729 97.324 61.5582 96.932C61.3435 96.5307 61.0449 96.2227 60.6622 96.008C60.2889 95.7933 59.8642 95.686 59.3882 95.686C58.9122 95.686 58.4829 95.7933 58.1002 96.008C57.7269 96.2227 57.4282 96.5307 57.2042 96.932C56.9895 97.324 56.8822 97.7767 56.8822 98.29C56.8822 98.8033 56.9895 99.2607 57.2042 99.662C57.4282 100.054 57.7269 100.362 58.1002 100.586C58.4829 100.801 58.9122 100.908 59.3882 100.908ZM73.733 94.58V102H72.515V96.582L69.743 101.16H69.155L66.411 96.568V102H65.179V94.58H66.565L69.477 99.592L72.473 94.58H73.733ZM82.2506 94.496C83.0066 94.496 83.688 94.6593 84.2946 94.986C84.9106 95.3127 85.3913 95.7653 85.7366 96.344C86.082 96.9227 86.2546 97.5713 86.2546 98.29C86.2546 99.018 86.082 99.6713 85.7366 100.25C85.3913 100.829 84.9106 101.281 84.2946 101.608C83.688 101.935 83.0066 102.098 82.2506 102.098C81.5973 102.098 81.0046 101.995 80.4726 101.79C79.95 101.585 79.5066 101.286 79.1426 100.894L79.9266 100.11C80.524 100.698 81.28 100.992 82.1946 100.992C82.9226 100.992 83.5433 100.787 84.0566 100.376C84.57 99.956 84.878 99.41 84.9806 98.738H81.2566V97.744H84.9526C84.8313 97.1 84.5186 96.582 84.0146 96.19C83.5106 95.7887 82.904 95.588 82.1946 95.588C81.2893 95.588 80.5333 95.8867 79.9266 96.484L79.1426 95.714C79.5066 95.3127 79.9546 95.0093 80.4866 94.804C81.0186 94.5987 81.6066 94.496 82.2506 94.496ZM93.4179 95.756H90.7019V102H89.3579V95.756H86.6419V94.58H93.4179V95.756ZM97.4382 94.51C98.4649 94.51 99.2489 94.762 99.7902 95.266C100.341 95.77 100.616 96.5213 100.616 97.52V102H99.3422V101.02C99.1182 101.365 98.7962 101.631 98.3762 101.818C97.9656 101.995 97.4756 102.084 96.9062 102.084C96.0756 102.084 95.4082 101.883 94.9042 101.482C94.4096 101.081 94.1622 100.553 94.1622 99.9C94.1622 99.2467 94.4002 98.724 94.8762 98.332C95.3522 97.9307 96.1082 97.73 97.1442 97.73H99.2722V97.464C99.2722 96.8853 99.1042 96.442 98.7682 96.134C98.4322 95.826 97.9376 95.672 97.2842 95.672C96.8456 95.672 96.4162 95.7467 95.9962 95.896C95.5762 96.036 95.2216 96.2273 94.9322 96.47L94.3722 95.462C94.7549 95.154 95.2122 94.9207 95.7442 94.762C96.2762 94.594 96.8409 94.51 97.4382 94.51ZM97.1302 101.048C97.6436 101.048 98.0869 100.936 98.4602 100.712C98.8336 100.479 99.1042 100.152 99.2722 99.732V98.696H97.2002C96.0616 98.696 95.4922 99.0787 95.4922 99.844C95.4922 100.217 95.6369 100.511 95.9262 100.726C96.2156 100.941 96.6169 101.048 97.1302 101.048ZM109.91 94.58V102H108.566V95.756H104.38V102H103.036V94.58H109.91ZM119.217 98.332C119.217 98.4347 119.208 98.57 119.189 98.738H113.169C113.253 99.3913 113.538 99.9187 114.023 100.32C114.518 100.712 115.129 100.908 115.857 100.908C116.744 100.908 117.458 100.609 117.999 100.012L118.741 100.88C118.405 101.272 117.985 101.571 117.481 101.776C116.986 101.981 116.431 102.084 115.815 102.084C115.031 102.084 114.336 101.925 113.729 101.608C113.122 101.281 112.651 100.829 112.315 100.25C111.988 99.6713 111.825 99.018 111.825 98.29C111.825 97.5713 111.984 96.9227 112.301 96.344C112.628 95.7653 113.071 95.3173 113.631 95C114.2 94.6733 114.84 94.51 115.549 94.51C116.258 94.51 116.888 94.6733 117.439 95C117.999 95.3173 118.433 95.7653 118.741 96.344C119.058 96.9227 119.217 97.5853 119.217 98.332ZM115.549 95.644C114.905 95.644 114.364 95.84 113.925 96.232C113.496 96.624 113.244 97.1373 113.169 97.772H117.929C117.854 97.1467 117.598 96.638 117.159 96.246C116.73 95.8447 116.193 95.644 115.549 95.644Z" fill="#3B4B9C"/>
<path d="M185.949 39.9851C185.949 62.0682 145.974 114.957 145.974 114.957C145.974 114.957 106 62.0682 106 39.9851C106 17.9019 123.897 0 145.974 0C168.052 0 185.949 17.9019 185.949 39.9851Z" fill="url(#paint0_linear)"/>
<path d="M153.447 32.9315C153.067 27.4716 150.808 22.1487 146.571 18C142.294 22.1879 139.935 27.5108 139.456 32.9315C142.034 34.2622 144.392 35.9843 146.451 38.0783C148.51 36.0039 150.868 34.2818 153.447 32.9315ZM146.451 44.3209C142.154 37.9021 134.819 33.6556 126.464 33.6556C126.464 53.225 145.092 56.9237 146.451 57.1389C147.81 56.9041 166.438 53.225 166.438 33.6556C158.084 33.6556 150.748 37.9021 146.451 44.3209Z" fill="#3B4B9C"/>
<defs>
<linearGradient id="paint0_linear" x1="102.998" y1="109.99" x2="219.793" y2="64.7023" gradientUnits="userSpaceOnUse">
<stop stop-color="#C1B3E0"/>
<stop offset="0.940625" stop-color="#7E6DC0"/>
</linearGradient>
</defs>
</svg>
