<svg width="61" height="61" viewBox="0 0 61 61" fill="none" xmlns="http://www.w3.org/2000/svg">
<g clip-path="url(#clip0_1175:13646)">
<path d="M34.7195 0.115308C34.2635 -0.0898575 33.7341 -0.0163638 33.3618 0.315367L13.4583 17.7316H3.80033C1.70558 17.7316 0.000976562 19.4362 0.000976562 21.531V39.2613C0.000976562 41.3561 1.70558 43.0607 3.80033 43.0607H13.4583L33.3618 60.4769C33.5973 60.6846 33.8937 60.791 34.1952 60.791C34.3724 60.791 34.5523 60.753 34.7195 60.677C35.1729 60.4718 35.4616 60.021 35.4616 59.5245V1.26782C35.4615 0.77129 35.1728 0.320473 34.7195 0.115308ZM32.9287 56.7333L14.7653 40.8419C14.5348 40.6392 14.2385 40.5278 13.9319 40.5278H3.80033C3.10374 40.5278 2.53384 39.9579 2.53384 39.2613V21.531C2.53384 20.8344 3.10374 20.2645 3.80033 20.2645H13.9319C14.2383 20.2645 14.5347 20.153 14.7653 19.9504L32.9287 4.05904V56.7333Z" fill="#6B6B6B"/>
<path d="M44.4806 21.7226C44.3033 21.0439 43.6016 20.6233 42.9381 20.8184C42.2618 20.9932 41.8566 21.6847 42.0338 22.3609C42.7126 24.9698 43.0596 27.6749 43.0596 30.3953C43.0596 33.1105 42.7152 35.8131 42.0363 38.422C41.8564 39.0958 42.2618 39.7898 42.9406 39.9645C43.0469 39.9949 43.1558 40.0076 43.2597 40.0076C43.8245 40.0076 44.3362 39.6302 44.4831 39.0603C45.2202 36.2437 45.5925 33.3257 45.5925 30.3953C45.5926 27.4571 45.2203 24.5392 44.4806 21.7226Z" fill="#6B6B6B"/>
<path d="M50.0231 14.4083C49.7572 13.7624 49.0176 13.4534 48.3691 13.7219C47.7232 13.9879 47.4168 14.7301 47.6827 15.3759C49.6559 20.1428 50.6589 25.196 50.6589 30.3961C50.6589 35.5987 49.6584 40.6492 47.6854 45.4086C47.4194 46.0545 47.7258 46.7967 48.3717 47.0627C48.5288 47.1286 48.6934 47.159 48.8556 47.159C49.352 47.159 49.8231 46.8651 50.0258 46.3788C52.1255 41.3105 53.1919 35.9331 53.1919 30.3962C53.1918 24.8616 52.1254 19.4817 50.0231 14.4083Z" fill="#6B6B6B"/>
<path d="M55.2225 7.59215C54.8983 6.97155 54.1308 6.73599 53.5128 7.05513C52.8948 7.37938 52.6516 8.14424 52.9758 8.76484C56.4307 15.3909 58.2569 22.8705 58.2569 30.3959C58.2569 37.9161 56.4332 45.3906 52.9834 52.0142C52.6591 52.6348 52.9023 53.3996 53.5204 53.7239C53.7079 53.8202 53.9079 53.8683 54.1055 53.8683C54.5614 53.8683 55.0046 53.62 55.2301 53.1869C58.8674 46.2012 60.7899 38.3213 60.7899 30.3959C60.7899 22.4628 58.8648 14.5805 55.2225 7.59215Z" fill="#6B6B6B"/>
</g>
<defs>
<clipPath id="clip0_1175:13646">
<rect width="60.79" height="60.79" fill="white"/>
</clipPath>
</defs>
</svg>
