<svg width="157" height="115" viewBox="0 0 157 115" fill="none" xmlns="http://www.w3.org/2000/svg">
<path d="M3.15348 100.936L3.64348 99.9C4.07282 100.236 4.54415 100.488 5.05748 100.656C5.58015 100.824 6.09815 100.913 6.61148 100.922C7.12482 100.922 7.59615 100.852 8.02548 100.712C8.46415 100.572 8.81415 100.362 9.07548 100.082C9.33682 99.802 9.46748 99.4567 9.46748 99.046C9.46748 98.542 9.26215 98.1593 8.85148 97.898C8.45015 97.6367 7.89015 97.506 7.17148 97.506H4.98748V96.372H7.07348C7.69882 96.372 8.18415 96.246 8.52948 95.994C8.88415 95.7327 9.06148 95.3733 9.06148 94.916C9.06148 94.5707 8.95415 94.2813 8.73948 94.048C8.53415 93.8053 8.24948 93.6233 7.88548 93.502C7.53082 93.3807 7.12482 93.32 6.66748 93.32C6.21948 93.3107 5.75748 93.3713 5.28148 93.502C4.80548 93.6233 4.34815 93.8193 3.90948 94.09L3.46148 92.942C4.05882 92.606 4.67948 92.3727 5.32348 92.242C5.97682 92.102 6.60682 92.06 7.21348 92.116C7.82015 92.1627 8.36615 92.3027 8.85148 92.536C9.34615 92.76 9.73815 93.0587 10.0275 93.432C10.3261 93.796 10.4755 94.2347 10.4755 94.748C10.4755 95.2147 10.3541 95.63 10.1115 95.994C9.86882 96.3487 9.53282 96.624 9.10348 96.82C8.67415 97.0067 8.17482 97.1 7.60548 97.1L7.66148 96.722C8.31482 96.722 8.87948 96.8293 9.35548 97.044C9.84082 97.2493 10.2141 97.5433 10.4755 97.926C10.7461 98.3087 10.8815 98.752 10.8815 99.256C10.8815 99.732 10.7601 100.157 10.5175 100.53C10.2748 100.894 9.94348 101.202 9.52348 101.454C9.11282 101.697 8.64148 101.874 8.10948 101.986C7.58682 102.098 7.03615 102.135 6.45748 102.098C5.87882 102.061 5.30482 101.949 4.73548 101.762C4.17548 101.575 3.64815 101.3 3.15348 100.936ZM12.9899 102V94.58H14.3339V97.73H18.5619V94.58H19.9059V102H18.5619V98.892H14.3339V102H12.9899ZM27.0692 102V100.432L26.9992 100.138V97.464C26.9992 96.8947 26.8312 96.456 26.4952 96.148C26.1685 95.8307 25.6739 95.672 25.0112 95.672C24.5725 95.672 24.1432 95.7467 23.7232 95.896C23.3032 96.036 22.9485 96.2273 22.6592 96.47L22.0992 95.462C22.4819 95.154 22.9392 94.9207 23.4712 94.762C24.0125 94.594 24.5772 94.51 25.1652 94.51C26.1825 94.51 26.9665 94.7573 27.5172 95.252C28.0679 95.7467 28.3432 96.5027 28.3432 97.52V102H27.0692ZM24.6332 102.084C24.0825 102.084 23.5972 101.991 23.1772 101.804C22.7665 101.617 22.4492 101.361 22.2252 101.034C22.0012 100.698 21.8892 100.32 21.8892 99.9C21.8892 99.4987 21.9825 99.1347 22.1692 98.808C22.3652 98.4813 22.6779 98.22 23.1072 98.024C23.5459 97.828 24.1339 97.73 24.8712 97.73H27.2232V98.696H24.9272C24.2552 98.696 23.8025 98.808 23.5692 99.032C23.3359 99.256 23.2192 99.5267 23.2192 99.844C23.2192 100.208 23.3639 100.502 23.6532 100.726C23.9425 100.941 24.3439 101.048 24.8572 101.048C25.3612 101.048 25.7999 100.936 26.1732 100.712C26.5559 100.488 26.8312 100.161 26.9992 99.732L27.2652 100.656C27.0879 101.095 26.7752 101.445 26.3272 101.706C25.8792 101.958 25.3145 102.084 24.6332 102.084ZM36.1393 102L33.2693 98.388L34.3753 97.716L37.7213 102H36.1393ZM30.7633 102V94.58H32.1073V102H30.7633ZM31.7013 98.864V97.716H34.1513V98.864H31.7013ZM34.4873 98.444L33.2413 98.276L36.0833 94.58H37.5253L34.4873 98.444ZM42.0624 102.084C41.3158 102.084 40.6531 101.921 40.0744 101.594C39.4958 101.267 39.0384 100.819 38.7024 100.25C38.3664 99.6713 38.1984 99.018 38.1984 98.29C38.1984 97.5527 38.3664 96.8993 38.7024 96.33C39.0384 95.7607 39.4958 95.3173 40.0744 95C40.6531 94.6733 41.3158 94.51 42.0624 94.51C42.7998 94.51 43.4578 94.6733 44.0364 95C44.6244 95.3173 45.0818 95.7607 45.4084 96.33C45.7444 96.89 45.9124 97.5433 45.9124 98.29C45.9124 99.0273 45.7444 99.6807 45.4084 100.25C45.0818 100.819 44.6244 101.267 44.0364 101.594C43.4578 101.921 42.7998 102.084 42.0624 102.084ZM42.0624 100.908C42.5384 100.908 42.9631 100.801 43.3364 100.586C43.7191 100.371 44.0178 100.068 44.2324 99.676C44.4471 99.2747 44.5544 98.8127 44.5544 98.29C44.5544 97.758 44.4471 97.3007 44.2324 96.918C44.0178 96.526 43.7191 96.2227 43.3364 96.008C42.9631 95.7933 42.5384 95.686 42.0624 95.686C41.5864 95.686 41.1618 95.7933 40.7884 96.008C40.4151 96.2227 40.1164 96.526 39.8924 96.918C39.6684 97.3007 39.5564 97.758 39.5564 98.29C39.5564 98.8127 39.6684 99.2747 39.8924 99.676C40.1164 100.068 40.4151 100.371 40.7884 100.586C41.1618 100.801 41.5864 100.908 42.0624 100.908ZM47.8532 102V94.58H49.2392L52.4312 100.068H51.8712L55.1472 94.58H56.4072V102H55.1892V96.092L55.4132 96.218L52.4172 101.16H51.8292L48.8192 96.12L49.0852 96.064V102H47.8532ZM62.2571 102.084C61.5011 102.084 60.8244 101.921 60.2271 101.594C59.6391 101.267 59.1771 100.819 58.8411 100.25C58.5051 99.6807 58.3371 99.0273 58.3371 98.29C58.3371 97.5527 58.5051 96.8993 58.8411 96.33C59.1771 95.7607 59.6391 95.3173 60.2271 95C60.8244 94.6733 61.5011 94.51 62.2571 94.51C62.9291 94.51 63.5264 94.6453 64.0491 94.916C64.5811 95.1773 64.9918 95.5693 65.2811 96.092L64.2591 96.75C64.0164 96.386 63.7178 96.12 63.3631 95.952C63.0178 95.7747 62.6444 95.686 62.2431 95.686C61.7578 95.686 61.3238 95.7933 60.9411 96.008C60.5584 96.2227 60.2551 96.526 60.0311 96.918C59.8071 97.3007 59.6951 97.758 59.6951 98.29C59.6951 98.822 59.8071 99.284 60.0311 99.676C60.2551 100.068 60.5584 100.371 60.9411 100.586C61.3238 100.801 61.7578 100.908 62.2431 100.908C62.6444 100.908 63.0178 100.824 63.3631 100.656C63.7178 100.479 64.0164 100.208 64.2591 99.844L65.2811 100.488C64.9918 101.001 64.5811 101.398 64.0491 101.678C63.5264 101.949 62.9291 102.084 62.2571 102.084ZM68.3955 102V95.406L68.7315 95.756H65.6795V94.58H72.4555V95.756H69.4175L69.7395 95.406V102H68.3955ZM73.8297 102V94.58H77.2737C78.1417 94.58 78.8231 94.748 79.3177 95.084C79.8217 95.4107 80.0737 95.8773 80.0737 96.484C80.0737 97.0907 79.8357 97.562 79.3597 97.898C78.8931 98.2247 78.2724 98.388 77.4977 98.388L77.7077 98.024C78.5944 98.024 79.2524 98.1873 79.6817 98.514C80.1111 98.8407 80.3257 99.3213 80.3257 99.956C80.3257 100.6 80.0831 101.104 79.5977 101.468C79.1217 101.823 78.3891 102 77.3997 102H73.8297ZM75.1457 100.964H77.3017C77.8617 100.964 78.2817 100.88 78.5617 100.712C78.8417 100.535 78.9817 100.255 78.9817 99.872C78.9817 99.48 78.8511 99.1953 78.5897 99.018C78.3377 98.8313 77.9364 98.738 77.3857 98.738H75.1457V100.964ZM75.1457 97.772H77.1617C77.6751 97.772 78.0624 97.6787 78.3237 97.492C78.5944 97.296 78.7297 97.0253 78.7297 96.68C78.7297 96.3253 78.5944 96.0593 78.3237 95.882C78.0624 95.7047 77.6751 95.616 77.1617 95.616H75.1457V97.772ZM85.6074 102.084C84.8607 102.084 84.198 101.921 83.6194 101.594C83.0407 101.267 82.5834 100.819 82.2474 100.25C81.9114 99.6713 81.7434 99.018 81.7434 98.29C81.7434 97.5527 81.9114 96.8993 82.2474 96.33C82.5834 95.7607 83.0407 95.3173 83.6194 95C84.198 94.6733 84.8607 94.51 85.6074 94.51C86.3447 94.51 87.0027 94.6733 87.5814 95C88.1694 95.3173 88.6267 95.7607 88.9534 96.33C89.2894 96.89 89.4574 97.5433 89.4574 98.29C89.4574 99.0273 89.2894 99.6807 88.9534 100.25C88.6267 100.819 88.1694 101.267 87.5814 101.594C87.0027 101.921 86.3447 102.084 85.6074 102.084ZM85.6074 100.908C86.0834 100.908 86.508 100.801 86.8814 100.586C87.264 100.371 87.5627 100.068 87.7774 99.676C87.992 99.2747 88.0994 98.8127 88.0994 98.29C88.0994 97.758 87.992 97.3007 87.7774 96.918C87.5627 96.526 87.264 96.2227 86.8814 96.008C86.508 95.7933 86.0834 95.686 85.6074 95.686C85.1314 95.686 84.7067 95.7933 84.3334 96.008C83.96 96.2227 83.6614 96.526 83.4374 96.918C83.2134 97.3007 83.1014 97.758 83.1014 98.29C83.1014 98.8127 83.2134 99.2747 83.4374 99.676C83.6614 100.068 83.96 100.371 84.3334 100.586C84.7067 100.801 85.1314 100.908 85.6074 100.908Z" fill="#19A440"/>
<path d="M156.948 39.9851C156.948 62.0682 116.426 114.957 116.426 114.957C116.426 114.957 75.9043 62.0682 75.9043 39.9851C75.9043 17.9019 94.0466 0 116.426 0C138.806 0 156.948 17.9019 156.948 39.9851Z" fill="url(#paint0_linear_15216_27966)"/>
<path d="M124.001 32.9315C123.616 27.4716 121.326 22.1487 117.031 18C112.695 22.1879 110.304 27.5108 109.818 32.9315C112.432 34.2622 114.823 35.9843 116.909 38.0783C118.996 36.0039 121.387 34.2818 124.001 32.9315ZM116.909 44.3209C112.553 37.9021 105.118 33.6556 96.6484 33.6556C96.6484 53.225 115.532 56.9237 116.909 57.1389C118.287 56.9041 137.17 53.225 137.17 33.6556C128.701 33.6556 121.266 37.9021 116.909 44.3209Z" fill="#19A440"/>
<defs>
<linearGradient id="paint0_linear_15216_27966" x1="72.8608" y1="109.99" x2="190.831" y2="63.6202" gradientUnits="userSpaceOnUse">
<stop stop-color="#ACFFAA"/>
<stop offset="0.940625" stop-color="#36E988"/>
</linearGradient>
</defs>
</svg>
