<svg width="186" height="115" viewBox="0 0 186 115" fill="none" xmlns="http://www.w3.org/2000/svg">
<path d="M3.45569 92.2H10.8477V93.39H4.84169V96.19H7.89369C9.06035 96.19 9.94702 96.4327 10.5537 96.918C11.1604 97.4033 11.4637 98.1033 11.4637 99.018C11.4637 99.9793 11.1324 100.717 10.4697 101.23C9.81635 101.743 8.87835 102 7.65569 102H3.45569V92.2ZM7.59969 100.894C8.40235 100.894 9.01369 100.74 9.43369 100.432C9.85369 100.124 10.0637 99.6713 10.0637 99.074C10.0637 97.8887 9.24235 97.296 7.59969 97.296H4.84169V100.894H7.59969ZM17.7778 102L15.6358 99.158L13.4658 102H11.9678L14.8938 98.206L12.1078 94.58H13.6058L15.6498 97.254L17.6798 94.58H19.1498L16.3498 98.206L19.3038 102H17.7778ZM23.2273 94.51C24.254 94.51 25.038 94.762 25.5793 95.266C26.13 95.77 26.4053 96.5213 26.4053 97.52V102H25.1313V101.02C24.9073 101.365 24.5853 101.631 24.1653 101.818C23.7546 101.995 23.2646 102.084 22.6953 102.084C21.8646 102.084 21.1973 101.883 20.6933 101.482C20.1986 101.081 19.9513 100.553 19.9513 99.9C19.9513 99.2467 20.1893 98.724 20.6653 98.332C21.1413 97.9307 21.8973 97.73 22.9333 97.73H25.0613V97.464C25.0613 96.8853 24.8933 96.442 24.5573 96.134C24.2213 95.826 23.7266 95.672 23.0733 95.672C22.6346 95.672 22.2053 95.7467 21.7853 95.896C21.3653 96.036 21.0106 96.2273 20.7213 96.47L20.1613 95.462C20.544 95.154 21.0013 94.9207 21.5333 94.762C22.0653 94.594 22.63 94.51 23.2273 94.51ZM22.9193 101.048C23.4326 101.048 23.876 100.936 24.2493 100.712C24.6226 100.479 24.8933 100.152 25.0613 99.732V98.696H22.9893C21.8506 98.696 21.2813 99.0787 21.2813 99.844C21.2813 100.217 21.426 100.511 21.7153 100.726C22.0046 100.941 22.406 101.048 22.9193 101.048ZM36.3714 100.824V103.722H35.1114V102H28.9094V103.722H27.6354V100.824H28.0274C28.5034 100.796 28.8301 100.46 29.0074 99.816C29.1848 99.172 29.3061 98.262 29.3714 97.086L29.4834 94.58H35.2374V100.824H36.3714ZM30.6034 97.184C30.5661 98.1173 30.4868 98.892 30.3654 99.508C30.2534 100.115 30.0434 100.553 29.7354 100.824H33.8934V95.756H30.6734L30.6034 97.184ZM44.8703 98.864H43.4283V102H42.0843V98.864H40.6423L38.5983 102H37.0023L39.5503 98.164L37.1983 94.58H38.6263L40.6283 97.716H42.0843V94.58H43.4283V97.716H44.8843L46.8863 94.58H48.3283L45.9763 98.178L48.5243 102H46.9283L44.8703 98.864ZM52.5125 94.51C53.5391 94.51 54.3231 94.762 54.8645 95.266C55.4151 95.77 55.6905 96.5213 55.6905 97.52V102H54.4165V101.02C54.1925 101.365 53.8705 101.631 53.4505 101.818C53.0398 101.995 52.5498 102.084 51.9805 102.084C51.1498 102.084 50.4825 101.883 49.9785 101.482C49.4838 101.081 49.2365 100.553 49.2365 99.9C49.2365 99.2467 49.4745 98.724 49.9505 98.332C50.4265 97.9307 51.1825 97.73 52.2185 97.73H54.3465V97.464C54.3465 96.8853 54.1785 96.442 53.8425 96.134C53.5065 95.826 53.0118 95.672 52.3585 95.672C51.9198 95.672 51.4905 95.7467 51.0705 95.896C50.6505 96.036 50.2958 96.2273 50.0065 96.47L49.4465 95.462C49.8291 95.154 50.2865 94.9207 50.8185 94.762C51.3505 94.594 51.9151 94.51 52.5125 94.51ZM52.2045 101.048C52.7178 101.048 53.1611 100.936 53.5345 100.712C53.9078 100.479 54.1785 100.152 54.3465 99.732V98.696H52.2745C51.1358 98.696 50.5665 99.0787 50.5665 99.844C50.5665 100.217 50.7111 100.511 51.0005 100.726C51.2898 100.941 51.6911 101.048 52.2045 101.048ZM58.1106 94.58H59.4546V97.73H63.6826V94.58H65.0266V102H63.6826V98.892H59.4546V102H58.1106V94.58ZM70.2859 94.51C71.3126 94.51 72.0966 94.762 72.6379 95.266C73.1886 95.77 73.4639 96.5213 73.4639 97.52V102H72.1899V101.02C71.9659 101.365 71.6439 101.631 71.2239 101.818C70.8132 101.995 70.3232 102.084 69.7539 102.084C68.9232 102.084 68.2559 101.883 67.7519 101.482C67.2572 101.081 67.0099 100.553 67.0099 99.9C67.0099 99.2467 67.2479 98.724 67.7239 98.332C68.1999 97.9307 68.9559 97.73 69.9919 97.73H72.1199V97.464C72.1199 96.8853 71.9519 96.442 71.6159 96.134C71.2799 95.826 70.7852 95.672 70.1319 95.672C69.6932 95.672 69.2639 95.7467 68.8439 95.896C68.4239 96.036 68.0692 96.2273 67.7799 96.47L67.2199 95.462C67.6026 95.154 68.0599 94.9207 68.5919 94.762C69.1239 94.594 69.6886 94.51 70.2859 94.51ZM69.9779 101.048C70.4912 101.048 70.9346 100.936 71.3079 100.712C71.6812 100.479 71.9519 100.152 72.1199 99.732V98.696H70.0479C68.9092 98.696 68.3399 99.0787 68.3399 99.844C68.3399 100.217 68.4846 100.511 68.7739 100.726C69.0632 100.941 69.4646 101.048 69.9779 101.048ZM75.38 97.576H79.146V98.738H75.38V97.576ZM84.1274 98.864H82.5874V102H81.2434V94.58H82.5874V97.716H84.1554L86.5634 94.58H88.0054L85.1914 98.15L88.2014 102H86.6194L84.1274 98.864ZM93.5446 94.51C94.2633 94.51 94.9073 94.6687 95.4766 94.986C96.0459 95.3033 96.4893 95.7467 96.8066 96.316C97.1333 96.8853 97.2966 97.5433 97.2966 98.29C97.2966 99.0367 97.1333 99.6993 96.8066 100.278C96.4893 100.847 96.0459 101.291 95.4766 101.608C94.9073 101.925 94.2633 102.084 93.5446 102.084C93.0126 102.084 92.5226 101.981 92.0746 101.776C91.6359 101.571 91.2626 101.272 90.9546 100.88V104.716H89.6106V94.58H90.8986V95.756C91.1973 95.3453 91.5753 95.0373 92.0326 94.832C92.4899 94.6173 92.9939 94.51 93.5446 94.51ZM93.4326 100.908C93.9086 100.908 94.3333 100.801 94.7066 100.586C95.0893 100.362 95.3879 100.054 95.6026 99.662C95.8266 99.2607 95.9386 98.8033 95.9386 98.29C95.9386 97.7767 95.8266 97.324 95.6026 96.932C95.3879 96.5307 95.0893 96.2227 94.7066 96.008C94.3333 95.7933 93.9086 95.686 93.4326 95.686C92.9659 95.686 92.5413 95.798 92.1586 96.022C91.7853 96.2367 91.4866 96.54 91.2626 96.932C91.0479 97.324 90.9406 97.7767 90.9406 98.29C90.9406 98.8033 91.0479 99.2607 91.2626 99.662C91.4773 100.054 91.7759 100.362 92.1586 100.586C92.5413 100.801 92.9659 100.908 93.4326 100.908ZM99.2493 94.58H100.593V99.984L105.143 94.58H106.361V102H105.017V96.596L100.481 102H99.2493V94.58ZM114.92 94.58V102H113.716V99.648H111.56H111.406L109.782 102H108.34L110.146 99.466C109.586 99.298 109.157 99.0227 108.858 98.64C108.559 98.248 108.41 97.7627 108.41 97.184C108.41 96.3347 108.699 95.6907 109.278 95.252C109.857 94.804 110.655 94.58 111.672 94.58H114.92ZM109.782 97.226C109.782 97.7207 109.936 98.0893 110.244 98.332C110.561 98.5653 111.033 98.682 111.658 98.682H113.716V95.756H111.714C110.426 95.756 109.782 96.246 109.782 97.226Z" fill="#A41919"/>
<path d="M185.949 39.9851C185.949 62.0682 145.974 114.957 145.974 114.957C145.974 114.957 106 62.0682 106 39.9851C106 17.9019 123.897 0 145.974 0C168.052 0 185.949 17.9019 185.949 39.9851Z" fill="url(#paint0_linear)"/>
<path d="M153.447 32.9315C153.067 27.4716 150.808 22.1487 146.571 18C142.294 22.1879 139.935 27.5108 139.456 32.9315C142.034 34.2622 144.392 35.9843 146.451 38.0783C148.51 36.0039 150.868 34.2818 153.447 32.9315ZM146.451 44.3209C142.154 37.9021 134.819 33.6556 126.464 33.6556C126.464 53.225 145.092 56.9237 146.451 57.1389C147.81 56.9041 166.438 53.225 166.438 33.6556C158.084 33.6556 150.748 37.9021 146.451 44.3209Z" fill="#A41919"/>
<defs>
<linearGradient id="paint0_linear" x1="102.998" y1="109.99" x2="219.793" y2="64.7023" gradientUnits="userSpaceOnUse">
<stop stop-color="#FFAAAA"/>
<stop offset="0.940625" stop-color="#E93636"/>
</linearGradient>
</defs>
</svg>
