<svg width="61" height="61" viewBox="0 0 61 61" fill="none" xmlns="http://www.w3.org/2000/svg">
<g clip-path="url(#clip0_1175:13508)">
<path d="M52.2578 14.4402C49.8902 14.2584 47.2111 13.7205 44.2948 12.8418C40.7913 11.7857 37.3905 11.9488 34.1865 13.326C33.7346 13.5202 33.5259 14.044 33.72 14.4959C33.9143 14.9475 34.4374 15.1568 34.8899 14.9624C37.6981 13.7552 40.6897 13.6153 43.7809 14.5471C46.82 15.463 49.6262 16.0244 52.1215 16.216C52.1447 16.2179 52.1678 16.2186 52.1906 16.2186C52.6515 16.2186 53.0417 15.8635 53.0776 15.3962C53.1152 14.9059 52.7482 14.4778 52.2578 14.4402Z" fill="#6B6B6B"/>
<path d="M52.2577 18.2253C49.8907 18.0437 47.2117 17.5059 44.2948 16.6269C40.7913 15.5709 37.3905 15.7339 34.1865 17.1111C33.7346 17.3054 33.5259 17.8291 33.72 18.281C33.9143 18.7328 34.4374 18.9419 34.8899 18.7475C37.6981 17.5404 40.6897 17.4005 43.7809 18.3322C46.8207 19.2483 49.6268 19.8098 52.1216 20.0012C52.1448 20.0031 52.1678 20.0038 52.1906 20.0038C52.6515 20.0038 53.0417 19.6486 53.0776 19.1813C53.1152 18.6909 52.7482 18.263 52.2577 18.2253Z" fill="#6B6B6B"/>
<path d="M52.2578 37.1502C49.8901 36.9684 47.211 36.4306 44.2948 35.5517C40.7915 34.4957 37.3909 34.6588 34.1865 36.036C33.7346 36.2303 33.5259 36.754 33.72 37.2059C33.9143 37.6576 34.4374 37.8668 34.8899 37.6724C37.6983 36.4652 40.6898 36.3256 43.7809 37.257C46.8199 38.1729 49.626 38.7344 52.1215 38.926C52.1447 38.9279 52.1678 38.9286 52.1906 38.9286C52.6515 38.9286 53.0417 38.5735 53.0776 38.1063C53.1152 37.6159 52.7482 37.1879 52.2578 37.1502Z" fill="#6B6B6B"/>
<path d="M52.2578 40.9333C49.8902 40.7515 47.2111 40.2137 44.2948 39.3349C40.7913 38.279 37.3905 38.4419 34.1865 39.8191C33.7346 40.0133 33.5259 40.5371 33.72 40.989C33.9143 41.4408 34.4374 41.6499 34.8899 41.4555C37.6981 40.2483 40.6897 40.1085 43.7809 41.0402C46.82 41.9561 49.6262 42.5175 52.1215 42.7091C52.1447 42.711 52.1678 42.7117 52.1906 42.7117C52.6515 42.7117 53.0417 42.3566 53.0776 41.8894C53.1152 41.399 52.7482 40.9709 52.2578 40.9333Z" fill="#6B6B6B"/>
<path d="M52.2578 22.0086C49.8901 21.8268 47.211 21.289 44.2948 20.4101C40.7915 19.3542 37.3909 19.5171 34.1865 20.8944C33.7346 21.0886 33.5259 21.6124 33.72 22.0643C33.9143 22.516 34.4374 22.7251 34.8899 22.5308C37.6983 21.3236 40.6898 21.1839 43.7809 22.1154C46.8199 23.0313 49.626 23.5928 52.1215 23.7844C52.1447 23.7863 52.1678 23.787 52.1906 23.787C52.6515 23.787 53.0417 23.4319 53.0776 22.9647C53.1152 22.4743 52.7482 22.0462 52.2578 22.0086Z" fill="#6B6B6B"/>
<path d="M52.2577 29.5787C49.8907 29.3972 47.2117 28.8594 44.2948 27.9804C40.7915 26.9244 37.3906 27.0874 34.1865 28.4646C33.7346 28.6589 33.5259 29.1826 33.72 29.6346C33.9143 30.0863 34.4374 30.2954 34.8899 30.1011C37.698 28.894 40.6897 28.7541 43.7809 29.6857C46.8207 30.6018 49.6268 31.1633 52.1216 31.3548C52.1448 31.3566 52.1678 31.3573 52.1906 31.3573C52.6515 31.3573 53.0417 31.0021 53.0776 30.5348C53.1152 30.0444 52.7482 29.6165 52.2577 29.5787Z" fill="#6B6B6B"/>
<path d="M52.2578 25.7947C49.8902 25.6129 47.2111 25.075 44.2948 24.1963C40.7917 23.1402 37.3906 23.3033 34.1865 24.6805C33.7346 24.8747 33.5259 25.3985 33.72 25.8504C33.9143 26.302 34.4374 26.5113 34.8899 26.3169C37.6985 25.1097 40.6898 24.9699 43.7809 25.9015C46.82 26.8175 49.6262 27.3788 52.1215 27.5705C52.1447 27.5724 52.1678 27.5731 52.1906 27.5731C52.6515 27.5731 53.0417 27.218 53.0776 26.7507C53.1152 26.2604 52.7482 25.8323 52.2578 25.7947Z" fill="#6B6B6B"/>
<path d="M52.2577 33.3638C49.8904 33.1823 47.2112 32.6444 44.2948 31.7655C40.7915 30.7096 37.3909 30.8725 34.1865 32.2499C33.7346 32.4441 33.5259 32.9679 33.72 33.4198C33.9143 33.8714 34.4374 34.0805 34.8899 33.8863C37.6983 32.6791 40.6898 32.5395 43.7809 33.4708C46.8202 34.3869 49.6263 34.9484 52.1216 35.1399C52.1448 35.1417 52.1678 35.1424 52.1906 35.1424C52.6515 35.1424 53.0417 34.7872 53.0776 34.3199C53.1152 33.8295 52.7482 33.4016 52.2577 33.3638Z" fill="#6B6B6B"/>
<path d="M8.60044 16.2186C8.62324 16.2186 8.64639 16.2178 8.66955 16.216C11.165 16.0245 13.9711 15.463 17.0101 14.547C20.1014 13.6154 23.0928 13.7551 25.9011 14.9624C26.3529 15.1566 26.8768 14.9477 27.071 14.4959C27.2653 14.044 27.0564 13.5202 26.6045 13.326C23.4006 11.9486 19.9996 11.7859 16.4962 12.8418C13.5798 13.7205 10.9008 14.2584 8.53324 14.4402C8.04286 14.4777 7.67585 14.9059 7.71361 15.3962C7.74935 15.8635 8.13963 16.2186 8.60044 16.2186Z" fill="#6B6B6B"/>
<path d="M8.60044 20.0037C8.62324 20.0037 8.64639 20.0029 8.66943 20.0011C11.1643 19.8098 13.9705 19.2482 17.0101 18.3321C20.1014 17.4006 23.0928 17.5401 25.9011 18.7475C26.3529 18.9416 26.8768 18.7328 27.071 18.281C27.2653 17.8291 27.0564 17.3053 26.6045 17.1111C23.4006 15.7337 19.9996 15.5711 16.4962 16.6269C13.5794 17.5059 10.9002 18.0436 8.53336 18.2253C8.04286 18.2628 7.67585 18.6908 7.71361 19.1812C7.74935 19.6486 8.13963 20.0037 8.60044 20.0037Z" fill="#6B6B6B"/>
<path d="M8.60044 38.9286C8.62324 38.9286 8.64639 38.9277 8.66955 38.926C11.1651 38.7344 13.9712 38.1728 17.0101 37.2569C20.1015 36.3251 23.0928 36.4652 25.9011 37.6724C26.3529 37.8665 26.8768 37.6576 27.071 37.2058C27.2653 36.7539 27.0564 36.2302 26.6045 36.036C23.4006 34.6586 19.9996 34.4958 16.4962 35.5516C13.58 36.4305 10.9009 36.9684 8.53324 37.1502C8.04286 37.1877 7.67585 37.6158 7.71361 38.1062C7.74935 38.5734 8.13963 38.9286 8.60044 38.9286Z" fill="#6B6B6B"/>
<path d="M8.60044 42.7118C8.62324 42.7118 8.64639 42.7109 8.66955 42.7091C11.165 42.5176 13.9711 41.9561 17.0101 41.0402C20.1014 40.1086 23.0928 40.2481 25.9011 41.4555C26.3529 41.6496 26.8768 41.4408 27.071 40.989C27.2653 40.5371 27.0564 40.0134 26.6045 39.8191C23.4006 38.4418 19.9996 38.279 16.4962 39.3349C13.5798 40.2137 10.9008 40.7516 8.53324 40.9333C8.04286 40.9709 7.67585 41.399 7.71361 41.8894C7.74935 42.3566 8.13963 42.7118 8.60044 42.7118Z" fill="#6B6B6B"/>
<path d="M8.60044 23.787C8.62324 23.787 8.64639 23.7861 8.66955 23.7844C11.1651 23.5928 13.9712 23.0312 17.0101 22.1153C20.1015 21.1836 23.0928 21.3236 25.9011 22.5308C26.3529 22.7249 26.8768 22.516 27.071 22.0642C27.2653 21.6123 27.0564 21.0886 26.6045 20.8943C23.4006 19.517 19.9996 19.3542 16.4962 20.41C13.58 21.2889 10.9009 21.8268 8.53324 22.0086C8.04286 22.0461 7.67585 22.4742 7.71361 22.9646C7.74935 23.4318 8.13963 23.787 8.60044 23.787Z" fill="#6B6B6B"/>
<path d="M8.60044 31.3572C8.62324 31.3572 8.64639 31.3564 8.66943 31.3547C11.1643 31.1633 13.9705 30.6017 17.0101 29.6857C20.1014 28.7541 23.0928 28.8936 25.9011 30.101C26.3529 30.2951 26.8768 30.0863 27.071 29.6345C27.2653 29.1826 27.0564 28.6589 26.6045 28.4646C23.4007 27.0874 19.9999 26.9245 16.4962 27.9804C13.5794 28.8594 10.9002 29.3971 8.53336 29.5787C8.04286 29.6163 7.67585 30.0444 7.71361 30.5347C7.74935 31.0021 8.13963 31.3572 8.60044 31.3572Z" fill="#6B6B6B"/>
<path d="M8.60044 27.5732C8.62324 27.5732 8.64639 27.5724 8.66955 27.5706C11.165 27.3791 13.9711 26.8176 17.0101 25.9016C20.1013 24.9702 23.0927 25.1095 25.9011 26.317C26.3529 26.511 26.8768 26.3022 27.071 25.8505C27.2653 25.3986 27.0564 24.8748 26.6045 24.6806C23.4003 23.3032 19.9996 23.1402 16.4962 24.1964C13.5798 25.0751 10.9008 25.613 8.53324 25.7948C8.04286 25.8323 7.67585 26.2604 7.71361 26.7508C7.74935 27.2181 8.13963 27.5732 8.60044 27.5732Z" fill="#6B6B6B"/>
<path d="M8.60044 35.1424C8.62324 35.1424 8.64639 35.1415 8.66943 35.1399C11.1648 34.9485 13.9708 34.3869 17.0101 33.4708C20.1015 32.539 23.0928 32.6791 25.9011 33.8863C26.3529 34.0805 26.8768 33.8716 27.071 33.4198C27.2653 32.9679 27.0564 32.4441 26.6045 32.2499C23.4006 30.8725 19.9996 30.7096 16.4962 31.7655C13.5798 32.6444 10.9006 33.1823 8.53336 33.3638C8.04286 33.4015 7.67585 33.8295 7.71361 34.3199C7.74935 34.7872 8.13963 35.1424 8.60044 35.1424Z" fill="#6B6B6B"/>
<path d="M58.6176 11.0793H57.2235V10.2668C57.2235 9.12808 56.2521 8.22735 55.1145 8.31794C53.8005 8.42302 46.69 7.3525 42.1825 6.20955C41.7055 6.08832 41.2211 6.3772 41.1005 6.85381C40.9795 7.33065 41.268 7.8151 41.7447 7.93585C46.2631 9.08153 53.5179 10.2329 55.2569 10.0932C55.3582 10.086 55.4423 10.1648 55.4423 10.2668V46.2029C52.069 46.5668 47.5628 45.6012 44.2954 44.6166C36.9978 42.4173 32.28 46.1958 31.2867 46.7341V11.1383C32.2489 10.2358 36.1272 7.03916 41.8993 7.96791C42.3846 8.04675 42.8418 7.71595 42.9201 7.23032C42.9983 6.74481 42.6681 6.28779 42.1825 6.20955C36.1216 5.23306 31.9393 8.19363 30.394 9.54187C26.8511 6.46922 21.7832 5.10435 16.4971 6.69779C10.8235 8.40759 7.28303 8.44618 5.67807 8.31806C4.53892 8.22663 3.5692 9.13022 3.5692 10.2668V11.0793H2.17489C0.975653 11.0793 0 12.0548 0 13.2542V49.3669C0 50.5662 0.975772 51.5418 2.17501 51.5418H25.2485C25.5943 51.5418 25.9078 51.7326 26.0475 52.0282C27.7758 55.6848 33.0103 55.6982 34.7449 52.0282C34.8846 51.7328 35.1982 51.5418 35.544 51.5418H58.6175C59.8167 51.5418 60.7922 50.5661 60.7922 49.3669V32.4785C60.7922 31.9865 60.3936 31.5879 59.9017 31.5879C59.4098 31.5879 59.0112 31.9865 59.0112 32.4785V49.3668C59.0112 49.5839 58.8346 49.7606 58.6175 49.7606H35.5441C34.513 49.7606 33.5674 50.3518 33.1348 51.267C32.0462 53.5699 28.7504 53.579 27.6578 51.2671C27.2253 50.352 26.2797 49.7606 25.2485 49.7606H2.17501C1.95772 49.7606 1.78104 49.5839 1.78104 49.3668V13.2542C1.78104 13.037 1.95772 12.8603 2.17489 12.8603H3.5692V46.9629C3.5692 47.367 3.84123 47.7205 4.23187 47.8238C4.40119 47.8687 8.48 48.893 17.0111 46.3219C21.1387 45.078 25.1225 45.8408 28.2834 48.0698C29.5055 48.9315 31.2069 48.9885 32.5096 48.0697C34.4185 46.7235 38.4208 44.7066 43.7818 46.3219C52.3132 48.8929 56.3916 47.8685 56.561 47.8238C56.9516 47.7205 57.2236 47.367 57.2236 46.9629V12.8603H58.6177C58.8349 12.8603 59.0115 13.037 59.0115 13.2542V32.5132C59.0115 33.0051 59.4101 33.4037 59.9021 33.4037C60.394 33.4037 60.7926 33.0051 60.7926 32.5132V13.2542C60.7925 12.0548 59.8168 11.0793 58.6176 11.0793ZM5.35024 10.2668C5.35024 10.1669 5.43181 10.0859 5.53571 10.0932C7.26569 10.2323 11.0575 10.1972 17.0111 8.40296C21.8326 6.95034 26.4388 8.26724 29.5058 11.139V46.7341C28.995 46.4576 23.9876 42.3588 16.4971 44.6167C16.0168 44.7615 15.4889 44.9118 15.0004 45.0423C14.9945 45.0438 14.9885 45.0455 14.9827 45.047C12.1152 45.8119 8.30071 46.5211 5.35012 46.2034C5.35024 43.7282 5.35024 10.9305 5.35024 10.2668Z" fill="#6B6B6B"/>
</g>
<defs>
<clipPath id="clip0_1175:13508">
<rect width="60.7925" height="60.7925" fill="white"/>
</clipPath>
</defs>
</svg>
