<svg width="42" height="41" viewBox="0 0 42 41" fill="none" xmlns="http://www.w3.org/2000/svg">
<path d="M32 14.1C32.3314 14.1 32.6 13.8314 32.6 13.5C32.6 13.1686 32.3314 12.9 32 12.9V14.1ZM12 12.9C11.6686 12.9 11.4 13.1686 11.4 13.5C11.4 13.8314 11.6686 14.1 12 14.1V12.9ZM32 12.9L12 12.9V14.1L32 14.1V12.9Z" fill="black"/>
<circle cx="10.5" cy="13.5" r="0.5" fill="black"/>
<line x1="1" y1="9.4" x2="41" y2="9.4" stroke="black" stroke-width="1.2"/>
<path d="M9.4 4C9.4 4.33137 9.66863 4.6 10 4.6C10.3314 4.6 10.6 4.33137 10.6 4H9.4ZM8.75 7.6C9.08137 7.6 9.35 7.33137 9.35 7C9.35 6.66863 9.08137 6.4 8.75 6.4V7.6ZM5.6 4.5V3.5H4.4V4.5H5.6ZM9.4 3.5V4H10.6V3.5H9.4ZM8.75 6.4H7.5V7.6H8.75V6.4ZM4.4 4.5C4.4 6.21208 5.78792 7.6 7.5 7.6V6.4C6.45066 6.4 5.6 5.54934 5.6 4.5H4.4ZM7.5 1.6C8.54934 1.6 9.4 2.45066 9.4 3.5H10.6C10.6 1.78792 9.21208 0.4 7.5 0.4V1.6ZM7.5 0.4C5.78792 0.4 4.4 1.78792 4.4 3.5H5.6C5.6 2.45066 6.45066 1.6 7.5 1.6V0.4Z" fill="black"/>
<path d="M18.4 4C18.4 4.33137 18.6686 4.6 19 4.6C19.3314 4.6 19.6 4.33137 19.6 4H18.4ZM17.75 7.6C18.0814 7.6 18.35 7.33137 18.35 7C18.35 6.66863 18.0814 6.4 17.75 6.4V7.6ZM14.6 4.5V3.5H13.4V4.5H14.6ZM18.4 3.5V4H19.6V3.5H18.4ZM17.75 6.4H16.5V7.6H17.75V6.4ZM13.4 4.5C13.4 6.21208 14.7879 7.6 16.5 7.6V6.4C15.4507 6.4 14.6 5.54934 14.6 4.5H13.4ZM16.5 1.6C17.5493 1.6 18.4 2.45066 18.4 3.5H19.6C19.6 1.78792 18.2121 0.4 16.5 0.4V1.6ZM16.5 0.4C14.7879 0.4 13.4 1.78792 13.4 3.5H14.6C14.6 2.45066 15.4507 1.6 16.5 1.6V0.4Z" fill="black"/>
<path d="M27.4 4C27.4 4.33137 27.6686 4.6 28 4.6C28.3314 4.6 28.6 4.33137 28.6 4H27.4ZM26.75 7.6C27.0814 7.6 27.35 7.33137 27.35 7C27.35 6.66863 27.0814 6.4 26.75 6.4V7.6ZM23.6 4.5V3.5H22.4V4.5H23.6ZM27.4 3.5V4H28.6V3.5H27.4ZM26.75 6.4H25.5V7.6H26.75V6.4ZM22.4 4.5C22.4 6.21208 23.7879 7.6 25.5 7.6V6.4C24.4507 6.4 23.6 5.54934 23.6 4.5H22.4ZM25.5 1.6C26.5493 1.6 27.4 2.45066 27.4 3.5H28.6C28.6 1.78792 27.2121 0.4 25.5 0.4V1.6ZM25.5 0.4C23.7879 0.4 22.4 1.78792 22.4 3.5H23.6C23.6 2.45066 24.4507 1.6 25.5 1.6V0.4Z" fill="black"/>
<path d="M36.4 4C36.4 4.33137 36.6686 4.6 37 4.6C37.3314 4.6 37.6 4.33137 37.6 4H36.4ZM35.75 7.6C36.0814 7.6 36.35 7.33137 36.35 7C36.35 6.66863 36.0814 6.4 35.75 6.4V7.6ZM32.6 4.5V3.5H31.4V4.5H32.6ZM36.4 3.5V4H37.6V3.5H36.4ZM35.75 6.4H34.5V7.6H35.75V6.4ZM31.4 4.5C31.4 6.21208 32.7879 7.6 34.5 7.6V6.4C33.4507 6.4 32.6 5.54934 32.6 4.5H31.4ZM34.5 1.6C35.5493 1.6 36.4 2.45066 36.4 3.5H37.6C37.6 1.78792 36.2121 0.4 34.5 0.4V1.6ZM34.5 0.4C32.7879 0.4 31.4 1.78792 31.4 3.5H32.6C32.6 2.45066 33.4507 1.6 34.5 1.6V0.4Z" fill="black"/>
<path d="M34 40.6C34.3314 40.6 34.6 40.3314 34.6 40C34.6 39.6686 34.3314 39.4 34 39.4V40.6ZM36 39.4C35.6686 39.4 35.4 39.6686 35.4 40C35.4 40.3314 35.6686 40.6 36 40.6V39.4ZM2 3.6H40V2.4H2V3.6ZM40.4 4V39H41.6V4H40.4ZM1.6 39V4H0.4V39H1.6ZM34 39.4H2V40.6H34V39.4ZM40 39.4H36V40.6H40V39.4ZM0.4 39C0.4 39.8837 1.11634 40.6 2 40.6V39.4C1.77909 39.4 1.6 39.2209 1.6 39H0.4ZM40.4 39C40.4 39.2209 40.2209 39.4 40 39.4V40.6C40.8837 40.6 41.6 39.8837 41.6 39H40.4ZM40 3.6C40.2209 3.6 40.4 3.77909 40.4 4H41.6C41.6 3.11634 40.8837 2.4 40 2.4V3.6ZM2 2.4C1.11634 2.4 0.4 3.11634 0.4 4H1.6C1.6 3.77909 1.77909 3.6 2 3.6V2.4Z" fill="black"/>
<mask id="path-9-inside-1_1026_6393" fill="white">
<rect width="6.96915" height="7" rx="1" transform="matrix(-1 0 0 1 24.4846 16)"/>
</mask>
<rect width="6.96915" height="7" rx="1" transform="matrix(-1 0 0 1 24.4846 16)" stroke="black" stroke-width="2.4" mask="url(#path-9-inside-1_1026_6393)"/>
<mask id="path-10-inside-2_1026_6393" fill="white">
<rect width="6.96915" height="7" rx="1" transform="matrix(-1 0 0 1 36 16)"/>
</mask>
<rect width="6.96915" height="7" rx="1" transform="matrix(-1 0 0 1 36 16)" stroke="black" stroke-width="2.4" mask="url(#path-10-inside-2_1026_6393)"/>
<mask id="path-11-inside-3_1026_6393" fill="white">
<rect width="6.96915" height="7" rx="1" transform="matrix(-1 0 0 1 12.9692 16)"/>
</mask>
<rect width="6.96915" height="7" rx="1" transform="matrix(-1 0 0 1 12.9692 16)" stroke="black" stroke-width="2.4" mask="url(#path-11-inside-3_1026_6393)"/>
<mask id="path-12-inside-4_1026_6393" fill="white">
<rect width="6.96915" height="7" rx="1" transform="matrix(-1 0 0 1 24.4846 28)"/>
</mask>
<rect width="6.96915" height="7" rx="1" transform="matrix(-1 0 0 1 24.4846 28)" stroke="black" stroke-width="2.4" mask="url(#path-12-inside-4_1026_6393)"/>
<mask id="path-13-inside-5_1026_6393" fill="white">
<rect width="6.96915" height="7" rx="1" transform="matrix(-1 0 0 1 36 28)"/>
</mask>
<rect width="6.96915" height="7" rx="1" transform="matrix(-1 0 0 1 36 28)" stroke="black" stroke-width="2.4" mask="url(#path-13-inside-5_1026_6393)"/>
<mask id="path-14-inside-6_1026_6393" fill="white">
<rect width="6.96915" height="7" rx="1" transform="matrix(-1 0 0 1 12.9692 28)"/>
</mask>
<rect width="6.96915" height="7" rx="1" transform="matrix(-1 0 0 1 12.9692 28)" stroke="black" stroke-width="2.4" mask="url(#path-14-inside-6_1026_6393)"/>
</svg>
