<svg width="42" height="42" viewBox="0 0 42 42" fill="none" xmlns="http://www.w3.org/2000/svg">
<g clip-path="url(#clip0)">
<path d="M40.4998 12.4197C40.4989 12.4186 40.4983 12.4175 40.4974 12.4164L34.0182 4.83271C33.6732 4.42887 33.1705 4.19721 32.6394 4.19721H27.2737C26.9524 3.41816 26.4854 2.69883 25.8853 2.07629C25.6496 1.83176 25.2603 1.82454 25.0157 2.06038C24.7712 2.29605 24.7641 2.68529 24.9997 2.92991C26.0024 3.97015 26.5546 5.33884 26.5546 6.78407C26.5546 7.78944 26.2871 8.76274 25.7782 9.61841H16.2226C15.7145 8.76397 15.4461 7.78444 15.4461 6.78407C15.4461 3.72151 17.9378 1.22989 21.0004 1.22989C21.6246 1.22989 22.2373 1.33252 22.8211 1.53505C23.1417 1.64629 23.4923 1.47648 23.6036 1.15549C23.7149 0.834668 23.545 0.484313 23.2241 0.372996C22.5103 0.12559 21.7622 0 21.0004 0C18.1753 0 15.749 1.73627 14.7299 4.19729H9.36147C8.83023 4.19729 8.32771 4.42895 7.98269 4.83279L1.50337 12.4165C1.50246 12.4175 1.50189 12.4187 1.50099 12.4197C1.40485 12.5324 1.35596 12.6732 1.35596 12.818V41.385C1.35596 41.7247 1.63125 42 1.97095 42H6.55584C6.89545 42 7.17082 41.7247 7.17082 41.385C7.17082 41.0453 6.89553 40.77 6.55584 40.77H2.58585V16.8095H39.4148V40.7701H9.41192C9.07231 40.7701 8.79693 41.0454 8.79693 41.3851C8.79693 41.7248 9.07223 42.0001 9.41192 42.0001H40.0298C40.3694 42.0001 40.6448 41.7248 40.6448 41.3851C40.6448 41.3851 40.6448 12.8181 40.6448 12.816C40.6448 12.6765 40.5895 12.5263 40.4998 12.4197ZM27.607 8.32937H28.4646L29.334 9.61841H27.1648C27.3555 9.20423 27.5037 8.77283 27.607 8.32937ZM14.8361 9.61841H12.6668L13.5362 8.32937H14.3946C14.4979 8.77259 14.6458 9.20448 14.8361 9.61841ZM8.91784 5.63169C9.02883 5.50175 9.19052 5.42719 9.36147 5.42719H14.3528C14.2634 5.86573 14.2163 6.31952 14.2163 6.78407C14.2163 6.88939 14.2197 6.99448 14.2245 7.09939H13.3607C13.0612 7.09939 12.7823 7.24771 12.6147 7.49602L11.2999 9.44565C11.1135 9.7221 11.095 10.0767 11.2515 10.371C11.408 10.6654 11.7124 10.8483 12.0458 10.8483H29.9551C30.2885 10.8483 30.5929 10.6655 30.7494 10.371C30.9059 10.0766 30.8874 9.7221 30.7009 9.44557L29.3861 7.49602C29.2186 7.24771 28.9398 7.09948 28.6402 7.09948H27.7764C27.7813 6.99464 27.7845 6.88964 27.7845 6.78415C27.7845 6.32354 27.7375 5.86966 27.6478 5.42727H32.6392C32.8102 5.42727 32.9719 5.50184 33.0829 5.63177L38.6955 12.2011H3.30518L8.91784 5.63169ZM39.4149 15.5796H2.58585V13.4309H39.4148V15.5796H39.4149Z" fill="black"/>
<path d="M21.3059 33.9117L21.2402 33.9773L21.168 33.9117C18.0509 31.0833 15.9902 29.213 15.9902 27.3164C15.9902 26.0039 16.9746 25.0195 18.2871 25.0195C19.2977 25.0195 20.2821 25.6758 20.6299 26.5683H21.8505C22.1984 25.6758 23.1827 25.0195 24.1934 25.0195C25.5059 25.0195 26.4902 26.0039 26.4902 27.3164C26.4902 29.213 24.4296 31.0833 21.3059 33.9117ZM24.1934 23.707C23.0515 23.707 21.9555 24.2386 21.2402 25.072C20.5249 24.2386 19.429 23.707 18.2871 23.707C16.2659 23.707 14.6777 25.2886 14.6777 27.3164C14.6777 29.7905 16.909 31.8183 20.2887 34.883L21.2402 35.7492L22.1918 34.883C25.5715 31.8183 27.8027 29.7905 27.8027 27.3164C27.8027 25.2886 26.2146 23.707 24.1934 23.707Z" fill="black"/>
</g>
<defs>
<clipPath id="clip0">
<rect width="42" height="42" fill="white"/>
</clipPath>
</defs>
</svg>
