<svg width="25" height="20" viewBox="0 0 25 20" fill="none" xmlns="http://www.w3.org/2000/svg">
<path d="M0.508208 1.618C3.86098 4.56491 9.74405 9.74942 11.4732 11.366C11.7053 11.5841 11.9542 11.6951 12.2127 11.6951C12.4706 11.6951 12.7192 11.5852 12.9508 11.368C14.6814 9.74991 20.5644 4.56491 23.9172 1.618C24.126 1.43488 24.1578 1.11301 23.9888 0.889134C23.5981 0.371812 23.0157 0.0751953 22.3914 0.0751953H2.03401C1.40979 0.0751953 0.827263 0.371813 0.436639 0.889184C0.267641 1.11301 0.299465 1.43488 0.508208 1.618Z" fill="#647DB7"/>
<path d="M24.1337 3.21526C23.9533 3.12811 23.7411 3.15851 23.591 3.29162C19.8728 6.56293 15.1274 10.7561 13.6344 12.1524C12.7964 12.9374 11.6334 12.9374 10.7935 12.1513C9.20206 10.6632 3.87312 5.96147 0.83793 3.29157C0.686824 3.15846 0.474121 3.1291 0.295198 3.21521C0.115322 3.30192 0 3.48865 0 3.69445V16.9779C0 18.1432 0.912982 19.0907 2.03576 19.0907H22.3932C23.5159 19.0907 24.4289 18.1432 24.4289 16.9779V3.69445C24.4289 3.48865 24.3136 3.30142 24.1337 3.21526Z" fill="#647DB7"/>
</svg>
