<svg width="53" height="165" viewBox="0 0 53 165" fill="none" xmlns="http://www.w3.org/2000/svg">
<path d="M0.755201 0.719983H52.8256L44.0704 103.248H9.28L0.755201 0.719983ZM26.7904 164.074C19.1104 164.074 12.8128 161.77 7.8976 157.162C2.9824 152.4 0.5248 146.64 0.5248 139.882C0.5248 132.97 2.9824 127.286 7.8976 122.832C12.8128 118.378 19.1104 116.15 26.7904 116.15C34.4704 116.15 40.6912 118.378 45.4528 122.832C50.368 127.286 52.8256 132.97 52.8256 139.882C52.8256 146.64 50.368 152.4 45.4528 157.162C40.5376 161.77 34.3168 164.074 26.7904 164.074Z" fill="#C0CEF3"/>
</svg>
