<svg width="14" height="24" viewBox="0 0 14 24" fill="none" xmlns="http://www.w3.org/2000/svg">
<path d="M13.1943 0.0048042L10.0265 0C6.46755 0 4.1676 2.23035 4.1676 5.68241V8.30238H0.982486C0.707254 8.30238 0.484375 8.51329 0.484375 8.77344V12.5695C0.484375 12.8296 0.707508 13.0403 0.982486 13.0403H4.1676V22.6189C4.1676 22.8791 4.39048 23.0897 4.66571 23.0897H8.82137C9.09661 23.0897 9.31948 22.8788 9.31948 22.6189V13.0403H13.0436C13.3189 13.0403 13.5417 12.8296 13.5417 12.5695L13.5433 8.77344C13.5433 8.64853 13.4907 8.5289 13.3974 8.44051C13.3041 8.35211 13.177 8.30238 13.0449 8.30238H9.31948V6.0814C9.31948 5.01391 9.58862 4.47199 11.0598 4.47199L13.1938 4.47127C13.4688 4.47127 13.6917 4.26037 13.6917 4.00046V0.475616C13.6917 0.215949 13.469 0.00528462 13.1943 0.0048042Z" fill="#647DB7"/>
</svg>
