<svg width="61" height="61" viewBox="0 0 61 61" fill="none" xmlns="http://www.w3.org/2000/svg">
<g clip-path="url(#clip0_1175:13385)">
<path d="M53.0996 8.05644H47.9727V2.92967C47.9729 1.31826 46.6544 0 45.0438 0H7.69029C6.079 0 4.76074 1.31826 4.76074 2.92967V49.8038C4.76074 51.4151 6.079 52.7334 7.69041 52.7334H12.8173V57.8603C12.8173 59.4716 14.135 60.79 15.747 60.79H40.6481C42.2587 60.79 44.538 59.8862 45.7106 58.7825L53.8945 51.0791C55.0685 49.9753 56.028 47.7532 56.028 46.1419L56.0294 10.9863C56.0293 9.37482 54.7109 8.05644 53.0996 8.05644ZM12.8171 10.9862V50.5362H7.69029C7.29338 50.5362 6.95796 50.2008 6.95796 49.8039V2.92967C6.95796 2.53275 7.29338 2.19734 7.69029 2.19734H45.0439C45.4401 2.19734 45.7762 2.53275 45.7762 2.92967V8.05656H15.7467C14.1347 8.05656 12.8171 9.37482 12.8171 10.9862ZM52.3885 49.4793L44.2046 57.1822C44.0369 57.3397 43.8186 57.4942 43.5776 57.6413V50.9024C43.5776 50.3992 43.7805 49.9465 44.1152 49.6097C44.4529 49.275 44.9055 49.0714 45.4086 49.0714H52.7364C52.6228 49.2258 52.5065 49.3679 52.3885 49.4793ZM53.8305 46.1417C53.8305 46.3592 53.7909 46.6111 53.7309 46.874H45.4085C43.1858 46.8784 41.3848 48.6794 41.3802 50.9023V58.5039C41.1188 58.5567 40.8668 58.5924 40.6479 58.5924H15.7467V58.5925C15.349 58.5925 15.0144 58.2571 15.0144 57.8602V10.9861C15.0144 10.5892 15.3491 10.2538 15.7467 10.2538H53.0995C53.4964 10.2538 53.8318 10.5892 53.8318 10.9861L53.8305 46.1417Z" fill="#6B6B6B"/>
<path d="M45.0435 18.3105H23.8037C23.1965 18.3105 22.7051 18.802 22.7051 19.4092C22.7051 20.0163 23.1966 20.5078 23.8037 20.5078H45.0435C45.6499 20.5078 46.1421 20.0163 46.1421 19.4092C46.1421 18.802 45.6499 18.3105 45.0435 18.3105Z" fill="#6B6B6B"/>
<path d="M45.0435 32.959H23.8037C23.1965 32.959 22.7051 33.4504 22.7051 34.0576C22.7051 34.6648 23.1966 35.1562 23.8037 35.1562H45.0435C45.6499 35.1562 46.1421 34.6648 46.1421 34.0576C46.1421 33.4503 45.6499 32.959 45.0435 32.959Z" fill="#6B6B6B"/>
<path d="M35.5221 40.2832H23.8037C23.1965 40.2832 22.7051 40.7746 22.7051 41.3818C22.7051 41.989 23.1965 42.4804 23.8037 42.4804H35.5221C36.1286 42.4804 36.62 41.989 36.62 41.3818C36.62 40.7746 36.1286 40.2832 35.5221 40.2832Z" fill="#6B6B6B"/>
<path d="M45.0435 25.6348H23.8037C23.1965 25.6348 22.7051 26.1262 22.7051 26.7334C22.7051 27.3406 23.1966 27.832 23.8037 27.832H45.0435C45.6499 27.832 46.1421 27.3406 46.1421 26.7334C46.1421 26.1262 45.6499 25.6348 45.0435 25.6348Z" fill="#6B6B6B"/>
</g>
<defs>
<clipPath id="clip0_1175:13385">
<rect width="60.79" height="60.79" fill="white"/>
</clipPath>
</defs>
</svg>
