<svg width="177" height="177" viewBox="0 0 177 177" fill="none" xmlns="http://www.w3.org/2000/svg">
<g clip-path="url(#clip0)">
<path d="M108.332 37.1259C104.905 33.2713 99.5595 31.0605 93.667 31.0605C83.1434 31.0605 73.7368 38.2457 72.6969 47.0874C72.2306 51.1314 73.4855 55.0548 76.2304 58.1344C79.603 61.9185 84.9006 64.0885 90.7665 64.0885C101.563 64.0885 110.831 57.0482 111.867 48.0709C112.334 44.1009 111.079 40.2141 108.332 37.1259ZM103.427 47.0871C102.896 51.697 97.0974 55.5914 90.7658 55.5914C87.3717 55.5914 84.3088 54.4288 82.573 52.4807C81.4298 51.1982 80.9471 49.7113 81.1362 48.0702C81.6697 43.5353 87.5249 39.5569 93.6666 39.5569C97.0843 39.5569 100.193 40.7589 101.984 42.7716C102.77 43.6556 103.659 45.1203 103.427 47.0871Z" fill="#FF9776"/>
<path d="M104.321 127.732C103.259 127.02 100.773 125.353 102.78 113.779C102.831 113.526 103.033 112.593 103.346 111.143C104.058 107.839 105.384 101.69 106.825 94.8334C106.829 94.8182 106.832 94.8023 106.835 94.7871C108.306 87.3762 107.142 80.8932 103.469 76.0385C100.153 71.6556 94.9039 68.9688 88.6888 68.4738C79.4979 67.7385 69.8832 73.2234 66.9378 78.6226C65.576 81.0149 66.228 82.9578 66.7414 83.9081C67.3775 85.0835 68.3054 85.7424 68.9833 86.2233C70.0277 86.9645 72.4725 88.6996 70.1507 100.25C69.9336 101.306 66.694 117.777 66.2657 120.115C66.2626 120.131 66.2602 120.147 66.2571 120.162C64.9807 127.609 66.2429 134.117 70.1124 138.816C76.3433 146.384 85.8274 146.02 86.1987 146.02C95.038 146.02 103.874 140.53 106.564 135.276C107.863 132.849 107.161 130.924 106.622 129.988C105.956 128.83 105.011 128.195 104.321 127.732ZM98.504 93.1111C97.0697 99.936 95.7491 106.06 95.039 109.352C94.5561 111.59 94.4586 112.045 94.424 112.231C94.4216 112.246 94.4185 112.261 94.4161 112.277C92.2589 124.675 94.442 130.101 97.5319 133.137C96.6877 133.89 95.5313 134.703 94.0998 135.442C91.2843 136.895 88.1657 137.646 85.5394 137.507C81.7135 137.303 78.6744 135.922 76.7523 133.515C74.5139 130.712 73.7792 126.599 74.6276 121.623C75.0895 119.106 78.3336 102.631 78.4698 101.976C78.4722 101.961 78.4753 101.947 78.4784 101.933C80.9599 89.5953 78.9188 84.1138 75.9098 80.9983C76.7734 80.2675 77.9512 79.4845 79.4014 78.7841C82.2538 77.4064 85.3932 76.7361 88.0133 76.9442C91.8326 77.2485 94.8337 78.708 96.6925 81.1653C98.857 84.026 99.4837 88.1568 98.504 93.1111Z" fill="#FF9776"/>
<path d="M158.891 136.54C170.586 122.505 177.001 105.168 177.001 87.4622C177.001 65.7606 167.744 45.3807 150.936 30.076C134.239 14.873 112.066 6.5 88.501 6.5C64.9361 6.5 42.7622 14.873 26.0651 30.0763C9.25658 45.3803 0 65.761 0 87.4626C0 109.164 9.25658 129.545 26.0647 144.849C42.7619 160.052 64.935 168.425 88.5 168.425C103.236 168.425 117.758 165.061 130.631 158.68L161.474 170.231C161.959 170.413 162.463 170.501 162.963 170.501C164.014 170.501 165.047 170.111 165.846 169.374C167.025 168.286 167.49 166.627 167.049 165.085L158.891 136.54ZM131.86 150.068C130.73 149.645 129.474 149.723 128.403 150.281C116.324 156.592 102.526 159.928 88.5003 159.928C44.3864 159.928 8.49672 127.421 8.49672 87.4629C8.49672 47.505 44.386 14.9964 88.5 14.9964C132.614 14.9964 168.504 47.5043 168.504 87.4619C168.504 104.089 162.449 119.73 150.993 132.696C150.034 133.782 149.694 135.283 150.092 136.676L156.564 159.319L131.86 150.068Z" fill="#FF9776"/>
</g>
<defs>
<clipPath id="clip0">
<rect width="177.001" height="177.001" fill="white"/>
</clipPath>
</defs>
</svg>
