<svg width="44" height="44" viewBox="0 0 44 44" fill="none" xmlns="http://www.w3.org/2000/svg">
<g clip-path="url(#clip0)">
<path d="M43.2467 7.87C42.8462 4.11761 39.8827 1.15344 36.13 0.753296C26.7192 -0.251099 17.2808 -0.251099 7.87033 0.753296C4.11761 1.15378 1.15378 4.11761 0.753296 7.87C-0.251099 17.2805 -0.251099 26.7192 0.753296 36.1297C1.15378 39.8824 4.11761 42.8462 7.87 43.2467C17.2805 44.2511 26.7192 44.2511 36.13 43.2467C39.8827 42.8462 42.8462 39.8824 43.2467 36.1297C44.2511 26.7192 44.2511 17.2808 43.2467 7.87V7.87Z" fill="url(#paint0_radial)"/>
<path d="M40.8541 9.46162C40.499 6.13188 37.8692 3.50172 34.5391 3.14622C26.1884 2.25529 17.8128 2.25529 9.46211 3.14622C6.13237 3.50172 3.50221 6.13188 3.14671 9.46162C2.25578 17.8123 2.25578 26.1879 3.14671 34.5383C3.50221 37.8683 6.13237 40.4985 9.46211 40.8536C17.8128 41.7449 26.1884 41.7449 34.5387 40.8536C37.8688 40.4985 40.499 37.8683 40.8541 34.5383C41.7454 26.1879 41.7454 17.8123 40.8541 9.46162V9.46162Z" fill="url(#paint1_linear)"/>
<path d="M0.660156 35.2178C0.690369 35.5219 0.721588 35.826 0.75415 36.1302C1.15463 39.8826 4.11847 42.8464 7.87118 43.2469C17.2817 44.2513 26.7204 44.2513 36.1309 43.2469C39.8836 42.8464 42.8471 39.8826 43.2476 36.1302C43.2801 35.826 43.3113 35.5219 43.3419 35.2178H0.660156Z" fill="url(#paint2_linear)"/>
<path d="M43.2468 36.1298C43.7866 31.0732 44.0357 26.0086 43.9954 20.9447L33.938 10.8873C32.6815 9.45288 30.8463 8.55759 28.6898 8.48004C24.2549 8.32025 19.806 8.32831 15.3705 8.48071C11.6866 8.6076 9.11047 11.0837 8.44983 14.7229C8.33334 15.3654 8.26352 16.0164 8.17188 16.6636V27.3326C8.22256 27.6783 8.29709 28.0224 8.32025 28.3702C8.46796 30.5838 9.37769 32.4798 10.8343 33.7625L21.0689 43.9967C26.0915 44.032 31.1145 43.7822 36.1301 43.2468C39.8828 42.8463 42.8463 39.8825 43.2468 36.1298V36.1298Z" fill="url(#paint3_linear)"/>
<path d="M43.2464 36.1301C42.8462 39.8822 39.8817 42.8467 36.1297 43.2468C31.1147 43.7819 26.0908 44.032 21.0688 43.9968L10.8496 33.7776C12.0343 34.8145 13.5785 35.446 15.3704 35.5135C19.8049 35.68 24.2549 35.6756 28.6894 35.5158C32.7002 35.3708 35.6026 32.4023 35.7278 28.3914C35.8615 24.1328 35.8615 19.8631 35.7278 15.6045C35.6708 13.7542 35.0212 12.126 33.9443 10.894L43.9953 20.945C44.0349 26.0083 43.7858 31.0736 43.2464 36.1301Z" fill="url(#paint4_linear)"/>
<path d="M27.1925 17.2357C25.9041 15.8328 24.0554 14.9526 22.0007 14.9526C18.1086 14.9526 14.9531 18.1082 14.9531 22.0002C14.9531 24.055 15.8333 25.9036 17.2362 27.192L33.5418 43.4977C34.4049 43.4225 35.2679 43.3389 36.1303 43.2469C39.8831 42.8464 42.8469 39.8826 43.2474 36.1299C43.3394 35.2675 43.4229 34.4044 43.4981 33.5413L27.1925 17.2357Z" fill="url(#paint5_linear)"/>
<path d="M43.9156 26.7398L30.7927 13.6172C30.4865 13.2154 30.0042 12.9546 29.46 12.9546C28.5341 12.9546 27.7832 13.7052 27.7832 14.6314C27.7832 15.1755 28.044 15.6579 28.4459 15.9641L43.681 31.1995C43.7844 29.7134 43.8626 28.2266 43.9156 26.7398V26.7398Z" fill="url(#paint6_linear)"/>
<path d="M8.17188 16.6636C8.26352 16.0164 8.33334 15.3654 8.44983 14.7229C9.11014 11.0837 11.6866 8.6076 15.3705 8.48071C19.806 8.32831 24.2549 8.32025 28.6898 8.48004C32.6993 8.62439 35.6031 11.5933 35.7283 15.6041C35.8615 19.8631 35.8615 24.1324 35.7283 28.3914C35.6031 32.4022 32.7003 35.3708 28.6901 35.5154C24.2553 35.6756 19.8053 35.6796 15.3708 35.5131C11.3606 35.3624 8.58847 32.3868 8.32025 28.3699C8.29709 28.0224 8.22256 27.678 8.17188 27.3322C8.17188 23.7759 8.17188 20.2196 8.17188 16.6636V16.6636ZM22.0038 33.1384C24.0334 33.1384 26.065 33.1992 28.0919 33.1243C31.2699 33.0065 33.2247 31.1098 33.2989 27.9348C33.3908 23.9787 33.3908 20.0172 33.2989 16.0607C33.2247 12.8864 31.2686 10.9454 28.0919 10.8779C24.0599 10.7926 20.0235 10.7933 15.9915 10.8779C12.839 10.944 10.8786 12.8457 10.793 15.9851C10.6842 19.9913 10.6842 24.0045 10.793 28.0107C10.8786 31.1497 12.839 33.0075 15.9919 33.1243C17.9933 33.1988 19.9997 33.1384 22.0038 33.1384V33.1384Z" fill="url(#paint7_linear)"/>
<path d="M8.17188 16.6636C8.26352 16.0164 8.33334 15.3654 8.44983 14.7229C9.11014 11.0837 11.6866 8.6076 15.3705 8.48071C19.806 8.32831 24.2549 8.32025 28.6898 8.48004C32.6993 8.62439 35.6031 11.5933 35.7283 15.6041C35.8615 19.8631 35.8615 24.1324 35.7283 28.3914C35.6031 32.4022 32.7003 35.3708 28.6901 35.5154C24.2553 35.6756 19.8053 35.6796 15.3708 35.5131C11.3606 35.3624 8.58847 32.3868 8.32025 28.3699C8.29709 28.0224 8.22256 27.678 8.17188 27.3322C8.17188 23.7759 8.17188 20.2196 8.17188 16.6636V16.6636ZM22.0038 33.1384C24.0334 33.1384 26.065 33.1992 28.0919 33.1243C31.2699 33.0065 33.2247 31.1098 33.2989 27.9348C33.3908 23.9787 33.3908 20.0172 33.2989 16.0607C33.2247 12.8864 31.2686 10.9454 28.0919 10.8779C24.0599 10.7926 20.0235 10.7933 15.9915 10.8779C12.839 10.944 10.8786 12.8457 10.793 15.9851C10.6842 19.9913 10.6842 24.0045 10.793 28.0107C10.8786 31.1497 12.839 33.0075 15.9919 33.1243C17.9933 33.1988 19.9997 33.1384 22.0038 33.1384V33.1384Z" fill="white"/>
<path d="M22.0007 14.9531C18.1086 14.9531 14.9531 18.1083 14.9531 22.0003C14.9531 25.8927 18.1086 29.0479 22.0007 29.0479C25.893 29.0479 29.0482 25.8927 29.0482 22.0003C29.0482 18.1083 25.893 14.9531 22.0007 14.9531ZM22.0007 26.6215C19.4484 26.6215 17.3795 24.5526 17.3795 22.0003C17.3795 19.4481 19.4484 17.3792 22.0007 17.3792C24.5529 17.3792 26.6218 19.4481 26.6218 22.0003C26.6218 24.5526 24.5529 26.6215 22.0007 26.6215Z" fill="white"/>
<path d="M31.1364 14.6314C31.1364 15.5572 30.3858 16.3078 29.46 16.3078C28.5341 16.3078 27.7832 15.5572 27.7832 14.6314C27.7832 13.7052 28.5341 12.9546 29.46 12.9546C30.3858 12.9546 31.1364 13.7052 31.1364 14.6314Z" fill="white"/>
</g>
<defs>
<radialGradient id="paint0_radial" cx="0" cy="0" r="1" gradientUnits="userSpaceOnUse" gradientTransform="translate(9.01975 38.4525) scale(48.5243)">
<stop stop-color="#FAE100"/>
<stop offset="0.0544" stop-color="#FADC04"/>
<stop offset="0.1167" stop-color="#FBCE0E"/>
<stop offset="0.1829" stop-color="#FCB720"/>
<stop offset="0.2514" stop-color="#FE9838"/>
<stop offset="0.3054" stop-color="#FF7950"/>
<stop offset="0.4922" stop-color="#FF1C74"/>
<stop offset="1" stop-color="#6C1CD1"/>
</radialGradient>
<linearGradient id="paint1_linear" x1="16.8764" y1="19.1177" x2="-57.6648" y2="-22.8117" gradientUnits="userSpaceOnUse">
<stop stop-color="#A1B5D8" stop-opacity="0"/>
<stop offset="0.3094" stop-color="#90A2BD" stop-opacity="0.309804"/>
<stop offset="0.7554" stop-color="#7C8B9C" stop-opacity="0.756863"/>
<stop offset="1" stop-color="#748290"/>
</linearGradient>
<linearGradient id="paint2_linear" x1="22.0009" y1="38.841" x2="22.0009" y2="45.6995" gradientUnits="userSpaceOnUse">
<stop stop-color="#FAE100" stop-opacity="0"/>
<stop offset="0.3068" stop-color="#FCA800" stop-opacity="0.305882"/>
<stop offset="0.6275" stop-color="#FE7300" stop-opacity="0.627451"/>
<stop offset="0.8685" stop-color="#FF5200" stop-opacity="0.866667"/>
<stop offset="1" stop-color="#FF4500"/>
</linearGradient>
<linearGradient id="paint3_linear" x1="19.4969" y1="19.4347" x2="8.60765" y2="8.54539" gradientUnits="userSpaceOnUse">
<stop stop-color="#833AB4" stop-opacity="0"/>
<stop offset="1" stop-color="#833AB4"/>
</linearGradient>
<linearGradient id="paint4_linear" x1="30.1551" y1="40.2436" x2="24.7201" y2="14.6213" gradientUnits="userSpaceOnUse">
<stop stop-color="#833AB4" stop-opacity="0"/>
<stop offset="1" stop-color="#833AB4"/>
</linearGradient>
<linearGradient id="paint5_linear" x1="32.2242" y1="32.2237" x2="10.394" y2="10.3935" gradientUnits="userSpaceOnUse">
<stop stop-color="#833AB4" stop-opacity="0"/>
<stop offset="1" stop-color="#833AB4"/>
</linearGradient>
<linearGradient id="paint6_linear" x1="33.8436" y1="19.015" x2="26.6248" y2="11.7962" gradientUnits="userSpaceOnUse">
<stop stop-color="#833AB4" stop-opacity="0"/>
<stop offset="1" stop-color="#833AB4"/>
</linearGradient>
<linearGradient id="paint7_linear" x1="30.7363" y1="13.3247" x2="12.9373" y2="31.1237" gradientUnits="userSpaceOnUse">
<stop stop-color="#833AB4"/>
<stop offset="0.0922" stop-color="#9C3495"/>
<stop offset="0.2927" stop-color="#DC2546"/>
<stop offset="0.392" stop-color="#FD1D1D"/>
<stop offset="0.5589" stop-color="#FC6831"/>
<stop offset="0.6887" stop-color="#FC9B40"/>
<stop offset="0.7521" stop-color="#FCAF45"/>
<stop offset="0.7806" stop-color="#FDB750"/>
<stop offset="0.8656" stop-color="#FECB6A"/>
<stop offset="0.9415" stop-color="#FFD87A"/>
<stop offset="1" stop-color="#FFDC80"/>
</linearGradient>
<clipPath id="clip0">
<rect width="44" height="44" fill="white"/>
</clipPath>
</defs>
</svg>
