<svg width="23" height="23" viewBox="0 0 23 23" fill="none" xmlns="http://www.w3.org/2000/svg">
<path d="M4.75583 7.75826C4.83875 7.75827 4.91561 7.71556 4.96109 7.64624C5.23736 7.22511 5.55671 6.83216 5.91751 6.47108C6.59673 5.79133 7.38799 5.2575 8.26934 4.88441C9.1825 4.49787 10.1518 4.3019 11.1502 4.3019C12.1487 4.3019 13.1179 4.49791 14.0311 4.88441C14.9124 5.2575 15.7037 5.79133 16.3829 6.47108C16.7437 6.83216 17.0631 7.22511 17.3393 7.64623C17.3848 7.71556 17.4617 7.75827 17.5446 7.75827H21.8264C21.9265 7.75827 22.0075 7.67719 22.0075 7.57717V4.8957C22.0075 2.3938 19.9737 0.358398 17.4739 0.358398H4.82665C2.32676 0.358398 0.292969 2.3938 0.292969 4.89566V7.57713C0.292969 7.67714 0.374048 7.75822 0.474064 7.75822L4.75583 7.75826ZM18.9602 4.51291C18.9602 4.61293 18.8791 4.69401 18.7791 4.69401H17.8689C17.7689 4.69401 17.6878 4.61293 17.6878 4.51291V3.60176C17.6878 3.50174 17.7689 3.42066 17.8689 3.42066H18.7791C18.8791 3.42066 18.9602 3.50174 18.9602 3.60176V4.51291Z" fill="#647DB7"/>
<path d="M18.3162 9.03125C18.1889 9.03125 18.1012 9.15923 18.143 9.27949C18.4134 10.058 18.5504 10.8725 18.5504 11.7076C18.5504 12.7068 18.3546 13.6769 17.9684 14.5908C17.5956 15.4728 17.0622 16.2647 16.383 16.9444C15.7037 17.6242 14.9125 18.158 14.0311 18.5311C13.118 18.9177 12.1487 19.1136 11.1503 19.1136C10.1518 19.1136 9.18254 18.9176 8.26938 18.5311C7.38803 18.158 6.59672 17.6242 5.91755 16.9444C5.23833 16.2647 4.70493 15.4728 4.33213 14.5908C3.94589 13.6769 3.75008 12.7068 3.75008 11.7076C3.75008 10.8726 3.88714 10.058 4.15754 9.27948C4.19931 9.15922 4.11159 9.03125 3.98429 9.03125H0.474066C0.374049 9.03125 0.292969 9.11233 0.292969 9.21235V17.5525C0.292969 20.0544 2.32676 22.0898 4.82665 22.0898H17.4738C19.9737 22.0898 22.0075 20.0544 22.0075 17.5525V9.21235C22.0075 9.11233 21.9265 9.03125 21.8264 9.03125H18.3162Z" fill="#647DB7"/>
<path d="M11.1546 9.11426C9.72532 9.11426 8.5625 10.278 8.5625 11.7084C8.5625 13.1388 9.72532 14.3025 11.1546 14.3025C12.5838 14.3025 13.7466 13.1388 13.7466 11.7084C13.7466 10.2781 12.5838 9.11426 11.1546 9.11426Z" fill="#647DB7"/>
<path d="M11.1551 5.5752C7.77081 5.5752 5.02734 8.3209 5.02734 11.7079C5.02734 15.0948 7.77081 17.8406 11.1551 17.8406C14.5394 17.8406 17.2829 15.0949 17.2829 11.7079C17.2829 8.32094 14.5394 5.5752 11.1551 5.5752ZM15.0195 11.7079C15.0195 13.8404 13.286 15.5753 11.1551 15.5753C9.02426 15.5753 7.29072 13.8404 7.29072 11.7079C7.29072 9.57536 9.02426 7.84043 11.1551 7.84043C13.286 7.84043 15.0195 9.57531 15.0195 11.7079Z" fill="#647DB7"/>
</svg>
