<svg width="80" height="115" viewBox="0 0 80 115" fill="none" xmlns="http://www.w3.org/2000/svg">
<path d="M79.9487 39.9851C79.9487 62.0682 39.9744 114.957 39.9744 114.957C39.9744 114.957 0 62.0682 0 39.9851C0 17.9019 17.8971 0 39.9744 0C62.0516 0 79.9487 17.9019 79.9487 39.9851Z" fill="url(#paint0_linear)"/>
<path d="M47.4466 32.9315C47.0668 27.4716 44.8083 22.1487 40.571 18C36.2937 22.1879 33.9352 27.5108 33.4555 32.9315C36.0339 34.2622 38.3924 35.9843 40.451 38.0783C42.5097 36.0039 44.8682 34.2818 47.4466 32.9315ZM40.451 44.3209C36.1538 37.9021 28.8185 33.6556 20.4639 33.6556C20.4639 53.225 39.0919 56.9237 40.451 57.1389C41.8102 56.9041 60.4382 53.225 60.4382 33.6556C52.0836 33.6556 44.7483 37.9021 40.451 44.3209Z" fill="#3B4B9C"/>
<defs>
<linearGradient id="paint0_linear" x1="-3.00241" y1="109.99" x2="113.793" y2="64.7023" gradientUnits="userSpaceOnUse">
<stop stop-color="#DA72FF"/>
<stop offset="0.940625" stop-color="#4E54F4"/>
</linearGradient>
</defs>
</svg>
