<svg width="68" height="43" viewBox="0 0 68 43" fill="none" xmlns="http://www.w3.org/2000/svg">
<path d="M54.6317 19.5545C54.4555 19.5534 54.2831 19.5036 54.1334 19.4107C53.9838 19.3179 53.8627 19.1856 53.7836 19.0283C53.7044 18.8711 53.6703 18.6951 53.6849 18.5197C53.6996 18.3443 53.7624 18.1764 53.8666 18.0344L55.5498 15.7414C55.703 15.5464 55.9262 15.4185 56.1721 15.3848C56.418 15.3512 56.6674 15.4143 56.8675 15.5609C57.0677 15.7075 57.2029 15.9261 57.2447 16.1706C57.2865 16.415 57.2316 16.666 57.0915 16.8707L55.4082 19.1638C55.3189 19.2856 55.202 19.3845 55.067 19.4524C54.932 19.5203 54.7828 19.5553 54.6317 19.5545Z" fill="white"/>
<path d="M40.1039 39.4085C39.9186 39.4082 39.7372 39.3545 39.5817 39.2538L21.4393 27.4255C21.3011 27.3354 21.1885 27.2112 21.1126 27.0648C21.0367 26.9184 21 26.7549 21.006 26.5901C21.0121 26.4254 21.0607 26.265 21.1472 26.1246C21.2337 25.9842 21.3551 25.8685 21.4995 25.7888L54.3166 7.6834L14.999 22.7687C14.8558 22.8238 14.7015 22.8439 14.5489 22.8273C14.3964 22.8107 14.25 22.7578 14.122 22.6732L1.33529 14.08C1.17694 13.9738 1.054 13.8227 0.982282 13.6461C0.910563 13.4695 0.893338 13.2755 0.932822 13.0891C0.972305 12.9026 1.06669 12.7323 1.20385 12.5998C1.34102 12.4674 1.51468 12.379 1.70254 12.3459L66.7208 0.89314C66.8893 0.860799 67.0634 0.87433 67.2248 0.932313H67.2506H67.2564C67.4689 1.01698 67.644 1.17494 67.7499 1.37754C67.7696 1.41522 67.7869 1.45416 67.8015 1.49411C67.8639 1.66552 67.8758 1.85117 67.8359 2.02915C67.8202 2.0984 67.7967 2.16569 67.7661 2.22979C67.7381 2.28964 67.7038 2.34634 67.6638 2.3989L61.0371 11.4621C60.9633 11.5645 60.87 11.6512 60.7626 11.7174C60.6551 11.7835 60.5356 11.8278 60.411 11.8476C60.2863 11.8673 60.159 11.8623 60.0363 11.8327C59.9136 11.8031 59.798 11.7495 59.6961 11.675C59.5942 11.6006 59.5081 11.5067 59.4428 11.3988C59.3774 11.291 59.334 11.1712 59.3152 11.0466C59.2964 10.9219 59.3024 10.7947 59.333 10.6724C59.3636 10.55 59.4181 10.4349 59.4935 10.3338L63.5753 4.75882L23.8168 26.6936L39.8677 37.1575L44.3148 31.0772C44.4645 30.8722 44.6895 30.735 44.9404 30.6957C45.1913 30.6565 45.4476 30.7184 45.6528 30.8679C45.858 31.0174 45.9953 31.2422 46.0346 31.4929C46.0739 31.7436 46.0119 31.9996 45.8622 32.2046L40.8795 39.0168C40.7904 39.1387 40.6736 39.2377 40.5388 39.3058C40.404 39.3739 40.255 39.4091 40.1039 39.4085ZM4.37083 13.8163L14.78 20.8063L57.2957 4.49416L4.37083 13.8163Z" fill="white"/>
<path d="M49.0358 27.1989C48.8592 27.1987 48.686 27.1498 48.5355 27.0573C48.3851 26.9649 48.2631 26.8326 48.1833 26.6752C48.1035 26.5178 48.0689 26.3414 48.0833 26.1655C48.0977 25.9896 48.1606 25.8211 48.265 25.6788L49.9099 23.4335C49.9842 23.3323 50.0776 23.2466 50.185 23.1814C50.2924 23.1163 50.4115 23.0729 50.5357 23.0537C50.6598 23.0345 50.7865 23.04 50.9086 23.0697C51.0306 23.0995 51.1456 23.153 51.247 23.2271C51.3483 23.3013 51.434 23.3947 51.4993 23.5019C51.5645 23.6092 51.608 23.7282 51.6271 23.8522C51.6463 23.9763 51.6409 24.1029 51.6111 24.2248C51.5813 24.3467 51.5278 24.4616 51.4535 24.5628L49.8076 26.8081C49.7188 26.9292 49.6026 27.0278 49.4685 27.0957C49.3344 27.1636 49.1861 27.1989 49.0358 27.1989Z" fill="white"/>
<path d="M21.9598 42.8784C21.7636 42.8783 21.5722 42.8179 21.4116 42.7054C21.251 42.593 21.1288 42.4339 21.0617 42.2498L13.7531 22.2019C13.7093 22.0839 13.6892 21.9583 13.6941 21.8325C13.699 21.7066 13.7287 21.583 13.7816 21.4687C13.8345 21.3544 13.9095 21.2516 14.0022 21.1663C14.095 21.0811 14.2037 21.015 14.3222 20.9719C14.4406 20.9287 14.5664 20.9094 14.6923 20.915C14.8183 20.9206 14.9419 20.951 15.056 21.0045C15.1701 21.058 15.2725 21.1335 15.3573 21.2267C15.4421 21.3199 15.5077 21.4289 15.5501 21.5475L21.0015 36.5076V26.6284C21.0015 26.375 21.1022 26.132 21.2816 25.9529C21.461 25.7737 21.7042 25.673 21.9579 25.673C22.2115 25.673 22.4548 25.7737 22.6341 25.9529C22.8135 26.132 22.9142 26.375 22.9142 26.6284V41.923C22.9143 42.1476 22.8351 42.3651 22.6907 42.5372C22.5462 42.7093 22.3457 42.825 22.1243 42.8641C22.0699 42.8735 22.0149 42.8783 21.9598 42.8784Z" fill="white"/>
<path d="M21.9618 42.8734C21.7658 42.8738 21.5744 42.8139 21.4136 42.702C21.2528 42.59 21.1302 42.4314 21.0626 42.2476C20.995 42.0638 20.9855 41.8637 21.0355 41.6744C21.0855 41.485 21.1925 41.3156 21.3421 41.189L31.5457 32.5424C31.6414 32.4612 31.7523 32.3996 31.8718 32.3612C31.9914 32.3229 32.1174 32.3084 32.2425 32.3186C32.3677 32.3289 32.4896 32.3636 32.6014 32.421C32.7131 32.4783 32.8124 32.557 32.8937 32.6527C32.9749 32.7484 33.0365 32.8591 33.075 32.9785C33.1134 33.098 33.1279 33.2238 33.1176 33.3489C33.1074 33.474 33.0726 33.5958 33.0152 33.7074C32.9578 33.819 32.879 33.9182 32.7832 33.9994L22.5796 42.647C22.407 42.7931 22.1881 42.8733 21.9618 42.8734Z" fill="white"/>
</svg>
