<svg width="125" height="115" viewBox="0 0 125 115" fill="none" xmlns="http://www.w3.org/2000/svg">
<path d="M12.1063 92.2V102H10.7063V97.632H5.07834V102H3.67834V92.2H5.07834V96.414H10.7063V92.2H12.1063ZM14.9387 94.58H16.2827V99.984L20.8327 94.58H22.0507V102H20.7067V96.596L16.1707 102H14.9387V94.58ZM35.2294 94.58V102H24.6594V94.58H26.0034V100.824H29.2794V94.58H30.6234V100.824H33.8854V94.58H35.2294ZM43.3691 95.756H40.6531V102H39.3091V95.756H36.5931V94.58H43.3691V95.756ZM49.2544 102L47.1124 99.158L44.9424 102H43.4444L46.3704 98.206L43.5844 94.58H45.0824L47.1264 97.254L49.1564 94.58H50.6264L47.8264 98.206L50.7804 102H49.2544ZM54.7039 94.51C55.7305 94.51 56.5145 94.762 57.0559 95.266C57.6065 95.77 57.8819 96.5213 57.8819 97.52V102H56.6079V101.02C56.3839 101.365 56.0619 101.631 55.6419 101.818C55.2312 101.995 54.7412 102.084 54.1719 102.084C53.3412 102.084 52.6739 101.883 52.1699 101.482C51.6752 101.081 51.4279 100.553 51.4279 99.9C51.4279 99.2467 51.6659 98.724 52.1419 98.332C52.6179 97.9307 53.3739 97.73 54.4099 97.73H56.5379V97.464C56.5379 96.8853 56.3699 96.442 56.0339 96.134C55.6979 95.826 55.2032 95.672 54.5499 95.672C54.1112 95.672 53.6819 95.7467 53.2619 95.896C52.8419 96.036 52.4872 96.2273 52.1979 96.47L51.6379 95.462C52.0205 95.154 52.4779 94.9207 53.0099 94.762C53.5419 94.594 54.1065 94.51 54.7039 94.51ZM54.3959 101.048C54.9092 101.048 55.3525 100.936 55.7259 100.712C56.0992 100.479 56.3699 100.152 56.5379 99.732V98.696H54.4659C53.3272 98.696 52.7579 99.0787 52.7579 99.844C52.7579 100.217 52.9025 100.511 53.1919 100.726C53.4812 100.941 53.8825 101.048 54.3959 101.048Z" fill="#198BA4"/>
<path d="M124.949 39.9851C124.949 62.0682 84.9744 114.957 84.9744 114.957C84.9744 114.957 45 62.0682 45 39.9851C45 17.9019 62.8971 0 84.9744 0C107.052 0 124.949 17.9019 124.949 39.9851Z" fill="url(#paint0_linear)"/>
<path d="M92.4466 32.9315C92.0668 27.4716 89.8083 22.1487 85.571 18C81.2937 22.1879 78.9352 27.5108 78.4555 32.9315C81.0339 34.2622 83.3924 35.9843 85.451 38.0783C87.5097 36.0039 89.8682 34.2818 92.4466 32.9315ZM85.451 44.3209C81.1538 37.9021 73.8185 33.6556 65.4639 33.6556C65.4639 53.225 84.0919 56.9237 85.451 57.1389C86.8102 56.9041 105.438 53.225 105.438 33.6556C97.0836 33.6556 89.7483 37.9021 85.451 44.3209Z" fill="#198BA4"/>
<defs>
<linearGradient id="paint0_linear" x1="41.9976" y1="109.99" x2="158.793" y2="64.7023" gradientUnits="userSpaceOnUse">
<stop stop-color="#AAFFFF"/>
<stop offset="0.940625" stop-color="#36D3E9"/>
</linearGradient>
</defs>
</svg>
