<svg width="49" height="38" viewBox="0 0 49 38" fill="none" xmlns="http://www.w3.org/2000/svg">
<path d="M14.5898 0.554266C16.9828 0.554266 18.9771 1.35196 20.5725 2.94735C22.1679 4.54273 22.9655 6.58128 22.9655 9.06299C22.9655 10.4811 22.744 11.8106 22.3008 13.0515C21.8576 14.2037 21.1043 15.7547 20.0407 17.7047L8.87297 37.647H0.497191L9.40476 17.7047C8.07528 16.9956 7.01169 15.9763 6.21399 14.6468C5.50493 13.2287 5.1504 11.722 5.1504 10.1266C5.1504 7.37897 6.08104 5.11884 7.94233 3.34619C9.80361 1.48491 12.0194 0.554266 14.5898 0.554266ZM39.7171 0.554266C42.1102 0.554266 44.1044 1.35196 45.6998 2.94735C47.2952 4.54273 48.0929 6.58128 48.0929 9.06299C48.0929 10.4811 47.8713 11.8106 47.4281 13.0515C46.985 14.2037 46.2316 15.7547 45.168 17.7047L34.0003 37.647H25.6245L34.5321 17.7047C33.2026 16.9956 32.139 15.9763 31.3413 14.6468C30.6323 13.2287 30.2777 11.722 30.2777 10.1266C30.2777 7.37897 31.2084 5.11884 33.0697 3.34619C34.9309 1.48491 37.1468 0.554266 39.7171 0.554266Z" fill="rgba(18, 18, 18, 0.7)"/>
</svg>
