<svg width="48" height="38" viewBox="0 0 48 38" fill="none" xmlns="http://www.w3.org/2000/svg">
<path d="M13.8557 20.4272C15.0965 21.1363 16.0715 22.1556 16.7805 23.4851C17.5782 24.7259 17.9771 26.144 17.9771 27.7394C17.9771 30.487 17.0464 32.7915 15.1852 34.6528C13.4125 36.514 11.241 37.4447 8.67066 37.4447C6.27758 37.4447 4.23903 36.647 2.55501 35.0516C0.959629 33.4562 0.161936 31.4177 0.161936 28.936C0.161936 27.6065 0.383517 26.3656 0.826679 25.2134C1.26984 23.9725 2.06754 22.3328 3.21976 20.2943L14.3875 0.351957H22.7632L13.8557 20.4272ZM38.983 20.4272C40.2239 21.1363 41.1988 22.1556 41.9079 23.4851C42.7056 24.7259 43.1044 26.144 43.1044 27.7394C43.1044 30.487 42.1738 32.7915 40.3125 34.6528C38.5398 36.514 36.3683 37.4447 33.798 37.4447C31.4049 37.4447 29.3664 36.647 27.6823 35.0516C26.087 33.4562 25.2893 31.4177 25.2893 28.936C25.2893 27.6065 25.5108 26.3656 25.954 25.2134C26.3972 23.9725 27.1949 22.3328 28.3471 20.2943L39.5148 0.351957H47.8906L38.983 20.4272Z" fill="rgba(18, 18, 18, 0.7)"/>
</svg>
