<svg width="155" height="115" viewBox="0 0 155 115" fill="none" xmlns="http://www.w3.org/2000/svg">
<path d="M7.65409 102.112C6.67409 102.112 5.78743 101.897 4.99409 101.468C4.21009 101.029 3.59409 100.432 3.14609 99.676C2.69809 98.9107 2.47409 98.052 2.47409 97.1C2.47409 96.148 2.69809 95.294 3.14609 94.538C3.59409 93.7727 4.21476 93.1753 5.00809 92.746C5.80143 92.3073 6.68809 92.088 7.66809 92.088C8.43343 92.088 9.13343 92.2187 9.76809 92.48C10.4028 92.732 10.9441 93.11 11.3921 93.614L10.4821 94.496C9.74476 93.7213 8.82543 93.334 7.72409 93.334C6.99609 93.334 6.33809 93.4973 5.75009 93.824C5.16209 94.1507 4.70009 94.6033 4.36409 95.182C4.03743 95.7513 3.87409 96.3907 3.87409 97.1C3.87409 97.8093 4.03743 98.4533 4.36409 99.032C4.70009 99.6013 5.16209 100.049 5.75009 100.376C6.33809 100.703 6.99609 100.866 7.72409 100.866C8.81609 100.866 9.73543 100.474 10.4821 99.69L11.3921 100.572C10.9441 101.076 10.3981 101.459 9.75409 101.72C9.11943 101.981 8.41943 102.112 7.65409 102.112ZM15.6472 94.51C16.6739 94.51 17.4579 94.762 17.9992 95.266C18.5499 95.77 18.8252 96.5213 18.8252 97.52V102H17.5512V101.02C17.3272 101.365 17.0052 101.631 16.5852 101.818C16.1746 101.995 15.6846 102.084 15.1152 102.084C14.2846 102.084 13.6172 101.883 13.1132 101.482C12.6186 101.081 12.3712 100.553 12.3712 99.9C12.3712 99.2467 12.6092 98.724 13.0852 98.332C13.5612 97.9307 14.3172 97.73 15.3532 97.73H17.4812V97.464C17.4812 96.8853 17.3132 96.442 16.9772 96.134C16.6412 95.826 16.1466 95.672 15.4932 95.672C15.0546 95.672 14.6252 95.7467 14.2052 95.896C13.7852 96.036 13.4306 96.2273 13.1412 96.47L12.5812 95.462C12.9639 95.154 13.4212 94.9207 13.9532 94.762C14.4852 94.594 15.0499 94.51 15.6472 94.51ZM15.3392 101.048C15.8526 101.048 16.2959 100.936 16.6692 100.712C17.0426 100.479 17.3132 100.152 17.4812 99.732V98.696H15.4092C14.2706 98.696 13.7012 99.0787 13.7012 99.844C13.7012 100.217 13.8459 100.511 14.1352 100.726C14.4246 100.941 14.8259 101.048 15.3392 101.048ZM28.7914 100.824V103.722H27.5314V102H21.3294V103.722H20.0554V100.824H20.4474C20.9234 100.796 21.25 100.46 21.4274 99.816C21.6047 99.172 21.726 98.262 21.7914 97.086L21.9034 94.58H27.6574V100.824H28.7914ZM23.0234 97.184C22.986 98.1173 22.9067 98.892 22.7854 99.508C22.6734 100.115 22.4634 100.553 22.1554 100.824H26.3134V95.756H23.0934L23.0234 97.184ZM35.1762 102L33.0342 99.158L30.8642 102H29.3662L32.2922 98.206L29.5062 94.58H31.0042L33.0482 97.254L35.0782 94.58H36.5482L33.7482 98.206L36.7022 102H35.1762ZM44.3146 94.58L40.7166 102.742C40.3993 103.498 40.026 104.03 39.5966 104.338C39.1766 104.646 38.668 104.8 38.0706 104.8C37.7066 104.8 37.352 104.739 37.0066 104.618C36.6706 104.506 36.3906 104.338 36.1666 104.114L36.7406 103.106C37.1233 103.47 37.5666 103.652 38.0706 103.652C38.3973 103.652 38.668 103.563 38.8826 103.386C39.1066 103.218 39.3073 102.924 39.4846 102.504L39.7226 101.986L36.4466 94.58H37.8466L40.4366 100.516L42.9986 94.58H44.3146ZM52.6844 102.084C51.9284 102.084 51.2518 101.921 50.6544 101.594C50.0664 101.267 49.6044 100.819 49.2684 100.25C48.9324 99.6713 48.7644 99.018 48.7644 98.29C48.7644 97.562 48.9324 96.9133 49.2684 96.344C49.6044 95.7653 50.0664 95.3173 50.6544 95C51.2518 94.6733 51.9284 94.51 52.6844 94.51C53.3564 94.51 53.9538 94.6453 54.4764 94.916C55.0084 95.1867 55.4191 95.5787 55.7084 96.092L54.6864 96.75C54.4531 96.3953 54.1638 96.1293 53.8184 95.952C53.4731 95.7747 53.0904 95.686 52.6704 95.686C52.1851 95.686 51.7464 95.7933 51.3544 96.008C50.9718 96.2227 50.6684 96.5307 50.4444 96.932C50.2298 97.324 50.1224 97.7767 50.1224 98.29C50.1224 98.8127 50.2298 99.2747 50.4444 99.676C50.6684 100.068 50.9718 100.371 51.3544 100.586C51.7464 100.801 52.1851 100.908 52.6704 100.908C53.0904 100.908 53.4731 100.819 53.8184 100.642C54.1638 100.465 54.4531 100.199 54.6864 99.844L55.7084 100.488C55.4191 101.001 55.0084 101.398 54.4764 101.678C53.9538 101.949 53.3564 102.084 52.6844 102.084ZM60.0945 94.51C61.1212 94.51 61.9052 94.762 62.4465 95.266C62.9972 95.77 63.2725 96.5213 63.2725 97.52V102H61.9985V101.02C61.7745 101.365 61.4525 101.631 61.0325 101.818C60.6218 101.995 60.1318 102.084 59.5625 102.084C58.7318 102.084 58.0645 101.883 57.5605 101.482C57.0658 101.081 56.8185 100.553 56.8185 99.9C56.8185 99.2467 57.0565 98.724 57.5325 98.332C58.0085 97.9307 58.7645 97.73 59.8005 97.73H61.9285V97.464C61.9285 96.8853 61.7605 96.442 61.4245 96.134C61.0885 95.826 60.5938 95.672 59.9405 95.672C59.5018 95.672 59.0725 95.7467 58.6525 95.896C58.2325 96.036 57.8778 96.2273 57.5885 96.47L57.0285 95.462C57.4112 95.154 57.8685 94.9207 58.4005 94.762C58.9325 94.594 59.4972 94.51 60.0945 94.51ZM59.7865 101.048C60.2998 101.048 60.7432 100.936 61.1165 100.712C61.4898 100.479 61.7605 100.152 61.9285 99.732V98.696H59.8565C58.7178 98.696 58.1485 99.0787 58.1485 99.844C58.1485 100.217 58.2932 100.511 58.5825 100.726C58.8718 100.941 59.2732 101.048 59.7865 101.048ZM65.6926 94.58H67.0366V97.73H71.2646V94.58H72.6086V102H71.2646V98.892H67.0366V102H65.6926V94.58ZM80.6819 95.756H76.5659V102H75.2219V94.58H80.6819V95.756ZM84.7039 94.51C85.7305 94.51 86.5145 94.762 87.0559 95.266C87.6065 95.77 87.8819 96.5213 87.8819 97.52V102H86.6079V101.02C86.3839 101.365 86.0619 101.631 85.6419 101.818C85.2312 101.995 84.7412 102.084 84.1719 102.084C83.3412 102.084 82.6739 101.883 82.1699 101.482C81.6752 101.081 81.4279 100.553 81.4279 99.9C81.4279 99.2467 81.6659 98.724 82.1419 98.332C82.6179 97.9307 83.3739 97.73 84.4099 97.73H86.5379V97.464C86.5379 96.8853 86.3699 96.442 86.0339 96.134C85.6979 95.826 85.2032 95.672 84.5499 95.672C84.1112 95.672 83.6819 95.7467 83.2619 95.896C82.8419 96.036 82.4872 96.2273 82.1979 96.47L81.6379 95.462C82.0205 95.154 82.4779 94.9207 83.0099 94.762C83.5419 94.594 84.1065 94.51 84.7039 94.51ZM84.3959 101.048C84.9092 101.048 85.3525 100.936 85.7259 100.712C86.0992 100.479 86.3699 100.152 86.5379 99.732V98.696H84.4659C83.3272 98.696 82.7579 99.0787 82.7579 99.844C82.7579 100.217 82.9025 100.511 83.1919 100.726C83.4812 100.941 83.8825 101.048 84.3959 101.048Z" fill="#A45319"/>
<path d="M154.949 39.9851C154.949 62.0682 114.974 114.957 114.974 114.957C114.974 114.957 75 62.0682 75 39.9851C75 17.9019 92.8971 0 114.974 0C137.052 0 154.949 17.9019 154.949 39.9851Z" fill="url(#paint0_linear)"/>
<path d="M122.448 32.9315C122.068 27.4716 119.809 22.1487 115.572 18C111.295 22.1879 108.936 27.5108 108.457 32.9315C111.035 34.2622 113.393 35.9843 115.452 38.0783C117.511 36.0039 119.869 34.2818 122.448 32.9315ZM115.452 44.3209C111.155 37.9021 103.819 33.6556 95.4648 33.6556C95.4648 53.225 114.093 56.9237 115.452 57.1389C116.811 56.9041 135.439 53.225 135.439 33.6556C127.085 33.6556 119.749 37.9021 115.452 44.3209Z" fill="#A45319"/>
<defs>
<linearGradient id="paint0_linear" x1="71.9976" y1="109.99" x2="188.793" y2="64.7023" gradientUnits="userSpaceOnUse">
<stop stop-color="#FFC4AA"/>
<stop offset="0.940625" stop-color="#E98136"/>
</linearGradient>
</defs>
</svg>
