<svg width="30" height="27" viewBox="0 0 30 27" fill="none" xmlns="http://www.w3.org/2000/svg">
<path d="M10.8333 0.295898C13.7065 0.295898 16.462 1.33278 18.4937 3.17845C20.5253 5.02412 21.6667 7.52739 21.6667 10.1376C21.6667 12.5753 20.6833 14.8161 19.0667 16.5422L19.5167 16.951H20.8333L29.1667 24.5215L26.6667 26.7927L18.3333 19.2222V18.026L17.8833 17.6172C15.9833 19.0859 13.5167 19.9792 10.8333 19.9792C7.96015 19.9792 5.20465 18.9423 3.17301 17.0967C1.14137 15.251 0 12.7477 0 10.1376C0 7.52739 1.14137 5.02412 3.17301 3.17845C5.20465 1.33278 7.96015 0.295898 10.8333 0.295898ZM10.8333 3.3241C6.66667 3.3241 3.33333 6.3523 3.33333 10.1376C3.33333 13.9228 6.66667 16.951 10.8333 16.951C15 16.951 18.3333 13.9228 18.3333 10.1376C18.3333 6.3523 15 3.3241 10.8333 3.3241Z" fill="#647DB7"/>
</svg>
