<svg width="50" height="50" viewBox="0 0 50 50" fill="none" xmlns="http://www.w3.org/2000/svg">
<path d="M30.2083 6.25C26.6169 6.25 23.1725 7.67671 20.6329 10.2163C18.0934 12.7558 16.6667 16.2002 16.6667 19.7917C16.6667 23.1458 17.8958 26.2292 19.9167 28.6042L19.3542 29.1667H17.7083L7.29167 39.5833L10.4167 42.7083L20.8333 32.2917V30.6458L21.3958 30.0833C23.7708 32.1042 26.8542 33.3333 30.2083 33.3333C33.7998 33.3333 37.2442 31.9066 39.7837 29.3671C42.3233 26.8275 43.75 23.3831 43.75 19.7917C43.75 16.2002 42.3233 12.7558 39.7837 10.2163C37.2442 7.67671 33.7998 6.25 30.2083 6.25ZM30.2083 10.4167C35.4167 10.4167 39.5833 14.5833 39.5833 19.7917C39.5833 25 35.4167 29.1667 30.2083 29.1667C25 29.1667 20.8333 25 20.8333 19.7917C20.8333 14.5833 25 10.4167 30.2083 10.4167Z" fill="#121212"/>
</svg>
