<svg width="125" height="115" viewBox="0 0 125 115" fill="none" xmlns="http://www.w3.org/2000/svg">
<path d="M14.6849 92.2V102H2.40686V92.2H3.79286V100.782H7.86686V92.2H9.23886V100.782H13.3129V92.2H14.6849ZM21.443 94.51C22.1617 94.51 22.8057 94.6687 23.375 94.986C23.9444 95.3033 24.3877 95.7467 24.705 96.316C25.0317 96.8853 25.195 97.5433 25.195 98.29C25.195 99.0367 25.0317 99.6993 24.705 100.278C24.3877 100.847 23.9444 101.291 23.375 101.608C22.8057 101.925 22.1617 102.084 21.443 102.084C20.911 102.084 20.421 101.981 19.973 101.776C19.5344 101.571 19.161 101.272 18.853 100.88V104.716H17.509V94.58H18.797V95.756C19.0957 95.3453 19.4737 95.0373 19.931 94.832C20.3884 94.6173 20.8924 94.51 21.443 94.51ZM21.331 100.908C21.807 100.908 22.2317 100.801 22.605 100.586C22.9877 100.362 23.2864 100.054 23.501 99.662C23.725 99.2607 23.837 98.8033 23.837 98.29C23.837 97.7767 23.725 97.324 23.501 96.932C23.2864 96.5307 22.9877 96.2227 22.605 96.008C22.2317 95.7933 21.807 95.686 21.331 95.686C20.8644 95.686 20.4397 95.798 20.057 96.022C19.6837 96.2367 19.385 96.54 19.161 96.932C18.9464 97.324 18.839 97.7767 18.839 98.29C18.839 98.8033 18.9464 99.2607 19.161 99.662C19.3757 100.054 19.6744 100.362 20.057 100.586C20.4397 100.801 20.8644 100.908 21.331 100.908ZM29.7253 94.51C30.752 94.51 31.536 94.762 32.0773 95.266C32.628 95.77 32.9033 96.5213 32.9033 97.52V102H31.6293V101.02C31.4053 101.365 31.0833 101.631 30.6633 101.818C30.2527 101.995 29.7627 102.084 29.1933 102.084C28.3627 102.084 27.6953 101.883 27.1913 101.482C26.6967 101.081 26.4493 100.553 26.4493 99.9C26.4493 99.2467 26.6873 98.724 27.1633 98.332C27.6393 97.9307 28.3953 97.73 29.4313 97.73H31.5593V97.464C31.5593 96.8853 31.3913 96.442 31.0553 96.134C30.7193 95.826 30.2247 95.672 29.5713 95.672C29.1327 95.672 28.7033 95.7467 28.2833 95.896C27.8633 96.036 27.5087 96.2273 27.2193 96.47L26.6593 95.462C27.042 95.154 27.4993 94.9207 28.0313 94.762C28.5633 94.594 29.128 94.51 29.7253 94.51ZM29.4173 101.048C29.9307 101.048 30.374 100.936 30.7473 100.712C31.1207 100.479 31.3913 100.152 31.5593 99.732V98.696H29.4873C28.3487 98.696 27.7793 99.0787 27.7793 99.844C27.7793 100.217 27.924 100.511 28.2133 100.726C28.5027 100.941 28.904 101.048 29.4173 101.048ZM42.8695 100.824V103.722H41.6095V102H35.4075V103.722H34.1335V100.824H34.5255C35.0015 100.796 35.3282 100.46 35.5055 99.816C35.6828 99.172 35.8042 98.262 35.8695 97.086L35.9815 94.58H41.7355V100.824H42.8695ZM37.1015 97.184C37.0642 98.1173 36.9848 98.892 36.8635 99.508C36.7515 100.115 36.5415 100.553 36.2335 100.824H40.3915V95.756H37.1715L37.1015 97.184ZM49.2544 102L47.1124 99.158L44.9424 102H43.4444L46.3704 98.206L43.5844 94.58H45.0824L47.1264 97.254L49.1564 94.58H50.6264L47.8264 98.206L50.7804 102H49.2544ZM54.7039 94.51C55.7305 94.51 56.5145 94.762 57.0559 95.266C57.6065 95.77 57.8819 96.5213 57.8819 97.52V102H56.6079V101.02C56.3839 101.365 56.0619 101.631 55.6419 101.818C55.2312 101.995 54.7412 102.084 54.1719 102.084C53.3412 102.084 52.6739 101.883 52.1699 101.482C51.6752 101.081 51.4279 100.553 51.4279 99.9C51.4279 99.2467 51.6659 98.724 52.1419 98.332C52.6179 97.9307 53.3739 97.73 54.4099 97.73H56.5379V97.464C56.5379 96.8853 56.3699 96.442 56.0339 96.134C55.6979 95.826 55.2032 95.672 54.5499 95.672C54.1112 95.672 53.6819 95.7467 53.2619 95.896C52.8419 96.036 52.4872 96.2273 52.1979 96.47L51.6379 95.462C52.0205 95.154 52.4779 94.9207 53.0099 94.762C53.5419 94.594 54.1065 94.51 54.7039 94.51ZM54.3959 101.048C54.9092 101.048 55.3525 100.936 55.7259 100.712C56.0992 100.479 56.3699 100.152 56.5379 99.732V98.696H54.4659C53.3272 98.696 52.7579 99.0787 52.7579 99.844C52.7579 100.217 52.9025 100.511 53.1919 100.726C53.4812 100.941 53.8825 101.048 54.3959 101.048Z" fill="#B1AB0A"/>
<path d="M124.949 39.9851C124.949 62.0682 84.9744 114.957 84.9744 114.957C84.9744 114.957 45 62.0682 45 39.9851C45 17.9019 62.8971 0 84.9744 0C107.052 0 124.949 17.9019 124.949 39.9851Z" fill="url(#paint0_linear)"/>
<path d="M92.4466 32.9315C92.0668 27.4716 89.8083 22.1487 85.571 18C81.2937 22.1879 78.9352 27.5108 78.4555 32.9315C81.0339 34.2622 83.3924 35.9843 85.451 38.0783C87.5097 36.0039 89.8682 34.2818 92.4466 32.9315ZM85.451 44.3209C81.1538 37.9021 73.8185 33.6556 65.4639 33.6556C65.4639 53.225 84.0919 56.9237 85.451 57.1389C86.8102 56.9041 105.438 53.225 105.438 33.6556C97.0836 33.6556 89.7483 37.9021 85.451 44.3209Z" fill="#B1AB0A"/>
<defs>
<linearGradient id="paint0_linear" x1="41.9976" y1="109.99" x2="158.793" y2="64.7023" gradientUnits="userSpaceOnUse">
<stop stop-color="#FFFCAA"/>
<stop offset="0.940625" stop-color="#E5E936"/>
</linearGradient>
</defs>
</svg>
