<svg width="35" height="35" viewBox="0 0 35 35" fill="none" xmlns="http://www.w3.org/2000/svg">
<path d="M13.0417 14.3364C13.0417 13.7841 13.4895 13.3364 14.0417 13.3364H21.9045C22.4567 13.3364 22.9045 13.7841 22.9045 14.3364V14.4217C22.9045 14.974 22.4567 15.4217 21.9045 15.4217H14.0417C13.4895 15.4217 13.0417 14.974 13.0417 14.4217V14.3364Z" fill="#7D9EEA"/>
<path d="M13.0417 10.1655C13.0417 9.61324 13.4895 9.16553 14.0417 9.16553H21.9045C22.4567 9.16553 22.9045 9.61324 22.9045 10.1655V10.2508C22.9045 10.8031 22.4567 11.2508 21.9045 11.2508H14.0417C13.4895 11.2508 13.0417 10.8031 13.0417 10.2508V10.1655Z" fill="#7D9EEA"/>
<path d="M13.0417 5.99512C13.0417 5.44283 13.4895 4.99512 14.0417 4.99512H21.9045C22.4567 4.99512 22.9045 5.44283 22.9045 5.99512V6.08038C22.9045 6.63266 22.4567 7.08038 21.9045 7.08038H14.0417C13.4895 7.08038 13.0417 6.63266 13.0417 6.08038V5.99512Z" fill="#7D9EEA"/>
<path d="M13.0417 18.5068C13.0417 17.9546 13.4895 17.5068 14.0417 17.5068H21.9045C22.4567 17.5068 22.9045 17.9546 22.9045 18.5068V18.5921C22.9045 19.1444 22.4567 19.5921 21.9045 19.5921H14.0417C13.4895 19.5921 13.0417 19.1444 13.0417 18.5921V18.5068Z" fill="#7D9EEA"/>
<path d="M32.2859 26.8904V12.2936V11.251V11.2084C32.2859 10.6561 31.8382 10.2084 31.2859 10.2084H26.3683V8.12311H29.3133C29.8656 8.12311 30.3133 7.6754 30.3133 7.12311V3.9526C30.3133 2.22788 28.9861 0.824707 27.3545 0.824707H11.5742C9.94265 0.824707 8.61539 2.22788 8.61539 3.9526V10.2084H3.69776C3.14548 10.2084 2.69776 10.6561 2.69776 11.2084V26.8904H1.72522C1.17293 26.8904 0.72522 27.3382 0.72522 27.8904V29.5318C0.72522 32.0997 2.70144 34.1888 5.13056 34.1888H29.8531C32.2822 34.1888 34.2584 32.0997 34.2584 29.5318V27.8904C34.2584 27.3382 33.8107 26.8904 33.2584 26.8904H32.2859ZM28.3408 3.9526V6.03785H26.3683V3.9526C26.4226 2.56903 28.287 2.57014 28.3408 3.9526ZM10.5879 3.9526C10.5879 3.37769 11.0304 2.90997 11.5742 2.90997H24.5647C24.5551 2.93839 24.5465 2.96724 24.5377 2.99609C24.5345 3.00679 24.5309 3.01736 24.5278 3.02813C24.5144 3.07359 24.502 3.11953 24.4907 3.16583C24.4876 3.17806 24.4851 3.19043 24.4823 3.20274C24.4742 3.23721 24.4665 3.27183 24.4595 3.30672C24.4561 3.32396 24.4531 3.34127 24.4499 3.35857C24.4443 3.38916 24.439 3.41995 24.4343 3.45081C24.4314 3.46937 24.4288 3.488 24.4263 3.5067C24.4222 3.53735 24.4185 3.56807 24.4151 3.599C24.4132 3.61742 24.4112 3.63577 24.4095 3.65426C24.4065 3.68756 24.4043 3.72113 24.4023 3.75477C24.4013 3.77076 24.4001 3.78668 24.3993 3.80273C24.3971 3.85257 24.3957 3.90234 24.3957 3.9526V8.12311V21.6773H11.5879C11.0356 21.6773 10.5879 21.2296 10.5879 20.6773V12.2936V10.2084V3.9526ZM4.6703 12.2936H8.61539V21.6773H7.64285C7.09056 21.6773 6.64285 22.125 6.64285 22.6773V22.7626C6.64285 23.3148 7.09056 23.7626 7.64285 23.7626H8.61539H26.3683H27.3408C27.8931 23.7626 28.3408 23.3148 28.3408 22.7626V22.6773C28.3408 22.125 27.8931 21.6773 27.3408 21.6773H26.3683V12.2936H30.3133V26.8904H22.4452C22.1704 26.8904 21.9077 27.0036 21.7188 27.2032L21.0284 27.9331H13.9553L13.2649 27.2032C13.076 27.0036 12.8133 26.8904 12.5384 26.8904H4.6703V12.2936ZM32.2859 29.5318C32.2859 30.9499 31.1945 32.1036 29.8531 32.1036H5.13056C3.7891 32.1036 2.69776 30.9499 2.69776 29.5318V28.9757H12.152L12.8423 29.7055C13.0312 29.9052 13.294 30.0183 13.5688 30.0183H21.4148C21.6897 30.0183 21.9524 29.9052 22.1413 29.7055L22.8317 28.9757H32.2859V29.5318Z" fill="#7D9EEA"/>
</svg>
