<svg width="50" height="50" viewBox="0 0 50 50" fill="none" xmlns="http://www.w3.org/2000/svg">
<path d="M48.6568 35.7954L37.4748 24.6106C39.5729 19.8473 38.6751 14.0717 34.7799 10.1756C29.7049 5.09937 21.4901 5.09869 16.4145 10.1756C11.3514 15.2399 11.3514 23.4801 16.4145 28.5444C20.4379 32.5687 26.3343 33.3349 31.0415 31.1588L42.1664 42.2864C43.96 44.0804 46.8635 44.0806 48.6572 42.286C50.4459 40.4965 50.4457 37.5848 48.6568 35.7954ZM18.4864 26.4729C14.5652 22.5508 14.5652 16.1692 18.4864 12.2471C22.4163 8.31621 28.7774 8.31553 32.7079 12.2471C36.6291 16.1692 36.6291 22.5508 32.7079 26.4729C28.778 30.4038 22.4168 30.4044 18.4864 26.4729ZM46.585 40.2148C45.9366 40.8636 44.8869 40.8639 44.2382 40.2149L33.6094 29.5836C34.4831 28.8958 35.2618 28.1062 35.9379 27.2173L46.5848 37.8668C47.232 38.5142 47.2321 39.5674 46.585 40.2148Z" fill="#7D9EEA"/>
<path d="M1.46491 23.922H7.71148C8.5205 23.922 9.17639 23.2661 9.17639 22.4571C9.17639 21.6481 8.5205 20.9922 7.71148 20.9922H1.46491C0.655889 20.9922 0 21.6481 0 22.4571C0 23.2661 0.655889 23.922 1.46491 23.922Z" fill="#7D9EEA"/>
<path d="M1.46491 30.172H10.054C10.863 30.172 11.5189 29.5161 11.5189 28.7071C11.5189 27.8981 10.863 27.2422 10.054 27.2422H1.46491C0.655889 27.2422 0 27.8981 0 28.7071C0 29.5161 0.655889 30.172 1.46491 30.172Z" fill="#7D9EEA"/>
<path d="M1.46491 36.4225H16.3006C17.1097 36.4225 17.7655 35.7666 17.7655 34.9576C17.7655 34.1486 17.1097 33.4927 16.3006 33.4927H1.46491C0.655889 33.4927 0 34.1486 0 34.9576C0 35.7666 0.655889 36.4225 1.46491 36.4225Z" fill="#7D9EEA"/>
<path d="M33.4789 39.7427H1.46491C0.655889 39.7427 0 40.3986 0 41.2076C0 42.0166 0.655889 42.6725 1.46491 42.6725H33.4789C34.288 42.6725 34.9438 42.0166 34.9438 41.2076C34.9438 40.3986 34.288 39.7427 33.4789 39.7427Z" fill="#7D9EEA"/>
</svg>
