<svg width="35" height="35" viewBox="0 0 35 35" fill="none" xmlns="http://www.w3.org/2000/svg">
<g clip-path="url(#clip0)">
<path d="M14.2179 8.47616C13.3133 8.47616 12.5773 7.74011 12.5773 6.83549C12.5773 5.93087 13.3133 5.19482 14.2179 5.19482C15.1226 5.19482 15.8586 5.93087 15.8586 6.83549C15.8586 7.74011 15.1226 8.47616 14.2179 8.47616Z" fill="#7D9EEA"/>
<path d="M34.9648 30.0221L32.2987 12.2484C32.0662 10.6965 30.7584 9.57002 29.1887 9.57002H19.0333C19.927 7.87945 19.9113 5.89068 18.9767 4.19608C18.0319 2.48261 16.3184 1.42588 14.3929 1.36921C14.2776 1.36586 14.1592 1.36586 14.0432 1.36921C12.1181 1.42581 10.4046 2.48261 9.45971 4.19608C8.52556 5.89 8.50956 7.87787 9.40324 9.57002H5.81053C4.24089 9.57002 2.933 10.6965 2.70057 12.2481L0.0344917 30.0221C-0.101342 30.9283 0.163694 31.8462 0.761649 32.5405C1.35967 33.2349 2.22813 33.6331 3.14444 33.6331H31.8547C32.7711 33.6331 33.6395 33.2349 34.2375 32.5405C34.8356 31.8464 35.1006 30.9284 34.9648 30.0221ZM11.3754 5.25253C11.9512 4.20845 12.947 3.59006 14.1072 3.55595C14.1439 3.55485 14.1811 3.55437 14.2183 3.55437C14.2556 3.55437 14.2928 3.55492 14.329 3.55595C15.4896 3.59006 16.4855 4.20845 17.0613 5.25253C17.6627 6.34317 17.646 7.63082 17.0168 8.69739L14.2183 13.4088L11.4207 8.69875C10.7906 7.63191 10.7737 6.34358 11.3754 5.25253ZM32.5801 31.1131C32.4731 31.2373 32.2367 31.4456 31.8548 31.4456H12.0386C12.0896 30.9329 12.3269 30.1624 13.2242 29.6701C13.7537 29.3795 13.9475 28.7146 13.6569 28.185C13.3663 27.6554 12.7013 27.4617 12.1717 27.7523C11.0134 28.3879 10.2497 29.3859 9.96333 30.6382C9.8964 30.9307 9.86407 31.2049 9.85101 31.4456H3.14444C2.76258 31.4456 2.52612 31.2373 2.4192 31.1131C2.31228 30.9889 2.14131 30.7242 2.19792 30.3467L4.864 12.5726C4.93475 12.1004 5.33282 11.7577 5.8106 11.7577H10.6933L12.8156 15.331C13.1129 15.833 13.6372 16.1327 14.2183 16.1327C14.7995 16.1327 15.3238 15.833 15.6201 15.3324L17.7434 11.7577H29.1888C29.6665 11.7577 30.0646 12.1004 30.1354 12.5728L32.8015 30.3466C32.8579 30.7242 32.687 30.9889 32.5801 31.1131Z" fill="#7D9EEA"/>
<path d="M18.9388 15.0951C18.3656 14.9039 17.7463 15.2138 17.5553 15.7868C17.3643 16.3599 17.674 16.9793 18.2471 17.1703C18.2583 17.1741 19.3792 17.5748 19.7429 18.6661C19.8956 19.1245 20.3225 19.4143 20.7804 19.4143C20.8951 19.4143 21.0117 19.3961 21.1265 19.3579C21.6995 19.1669 22.0093 18.5474 21.8182 17.9744C21.1065 15.8394 19.027 15.1245 18.9388 15.0951Z" fill="#7D9EEA"/>
<path d="M19.8663 21.984C19.2966 21.783 18.6718 22.0818 18.4708 22.6515C17.8535 24.4005 15.7376 25.1518 15.6932 25.1672C15.1225 25.3596 14.8145 25.9776 15.0052 26.5495C15.1579 27.0078 15.5848 27.2977 16.0427 27.2977C16.1574 27.2977 16.2741 27.2795 16.3888 27.2412C16.5175 27.1984 19.553 26.1583 20.5338 23.3795C20.7348 22.8098 20.436 22.1851 19.8663 21.984Z" fill="#7D9EEA"/>
</g>
<defs>
<clipPath id="clip0">
<rect width="35" height="35" fill="white"/>
</clipPath>
</defs>
</svg>
