<svg width="20" height="20" viewBox="0 0 20 20" fill="none" xmlns="http://www.w3.org/2000/svg">
<g clip-path="url(#clip0)">
<path d="M8.82812 9.0625C6.32957 9.0625 4.29688 7.0298 4.29688 4.53125C4.29688 2.0327 6.32957 0 8.82812 0C11.3267 0 13.3594 2.0327 13.3594 4.53125C13.3594 7.0298 11.3267 9.0625 8.82812 9.0625Z" fill="#647DB7"/>
<path d="M10.5859 12.3828C10.5859 11.3797 10.8676 10.4411 11.3558 9.6419C10.5935 10.0205 9.73547 10.2344 8.82812 10.2344C7.65125 10.2344 6.55656 9.87601 5.6473 9.26273C4.52301 9.69855 3.4916 10.3678 2.61336 11.2461C0.953281 12.9061 0.0390625 15.1132 0.0390625 17.4609V19.4141C0.0390625 19.7376 0.301406 20 0.625 20H17.0312C17.3548 20 17.6172 19.7376 17.6172 19.4141V17.4609C17.6172 17.4257 17.6162 17.3904 17.6158 17.3551C17.0661 17.5499 16.475 17.6562 15.8594 17.6562C12.9516 17.6562 10.5859 15.2906 10.5859 12.3828Z" fill="#647DB7"/>
<path d="M15.8594 8.28125C13.5978 8.28125 11.7578 10.1212 11.7578 12.3828C11.7578 14.6444 13.5978 16.4844 15.8594 16.4844C18.121 16.4844 19.9609 14.6444 19.9609 12.3828C19.9609 10.1212 18.121 8.28125 15.8594 8.28125ZM17.0312 13.0664H16.4453V13.5547C16.4453 13.8783 16.183 14.1406 15.8594 14.1406C15.5358 14.1406 15.2734 13.8783 15.2734 13.5547V12.9688H14.6875C14.3639 12.9688 14.1016 12.7064 14.1016 12.3828C14.1016 12.0592 14.3639 11.7969 14.6875 11.7969H15.1758V11.2109C15.1758 10.8873 15.5358 10.625 15.8594 10.625C16.183 10.625 16.4453 10.8873 16.4453 11.2109V11.7969H17.0312C17.3548 11.7969 17.6172 12.0592 17.6172 12.3828C17.6172 12.7064 17.3548 13.0664 17.0312 13.0664Z" fill="#647DB7"/>
<path d="M8.52722 8.85132C6.19459 8.85132 4.29688 6.95361 4.29688 4.62097C4.29688 2.28834 6.19459 0.390625 8.52722 0.390625C10.8599 0.390625 12.7576 2.28834 12.7576 4.62097C12.7576 6.95361 10.8599 8.85132 8.52722 8.85132Z" fill="#839BD5"/>
<path d="M9.92169 12.8887C9.92169 11.9521 10.1846 11.0759 10.6404 10.3298C9.92873 10.6833 9.1277 10.8829 8.28061 10.8829C7.18189 10.8829 6.15989 10.5483 5.31102 9.97577C4.26138 10.3826 3.29846 11.0075 2.47854 11.8274C0.928704 13.3772 0.0751953 15.4378 0.0751953 17.6295V19.453C0.0751953 19.7551 0.320118 20 0.622223 20H15.939C16.2411 20 16.486 19.7551 16.486 19.453V17.6295C16.486 17.5967 16.4851 17.5637 16.4847 17.5308C15.9715 17.7126 15.4196 17.8119 14.8449 17.8119C12.1303 17.8119 9.92169 15.6033 9.92169 12.8887Z" fill="#839BD5"/>
<path d="M15.7412 8.51562C13.5442 8.51562 11.7568 10.303 11.7568 12.5C11.7568 14.697 13.5442 16.4844 15.7412 16.4844C17.9382 16.4844 19.7256 14.697 19.7256 12.5C19.7256 10.303 17.9382 8.51562 15.7412 8.51562ZM16.8796 12.9688H16.3467V13.6384C16.3467 13.9527 16.0946 14.1992 15.7803 14.1992C15.4659 14.1992 15.172 13.9527 15.172 13.6384V13.0692H14.6028C14.2885 13.0692 14.0336 12.8143 14.0336 12.5C14.0336 12.1857 14.2885 11.7969 14.6028 11.7969H15.172V11.3616C15.172 11.0473 15.4269 10.7924 15.7412 10.7924C16.0556 10.7924 16.3104 11.0473 16.3104 11.3616V11.7969H16.8796C17.194 11.7969 17.4404 12.0685 17.4404 12.3828C17.4404 12.6972 17.194 12.9688 16.8796 12.9688Z" fill="#839BD5"/>
</g>
<defs>
<clipPath id="clip0">
<rect width="20" height="20" fill="white"/>
</clipPath>
</defs>
</svg>
