<svg width="24" height="25" viewBox="0 0 24 25" fill="none" xmlns="http://www.w3.org/2000/svg">
<path d="M12 13.5C14.67 13.5 20 14.84 20 17.5V20.5H4V17.5C4 14.84 9.33 13.5 12 13.5ZM12 4.5C13.0609 4.5 14.0783 4.92143 14.8284 5.67157C15.5786 6.42172 16 7.43913 16 8.5C16 9.56087 15.5786 10.5783 14.8284 11.3284C14.0783 12.0786 13.0609 12.5 12 12.5C10.9391 12.5 9.92172 12.0786 9.17157 11.3284C8.42143 10.5783 8 9.56087 8 8.5C8 7.43913 8.42143 6.42172 9.17157 5.67157C9.92172 4.92143 10.9391 4.5 12 4.5ZM12 15.4C9.03 15.4 5.9 16.86 5.9 17.5V18.6H18.1V17.5C18.1 16.86 14.97 15.4 12 15.4ZM12 6.4C11.443 6.4 10.9089 6.62125 10.5151 7.01508C10.1212 7.4089 9.9 7.94305 9.9 8.5C9.9 9.05695 10.1212 9.5911 10.5151 9.98492C10.9089 10.3788 11.443 10.6 12 10.6C12.557 10.6 13.0911 10.3788 13.4849 9.98492C13.8788 9.5911 14.1 9.05695 14.1 8.5C14.1 7.94305 13.8788 7.4089 13.4849 7.01508C13.0911 6.62125 12.557 6.4 12 6.4Z" fill="black"/>
</svg>
