<svg width="27" height="21" viewBox="0 0 27 21" fill="none" xmlns="http://www.w3.org/2000/svg">
<path d="M8.40221 20.09C18.1329 20.09 23.4543 12.4985 23.4543 5.9158C23.4543 5.74302 23.4512 5.57081 23.4447 5.39933C23.4418 5.32017 23.4793 5.24491 23.5443 5.19954C24.3117 4.6634 25.0022 4.03026 25.5928 3.32247C25.7395 3.14672 25.5506 2.89953 25.3336 2.97214C24.9466 3.10159 24.5493 3.21026 24.1431 3.29718C23.9006 3.34907 23.7635 2.99382 23.9492 2.82949C24.4465 2.3895 24.8537 1.86033 25.1411 1.26874C25.2323 1.08114 25.0288 0.904094 24.8415 0.995685C23.996 1.40896 23.0842 1.71886 22.1251 1.90773C22.0514 1.92225 21.9757 1.89823 21.9214 1.84626C20.9613 0.92708 19.6227 0.356445 18.1454 0.356445C15.2241 0.356445 12.8548 2.58737 12.8548 5.33742C12.8548 5.6228 12.8796 5.90233 12.9282 6.17428C12.955 6.32438 12.8385 6.4661 12.6864 6.456C8.52814 6.17992 4.83661 4.31567 2.29282 1.50086C2.18972 1.38677 2.00513 1.40177 1.93278 1.53746C1.57424 2.20986 1.37108 2.96895 1.37108 3.77248C1.37108 5.21173 2.0189 6.51081 3.05586 7.42044C3.23021 7.57338 3.12317 7.874 2.89494 7.83276C2.35846 7.73581 1.85088 7.56212 1.38576 7.32533C1.35948 7.31195 1.3285 7.33023 1.3285 7.35972C1.3285 9.43249 2.67438 11.2113 4.58874 11.9608C4.81554 12.0496 4.80512 12.389 4.56211 12.4055C4.43521 12.4141 4.30709 12.4185 4.17792 12.4185C3.97084 12.4185 3.76692 12.4069 3.56636 12.3846C3.39381 12.3654 3.25388 12.5303 3.32297 12.6896C4.01878 14.2936 5.57764 15.4797 7.45572 15.7373C7.67139 15.7669 7.75556 16.0526 7.57263 16.1706C5.86 17.2755 3.78781 17.9213 1.55494 17.9213C1.47891 17.9213 1.40303 17.9206 1.32732 17.9191C1.0832 17.9144 0.981004 18.2459 1.19806 18.3577C3.33793 19.4601 5.79082 20.0901 8.40236 20.0901" fill="#647DB7"/>
</svg>
