<svg width="106" height="115" viewBox="0 0 106 115" fill="none" xmlns="http://www.w3.org/2000/svg">
<path d="M7.9132 96.918C8.57587 97.0767 9.0752 97.3613 9.4112 97.772C9.75654 98.1733 9.9292 98.6913 9.9292 99.326C9.9292 100.175 9.61654 100.833 8.9912 101.3C8.3752 101.767 7.47454 102 6.2892 102H1.8092V92.2H6.0232C7.09654 92.2 7.93187 92.4193 8.5292 92.858C9.13587 93.2873 9.4392 93.908 9.4392 94.72C9.4392 95.252 9.30387 95.7047 9.0332 96.078C8.77187 96.4513 8.39854 96.7313 7.9132 96.918ZM3.1952 96.512H5.9252C6.60654 96.512 7.12454 96.3767 7.4792 96.106C7.8432 95.8353 8.0252 95.4387 8.0252 94.916C8.0252 94.3933 7.8432 93.9967 7.4792 93.726C7.1152 93.446 6.5972 93.306 5.9252 93.306H3.1952V96.512ZM6.2612 100.894C7.76387 100.894 8.5152 100.334 8.5152 99.214C8.5152 98.654 8.32387 98.2433 7.9412 97.982C7.56787 97.7113 7.00787 97.576 6.2612 97.576H3.1952V100.894H6.2612ZM18.7502 98.332C18.7502 98.4347 18.7409 98.57 18.7222 98.738H12.7022C12.7862 99.3913 13.0709 99.9187 13.5562 100.32C14.0509 100.712 14.6622 100.908 15.3902 100.908C16.2769 100.908 16.9909 100.609 17.5322 100.012L18.2742 100.88C17.9382 101.272 17.5182 101.571 17.0142 101.776C16.5195 101.981 15.9642 102.084 15.3482 102.084C14.5642 102.084 13.8689 101.925 13.2622 101.608C12.6555 101.281 12.1842 100.829 11.8482 100.25C11.5215 99.6713 11.3582 99.018 11.3582 98.29C11.3582 97.5713 11.5169 96.9227 11.8342 96.344C12.1609 95.7653 12.6042 95.3173 13.1642 95C13.7335 94.6733 14.3729 94.51 15.0822 94.51C15.7915 94.51 16.4215 94.6733 16.9722 95C17.5322 95.3173 17.9662 95.7653 18.2742 96.344C18.5915 96.9227 18.7502 97.5853 18.7502 98.332ZM15.0822 95.644C14.4382 95.644 13.8969 95.84 13.4582 96.232C13.0289 96.624 12.7769 97.1373 12.7022 97.772H17.4622C17.3875 97.1467 17.1309 96.638 16.6922 96.246C16.2629 95.8447 15.7262 95.644 15.0822 95.644ZM28.2582 100.824V103.722H26.9982V102H20.7962V103.722H19.5222V100.824H19.9142C20.3902 100.796 20.7168 100.46 20.8942 99.816C21.0715 99.172 21.1928 98.262 21.2582 97.086L21.3702 94.58H27.1242V100.824H28.2582ZM22.4902 97.184C22.4528 98.1173 22.3735 98.892 22.2522 99.508C22.1402 100.115 21.9302 100.553 21.6222 100.824H25.7802V95.756H22.5602L22.4902 97.184ZM33.355 97.1C34.2884 97.1093 35.0024 97.324 35.497 97.744C35.9917 98.164 36.239 98.7567 36.239 99.522C36.239 100.325 35.9684 100.945 35.427 101.384C34.895 101.813 34.1297 102.023 33.131 102.014L30.009 102V94.58H31.353V97.086L33.355 97.1ZM37.345 94.58H38.689V102H37.345V94.58ZM33.033 100.992C33.6397 101.001 34.097 100.88 34.405 100.628C34.7224 100.376 34.881 100.003 34.881 99.508C34.881 99.0227 34.727 98.668 34.419 98.444C34.111 98.22 33.649 98.1033 33.033 98.094L31.353 98.066V100.978L33.033 100.992Z" fill="#19A440"/>
<path d="M105.949 39.9851C105.949 62.0682 65.9744 114.957 65.9744 114.957C65.9744 114.957 26 62.0682 26 39.9851C26 17.9019 43.8971 0 65.9744 0C88.0516 0 105.949 17.9019 105.949 39.9851Z" fill="url(#paint0_linear)"/>
<path d="M73.4466 32.9315C73.0668 27.4716 70.8083 22.1487 66.571 18C62.2937 22.1879 59.9352 27.5108 59.4555 32.9315C62.0339 34.2622 64.3924 35.9843 66.451 38.0783C68.5097 36.0039 70.8682 34.2818 73.4466 32.9315ZM66.451 44.3209C62.1538 37.9021 54.8185 33.6556 46.4639 33.6556C46.4639 53.225 65.0919 56.9237 66.451 57.1389C67.8102 56.9041 86.4382 53.225 86.4382 33.6556C78.0836 33.6556 70.7483 37.9021 66.451 44.3209Z" fill="#19A440"/>
<defs>
<linearGradient id="paint0_linear" x1="22.9976" y1="109.99" x2="139.793" y2="64.7023" gradientUnits="userSpaceOnUse">
<stop stop-color="#ACFFAA"/>
<stop offset="0.940625" stop-color="#36E988"/>
</linearGradient>
</defs>
</svg>
