<svg width="61" height="61" viewBox="0 0 61 61" fill="none" xmlns="http://www.w3.org/2000/svg">
<g clip-path="url(#clip0_1175:13739)">
<path d="M57.6859 41.5072H3.10451C1.39271 41.5072 0 40.1152 0 38.4036V9.05494C0 7.34351 1.39271 5.95117 3.10451 5.95117H57.6859C59.397 5.95117 60.79 7.34351 60.79 9.05494V38.4036C60.79 40.1152 59.397 41.5072 57.6859 41.5072ZM3.10451 8.45832C2.77525 8.45832 2.50691 8.72592 2.50691 9.05494V38.4036C2.50691 38.7326 2.77525 39.0003 3.10451 39.0003H57.6859C58.015 39.0003 58.283 38.7326 58.283 38.4036V9.05494C58.283 8.72592 58.0151 8.45832 57.6859 8.45832H3.10451Z" fill="#6B6B6B"/>
<path d="M23.9049 33.2569C23.4933 33.0317 23.2256 32.612 23.2256 32.1431V15.318C23.2256 14.8488 23.4879 14.4192 23.9049 14.2039C24.3218 13.9888 24.8235 14.0247 25.2058 14.2966L37.0361 22.7091C37.3671 22.9443 37.5631 23.3249 37.5631 23.7306C37.5631 24.1364 37.3671 24.517 37.0361 24.7522C37.0361 24.7522 28.163 31.0613 25.2058 33.1645C24.9897 33.3182 24.5239 33.5957 23.9049 33.2569ZM25.733 17.7476V29.7135L34.1464 23.7306L25.733 17.7476Z" fill="#6B6B6B"/>
<path d="M59.5366 48.6247H35.5767C35.0203 46.4933 33.0784 44.916 30.7752 44.916C28.4723 44.916 26.531 46.4933 25.9745 48.6247H1.25351C0.561377 48.6247 0 49.1861 0 49.8782C0 50.5706 0.561377 51.1317 1.25351 51.1317H25.9746C26.5311 53.2631 28.4725 54.8407 30.7754 54.8407C33.0786 54.8407 35.0204 53.263 35.5768 51.1317H59.5366C60.2283 51.1317 60.79 50.5707 60.79 49.8782C60.79 49.1861 60.2283 48.6247 59.5366 48.6247ZM30.7752 52.3334C29.422 52.3334 28.3203 51.232 28.3203 49.8781C28.3203 48.5245 29.422 47.4232 30.7752 47.4232C32.1291 47.4232 33.2305 48.5245 33.2305 49.8781C33.2305 51.2321 32.1291 52.3334 30.7752 52.3334Z" fill="#6B6B6B"/>
</g>
<defs>
<clipPath id="clip0_1175:13739">
<rect width="60.79" height="60.79" fill="white"/>
</clipPath>
</defs>
</svg>
