<svg width="201" height="244" viewBox="0 0 201 244" fill="none" xmlns="http://www.w3.org/2000/svg">
<path d="M97.4769 243.445C151.312 243.445 194.954 199.855 194.954 146.083C194.954 92.3112 151.312 48.7207 97.4769 48.7207C43.6419 48.7207 0 92.3112 0 146.083C0 199.855 43.6419 243.445 97.4769 243.445Z" fill="#FFCC00"/>
<path fill-rule="evenodd" clip-rule="evenodd" d="M146.291 46.8494V137.924L146.076 137.996V138.118C146.076 147.022 145.431 155.331 144.219 159.575C138.412 179.971 119.622 194.767 97.341 194.767C70.4214 194.767 48.8857 173.045 48.8857 146.154C48.8857 119.271 70.4214 97.5486 97.341 97.5486C110.023 97.5486 121.572 102.388 130.247 110.317C133.078 112.912 135.602 115.83 137.76 119.02C137.158 116.166 136.57 112.575 136.57 109.499V0L200.008 19.4137V63.3811L146.291 46.8494Z" fill="#FF3333"/>
</svg>
