<svg width="44" height="44" viewBox="0 0 44 44" fill="none" xmlns="http://www.w3.org/2000/svg">
<g clip-path="url(#clip0)">
<rect x="6" y="18" width="34" height="24" fill="white"/>
<path d="M41.579 2.42035C39.966 0.806885 38.0225 0 35.7502 0H8.24995C5.97759 0 4.03412 0.806885 2.42035 2.42035C0.806885 4.03412 0 5.97749 0 8.24995V35.7498C0 38.0221 0.806885 39.9657 2.42035 41.5794C4.03412 43.1932 5.97759 44.0001 8.24995 44.0001H35.7499C38.0222 44.0001 39.9657 43.1932 41.5787 41.5794C43.1925 39.9657 43.9994 38.0222 43.9994 35.7498V8.24995C43.9993 5.97749 43.1924 4.03382 41.579 2.42035ZM25.982 6.35896H27.9013V14.1503C27.9013 14.6088 27.9103 14.8571 27.9294 14.8954C27.9487 15.201 28.1019 15.3536 28.3882 15.3536C28.77 15.3536 29.1715 15.0578 29.5913 14.4658V6.35896H31.5106V16.9579H29.5913H29.5906V15.8116C28.8077 16.6708 28.0726 17.1009 27.3852 17.1009C26.7744 17.1009 26.3637 16.8432 26.1533 16.3275C26.0385 15.984 25.982 15.4586 25.982 14.7519V6.35896ZM18.7345 9.7966C18.7345 8.68911 18.9351 7.85815 19.3361 7.3045C19.8517 6.57889 20.5962 6.21588 21.5702 6.21588C22.5062 6.21588 23.2512 6.57919 23.8044 7.3045C24.2057 7.85825 24.4063 8.68911 24.4063 9.7966V13.5207C24.4063 14.6666 24.2057 15.4974 23.8044 16.0129C23.2512 16.7389 22.5062 17.1017 21.5702 17.1017C20.5962 17.1017 19.8517 16.7386 19.3361 16.0129C18.9351 15.459 18.7345 14.6283 18.7345 13.5207V9.7966ZM13.578 2.72095L15.0963 8.30724L16.5572 2.72095H18.7057L16.1275 11.2002H16.1279V16.9579H14.0081V11.2002C13.7978 10.1499 13.3586 8.64115 12.6903 6.67431C12.2512 5.35652 12.0314 4.69763 12.0314 4.69763L11.3436 2.72095H13.578ZM37.1827 37.297C36.9918 38.1177 36.5859 38.8146 35.9648 39.3882C35.3446 39.9609 34.624 40.2953 33.8026 40.3911C31.1866 40.6771 27.252 40.8205 22.0005 40.8205C16.7486 40.8205 12.8146 40.677 10.1984 40.3911C9.3774 40.2953 8.6566 39.9609 8.03574 39.3882C7.41507 38.8146 7.00942 38.1177 6.81839 37.297C6.43662 35.6926 6.24568 33.2097 6.24568 29.8489C6.24568 26.5444 6.43662 24.0627 6.81839 22.4008C7.00952 21.5605 7.41517 20.8586 8.03574 20.295C8.6566 19.7315 9.38683 19.402 10.2272 19.3066C12.8241 19.0198 16.7486 18.8768 22.0005 18.8768C27.2715 18.8768 31.2057 19.0202 33.8026 19.3066C34.624 19.4023 35.3487 19.7314 35.9791 20.295C36.6095 20.8583 37.0206 21.5601 37.2114 22.4008C37.5736 23.9858 37.7553 26.4683 37.7553 29.8489C37.7554 33.2096 37.5644 35.6921 37.1827 37.297Z" fill="#993030"/>
<path d="M8.5918 24.5497H10.8262V36.6667H12.946V24.5497H15.2377V22.5444H8.5918V24.5497Z" fill="#993030"/>
<path d="M19.0776 34.1743C18.6575 34.7659 18.2563 35.062 17.8745 35.062C17.6071 35.062 17.4638 34.9188 17.4448 34.6324C17.4256 34.5943 17.416 34.3461 17.416 33.8874V26.1528H15.5254V34.4601C15.5254 35.1859 15.5828 35.7016 15.6975 36.0065C15.8692 36.5415 16.2705 36.8086 16.9006 36.8086C17.6071 36.8086 18.3328 36.3791 19.0776 35.5196V36.6658H20.9966V26.1535H19.0776V34.1743Z" fill="#993030"/>
<path d="M26.4978 26.0103C25.8103 26.0103 25.1608 26.3921 24.5502 27.1564V22.5444H22.6309V36.6667H24.5502V35.6354C25.1799 36.4182 25.83 36.8096 26.4978 36.8096C27.281 36.8096 27.7868 36.4086 28.0155 35.6065C28.1493 35.2055 28.2159 34.5084 28.2159 33.5154V29.3333C28.2159 28.3211 28.1486 27.6144 28.0155 27.2134C27.7867 26.4113 27.2809 26.0103 26.4978 26.0103ZM26.3258 33.659C26.3258 34.5946 26.049 35.0619 25.4949 35.0626C25.1708 35.0626 24.8552 34.9096 24.5495 34.604V28.1872C24.8552 27.8824 25.1707 27.7293 25.4949 27.7293C26.049 27.7293 26.3258 28.2062 26.3258 29.1611V33.659Z" fill="#993030"/>
<path d="M33.4574 33.6445C33.4574 33.8449 33.4524 34.0022 33.4436 34.1169C33.4343 34.2316 33.4291 34.2985 33.4291 34.3174C33.3147 34.8136 33.028 35.0618 32.5697 35.0618C31.9203 35.0618 31.5956 34.5749 31.5956 33.6011V31.7394H35.4055V29.5619C35.4055 28.4545 35.2054 27.6336 34.804 27.0986C34.2889 26.3731 33.5439 26.0098 32.5697 26.0098C31.5956 26.0098 30.832 26.373 30.2778 27.0986C29.8959 27.6143 29.7051 28.4359 29.7051 29.5619V33.2574C29.7051 34.3842 29.9055 35.2057 30.3066 35.7214C30.8607 36.4469 31.634 36.8102 32.6274 36.8102C33.6396 36.8102 34.4032 36.4283 34.9193 35.6641C35.1483 35.32 35.2922 34.9383 35.3492 34.5183C35.387 34.2508 35.4061 33.8401 35.4061 33.2864V33.0292V33.0285H33.458V33.6446H33.4574V33.6445ZM31.5963 29.1897C31.5963 28.216 31.9115 27.7291 32.5416 27.7291C33.172 27.7291 33.4869 28.216 33.4869 29.1897V30.1642H31.5963V29.1897Z" fill="#993030"/>
<path d="M21.5689 15.3538C22.18 15.3538 22.4854 14.867 22.4854 13.8931V9.42423C22.4854 8.43142 22.18 7.93457 21.5689 7.93457C20.9579 7.93457 20.6523 8.43142 20.6523 9.42423V13.8931C20.6523 14.8667 20.9579 15.3538 21.5689 15.3538Z" fill="#993030"/>
</g>
<defs>
<clipPath id="clip0">
<rect width="44" height="44" fill="white"/>
</clipPath>
</defs>
</svg>
