<svg width="44" height="44" viewBox="0 0 44 44" fill="none" xmlns="http://www.w3.org/2000/svg">
<g clip-path="url(#clip0)">
<rect x="6" y="18" width="34" height="24" fill="#121212"/>
<path d="M41.5799 2.42035C39.9669 0.806885 38.0234 0 35.7511 0H8.25085C5.97849 0 4.03502 0.806885 2.42125 2.42035C0.807785 4.03412 0.000900269 5.97749 0.000900269 8.24995V35.7498C0.000900269 38.0221 0.807785 39.9657 2.42125 41.5794C4.03502 43.1932 5.97849 44.0001 8.25085 44.0001H35.7508C38.0231 44.0001 39.9666 43.1932 41.5796 41.5794C43.1934 39.9657 44.0003 38.0222 44.0003 35.7498V8.24995C44.0002 5.97749 43.1933 4.03382 41.5799 2.42035ZM25.9829 6.35896H27.9022V14.1503C27.9022 14.6088 27.9112 14.8571 27.9303 14.8954C27.9496 15.201 28.1028 15.3536 28.3891 15.3536C28.7709 15.3536 29.1724 15.0578 29.5922 14.4658V6.35896H31.5115V16.9579H29.5922H29.5915V15.8116C28.8086 16.6708 28.0735 17.1009 27.3861 17.1009C26.7753 17.1009 26.3646 16.8432 26.1542 16.3275C26.0394 15.984 25.9829 15.4586 25.9829 14.7519V6.35896ZM18.7354 9.7966C18.7354 8.68911 18.936 7.85815 19.337 7.3045C19.8526 6.57889 20.5971 6.21588 21.5711 6.21588C22.5071 6.21588 23.2521 6.57919 23.8053 7.3045C24.2066 7.85825 24.4072 8.68911 24.4072 9.7966V13.5207C24.4072 14.6666 24.2066 15.4974 23.8053 16.0129C23.2521 16.7389 22.5071 17.1017 21.5711 17.1017C20.5971 17.1017 19.8526 16.7386 19.337 16.0129C18.936 15.459 18.7354 14.6283 18.7354 13.5207V9.7966ZM13.5789 2.72095L15.0972 8.30724L16.5581 2.72095H18.7066L16.1284 11.2002H16.1288V16.9579H14.009V11.2002C13.7987 10.1499 13.3595 8.64115 12.6912 6.67431C12.2521 5.35652 12.0323 4.69763 12.0323 4.69763L11.3445 2.72095H13.5789ZM37.1836 37.297C36.9927 38.1177 36.5868 38.8146 35.9657 39.3882C35.3455 39.9609 34.6249 40.2953 33.8035 40.3911C31.1875 40.6771 27.2529 40.8205 22.0014 40.8205C16.7495 40.8205 12.8155 40.677 10.1993 40.3911C9.3783 40.2953 8.6575 39.9609 8.03664 39.3882C7.41597 38.8146 7.01032 38.1177 6.81929 37.297C6.43752 35.6926 6.24658 33.2097 6.24658 29.8489C6.24658 26.5444 6.43752 24.0627 6.81929 22.4008C7.01042 21.5605 7.41607 20.8586 8.03664 20.295C8.6575 19.7315 9.38773 19.402 10.2281 19.3066C12.825 19.0198 16.7495 18.8768 22.0014 18.8768C27.2724 18.8768 31.2066 19.0202 33.8035 19.3066C34.6249 19.4023 35.3496 19.7314 35.98 20.295C36.6104 20.8583 37.0215 21.5601 37.2123 22.4008C37.5745 23.9858 37.7562 26.4683 37.7562 29.8489C37.7563 33.2096 37.5653 35.6921 37.1836 37.297Z" fill="#DB0707"/>
<path d="M8.59366 24.5492H10.8281V36.6662H12.9478V24.5492H15.2396V22.5439H8.59366V24.5492Z" fill="#DB0707"/>
<path d="M19.0783 34.1748C18.6582 34.7664 18.257 35.0625 17.8752 35.0625C17.6078 35.0625 17.4645 34.9193 17.4455 34.6329C17.4263 34.5948 17.4167 34.3466 17.4167 33.8879V26.1533H15.5261V34.4606C15.5261 35.1864 15.5835 35.7021 15.6982 36.007C15.8699 36.542 16.2712 36.8091 16.9013 36.8091C17.6078 36.8091 18.3335 36.3795 19.0783 35.5201V36.6663H20.9973V26.154H19.0783V34.1748Z" fill="#DB0707"/>
<path d="M26.498 26.0098C25.8105 26.0098 25.1609 26.3916 24.5504 27.1559V22.5439H22.631V36.6662H24.5504V35.6349C25.1801 36.4177 25.8301 36.8091 26.498 36.8091C27.2812 36.8091 27.787 36.4081 28.0156 35.606C28.1495 35.205 28.2161 34.508 28.2161 33.5149V29.3328C28.2161 28.3206 28.1488 27.6139 28.0156 27.2129C27.7869 26.4108 27.2811 26.0098 26.498 26.0098ZM26.3259 33.6585C26.3259 34.5941 26.0492 35.0614 25.495 35.0621C25.1709 35.0621 24.8553 34.9091 24.5497 34.6035V28.1867C24.8553 27.8819 25.1708 27.7288 25.495 27.7288C26.0492 27.7288 26.3259 28.2057 26.3259 29.1607V33.6585Z" fill="#DB0707"/>
<path d="M33.4579 33.6445C33.4579 33.8449 33.453 34.0022 33.4441 34.1169C33.4348 34.2316 33.4296 34.2985 33.4296 34.3174C33.3152 34.8136 33.0285 35.0618 32.5702 35.0618C31.9209 35.0618 31.5961 34.5749 31.5961 33.6011V31.7394H35.406V29.5619C35.406 28.4545 35.2059 27.6336 34.8045 27.0986C34.2894 26.3731 33.5444 26.0098 32.5702 26.0098C31.5961 26.0098 30.8325 26.373 30.2783 27.0986C29.8964 27.6143 29.7056 28.4359 29.7056 29.5619V33.2574C29.7056 34.3842 29.906 35.2057 30.3071 35.7214C30.8612 36.4469 31.6345 36.8102 32.6279 36.8102C33.6401 36.8102 34.4037 36.4283 34.9198 35.6641C35.1488 35.32 35.2927 34.9383 35.3497 34.5183C35.3875 34.2508 35.4067 33.8401 35.4067 33.2864V33.0292V33.0285H33.4585V33.6446H33.4579V33.6445ZM31.5968 29.1897C31.5968 28.216 31.912 27.7291 32.5421 27.7291C33.1725 27.7291 33.4874 28.216 33.4874 29.1897V30.1642H31.5968V29.1897Z" fill="#DB0707"/>
<path d="M21.5703 15.3538C22.1815 15.3538 22.4869 14.867 22.4869 13.8931V9.42423C22.4869 8.43142 22.1815 7.93457 21.5703 7.93457C20.9593 7.93457 20.6538 8.43142 20.6538 9.42423V13.8931C20.6538 14.8667 20.9593 15.3538 21.5703 15.3538Z" fill="#DB0707"/>
</g>
<defs>
<clipPath id="clip0">
<rect width="44" height="44" fill="white"/>
</clipPath>
</defs>
</svg>
