<svg width="850" height="499" viewBox="0 0 850 499" fill="none" xmlns="http://www.w3.org/2000/svg">
<path opacity="0.5" d="M6 482.853C34.3152 462.027 112.532 424.375 198.876 440.369C306.807 460.361 336.288 505.344 391.753 482.853C447.217 460.361 384.257 419.876 492.188 369.895C600.119 319.914 684.565 397.885 730.036 397.885C775.506 397.885 825.474 344.904 827.973 297.422C830.471 249.94 660.58 297.422 600.119 297.422C539.658 297.422 401.746 340.22 420.734 284.834C439.722 229.447 540.157 186.963 622.604 194.46C705.052 201.958 740.529 169.47 773.008 194.46" stroke="#C9D1E6" stroke-width="20"/>
<path d="M6 482.853C34.3152 462.027 112.532 424.375 198.876 440.369C306.807 460.361 336.288 505.344 391.753 482.853C447.217 460.361 384.257 419.876 492.188 369.895C600.119 319.914 684.565 397.885 730.036 397.885C775.506 397.885 825.474 344.904 827.973 297.422C830.471 249.94 660.58 297.422 600.119 297.422C539.658 297.422 401.746 340.22 420.734 284.834C439.722 229.447 540.157 186.963 622.604 194.46C705.052 201.958 740.529 169.47 773.008 194.46" stroke="white" stroke-width="10"/>
<path opacity="0.5" d="M6 482.853C34.3152 462.027 112.532 424.375 198.876 440.369C306.807 460.361 336.288 505.344 391.753 482.853C447.217 460.361 384.257 419.876 492.188 369.895C600.119 319.914 684.565 397.885 730.036 397.885C775.506 397.885 825.474 344.904 827.973 297.422C830.471 249.94 660.58 297.422 600.119 297.422C539.658 297.422 401.746 340.22 420.734 284.834C439.722 229.447 540.157 186.963 622.604 194.46C705.052 201.958 740.529 169.47 773.008 194.46" stroke="#647DB7" stroke-width="4" stroke-dasharray="20 20"/>
<path d="M849.104 74.072C849.104 114.981 775.052 212.957 775.052 212.957C775.052 212.957 701 114.981 701 74.072C701 33.1632 734.154 0 775.052 0C815.95 0 849.104 33.1632 849.104 74.072Z" fill="#F0F3F8"/>
<path d="M788.895 59.0515C788.192 48.942 784.008 39.0861 776.158 31.4043C768.235 39.1586 763.866 49.0144 762.977 59.0515C767.753 61.5155 772.123 64.7041 775.936 68.5813C779.75 64.7404 784.119 61.5517 788.895 59.0515ZM775.936 80.1402C767.976 68.2552 754.387 60.3922 738.91 60.3922C738.91 96.6271 773.418 103.475 775.936 103.874C778.454 103.439 812.962 96.6271 812.962 60.3922C797.485 60.3922 783.897 68.2552 775.936 80.1402Z" fill="#647DB7" fill-opacity="0.5"/>
</svg>
