<svg width="1117" height="92" viewBox="0 0 1117 92" fill="none" xmlns="http://www.w3.org/2000/svg">
<g opacity="0.15">
<path d="M4.0954 120.292C43.7928 114.453 168.93 36.9331 271.558 37C348.281 33.4231 405.214 60.8421 458.372 70.3284C511.531 79.8147 551.925 85.6111 670.648 77.1657C789.371 68.7204 810.921 56.5402 1052.03 28.6231" stroke="#F5F8FF" stroke-width="4.24507" stroke-dasharray="21.23 21.23"/>
</g>
<g opacity="0.15">
<path d="M1110.71 40.078H1105.58V62.8953H1085.61V53.3976L1093.57 45.4401L1095.59 45.7823C1098.9 45.7823 1101.58 43.1013 1101.58 39.7928C1101.58 36.4843 1098.9 33.8033 1095.59 33.8033C1094 33.8033 1092.48 34.4343 1091.36 35.5576C1090.23 36.6808 1089.6 38.2043 1089.6 39.7928L1089.89 41.8178L1085.61 46.1531V30.5233C1087.49 29.4965 1088.75 27.5285 1088.75 25.2468C1088.75 23.6583 1088.12 22.1348 1086.99 21.0116C1085.87 19.8883 1084.35 19.2573 1082.76 19.2573C1081.17 19.2573 1079.65 19.8883 1078.52 21.0116C1077.4 22.1348 1076.77 23.6583 1076.77 25.2468C1076.77 27.5285 1078.02 29.4965 1079.91 30.5233V46.1531L1075.63 41.8178L1075.91 39.7928C1075.91 38.2043 1075.28 36.6808 1074.16 35.5576C1073.04 34.4343 1071.51 33.8033 1069.92 33.8033C1068.33 33.8033 1066.81 34.4343 1065.69 35.5576C1064.56 36.6808 1063.93 38.2043 1063.93 39.7928C1063.93 41.3813 1064.56 42.9048 1065.69 44.028C1066.81 45.1513 1068.33 45.7823 1069.92 45.7823L1071.95 45.4401L1079.91 53.3976V62.8953H1059.94V40.078H1054.95C1053.75 40.078 1052.58 40.078 1052.58 39.4791C1052.61 38.8516 1053.81 37.6537 1055.03 36.4273L1079.91 11.5565C1080.85 10.6152 1081.82 9.64551 1082.76 9.64551C1083.7 9.64551 1084.67 10.6152 1085.61 11.5565L1097.02 22.9651V20.1129H1102.72V28.6694L1110.65 36.5984C1111.79 37.7393 1112.96 38.9086 1112.99 39.5076C1112.99 40.078 1111.85 40.078 1110.71 40.078ZM1069.92 37.2259C1070.6 37.2259 1071.26 37.4963 1071.74 37.9777C1072.22 38.4591 1072.49 39.112 1072.49 39.7928C1072.49 40.4736 1072.22 41.1265 1071.74 41.6079C1071.26 42.0893 1070.6 42.3598 1069.92 42.3598C1069.24 42.3598 1068.59 42.0893 1068.11 41.6079C1067.63 41.1265 1067.36 40.4736 1067.36 39.7928C1067.36 39.112 1067.63 38.4591 1068.11 37.9777C1068.59 37.4963 1069.24 37.2259 1069.92 37.2259ZM1095.59 37.2259C1097.02 37.2259 1098.16 38.3667 1098.16 39.7928C1098.16 41.2189 1097.02 42.3598 1095.59 42.3598C1094.91 42.3598 1094.26 42.0893 1093.78 41.6079C1093.3 41.1265 1093.03 40.4736 1093.03 39.7928C1093.03 39.112 1093.3 38.4591 1093.78 37.9777C1094.26 37.4963 1094.91 37.2259 1095.59 37.2259ZM1082.76 22.6799C1084.18 22.6799 1085.32 23.8207 1085.32 25.2468C1085.32 26.6729 1084.18 27.8138 1082.76 27.8138C1081.33 27.8138 1080.19 26.6729 1080.19 25.2468C1080.19 23.8207 1081.33 22.6799 1082.76 22.6799Z" fill="#F5F8FF"/>
</g>
<g opacity="0.75">
<circle opacity="0.12" cx="172.679" cy="52.3507" r="25.391" transform="rotate(12.945 172.679 52.3507)" fill="#DFE6F7"/>
</g>
<g clip-path="url(#clip0)">
<path d="M161.955 69.6667C162.318 69.8763 162.772 69.8526 163.112 69.6013L192.892 47.5809C193.241 47.3227 193.397 46.8773 193.285 46.4578C193.173 46.0384 192.816 45.7301 192.384 45.6806L155.589 41.4576C155.149 41.4072 154.724 41.6362 154.525 42.0313C154.325 42.4265 154.393 42.9043 154.695 43.2283L162.07 51.1482C163.776 52.9803 164.458 55.5304 163.893 57.9694L161.454 68.5131C161.354 68.9444 161.534 69.3923 161.904 69.6352C161.921 69.6462 161.938 69.6567 161.955 69.6667Z" fill="#7D9EEA"/>
<path d="M155.586 41.4573L192.382 45.6803C192.813 45.7299 193.17 46.0381 193.283 46.4575L163.831 54.3308C163.518 53.1594 162.921 52.0638 162.067 51.1478L154.692 43.2279C154.39 42.904 154.323 42.4262 154.522 42.031C154.722 41.6357 155.146 41.4069 155.586 41.4573Z" fill="#647DB7"/>
</g>
<defs>
<clipPath id="clip0">
<rect width="36.0831" height="36.0831" fill="white" transform="matrix(-0.865736 -0.500502 -0.500502 0.865736 193.708 46.3438)"/>
</clipPath>
</defs>
</svg>
