<svg width="882" height="543" viewBox="0 0 882 543" fill="none" xmlns="http://www.w3.org/2000/svg">
<path opacity="0.5" d="M91 454.01C117.903 433.185 192.218 395.532 274.256 411.526C376.803 431.518 404.814 476.502 457.512 454.01C510.21 431.518 450.391 391.034 552.938 341.052C655.485 291.071 735.719 369.042 778.922 369.042C822.125 369.042 869.6 316.061 871.974 268.579C874.348 221.097 712.931 268.579 655.485 268.579C598.04 268.579 467.007 311.377 485.048 255.991C503.088 200.605 598.514 158.12 676.849 165.618C755.184 173.115 788.892 140.627 819.751 165.618" stroke="#C9D1E6" stroke-width="20"/>
<path d="M91 454.01C117.903 433.185 192.218 395.532 274.256 411.526C376.803 431.518 404.814 476.502 457.512 454.01C510.21 431.518 450.391 391.034 552.938 341.052C655.485 291.071 735.719 369.042 778.922 369.042C822.125 369.042 869.6 316.061 871.974 268.579C874.348 221.097 712.931 268.579 655.485 268.579C598.04 268.579 467.007 311.377 485.048 255.991C503.088 200.605 598.514 158.12 676.849 165.618C755.184 173.115 788.892 140.627 819.751 165.618" stroke="white" stroke-width="10"/>
<path opacity="0.5" d="M91 454.01C117.903 433.185 192.218 395.532 274.256 411.526C376.803 431.518 404.814 476.502 457.512 454.01C510.21 431.518 450.391 391.034 552.938 341.052C655.485 291.071 735.719 369.042 778.922 369.042C822.125 369.042 869.6 316.061 871.974 268.579C874.348 221.097 712.931 268.579 655.485 268.579C598.04 268.579 467.007 311.377 485.048 255.991C503.088 200.605 598.514 158.12 676.849 165.618C755.184 173.115 788.892 140.627 819.751 165.618" stroke="#647DB7" stroke-width="4" stroke-dasharray="20 20"/>
<g opacity="0.75">
<ellipse opacity="0.08" rx="61.8913" ry="65.068" transform="matrix(0.999966 0.00824485 -0.0482214 0.998837 97.9585 436.945)" fill="url(#paint0_linear_14890_27961)"/>
<ellipse opacity="0.12" rx="45.214" ry="47.5347" transform="matrix(0.999966 0.00824485 -0.0482214 0.998837 98.3109 437.338)" fill="#647DB7"/>
</g>
<g clip-path="url(#clip0_14890_27961)">
<path d="M84.8682 473.288C85.5699 473.524 86.3612 473.297 86.8797 472.7L132.315 420.449C132.848 419.837 132.983 418.96 132.656 418.24C132.328 417.52 131.606 417.101 130.833 417.185L64.9211 424.362C64.1331 424.448 63.4587 425.038 63.2312 425.84C63.0037 426.643 63.2714 427.487 63.9018 427.957L79.3123 439.432C82.8773 442.087 84.867 446.467 84.6345 451.148L83.6298 471.385C83.5887 472.212 84.0432 472.957 84.7687 473.251C84.8014 473.264 84.8347 473.277 84.8682 473.288Z" fill="#C0CEF3"/>
<path d="M64.9202 424.363L130.832 417.186C131.605 417.102 132.328 417.52 132.655 418.24L83.3967 444.531C82.4827 442.519 81.094 440.76 79.3115 439.433L63.901 427.957C63.2706 427.488 63.0029 426.643 63.2304 425.841C63.458 425.039 64.1323 424.449 64.9202 424.363Z" fill="#ADBCE3"/>
</g>
<path d="M874.677 60.8546C874.677 94.4636 813.838 174.957 813.838 174.957C813.838 174.957 753 94.4636 753 60.8546C753 27.2455 780.238 0 813.838 0C847.438 0 874.677 27.2455 874.677 60.8546Z" fill="url(#paint1_linear_14890_27961)"/>
<path d="M825.068 42.7636C824.49 34.4581 821.052 26.3609 814.604 20.0498C808.094 26.4204 804.504 34.5176 803.774 42.7636C807.698 44.7879 811.288 47.4076 814.421 50.5929C817.554 47.4374 821.144 44.8177 825.068 42.7636ZM814.421 60.0893C807.881 50.325 796.717 43.8651 784.002 43.8651C784.002 73.6342 812.353 79.2606 814.421 79.588C816.49 79.2308 844.84 73.6342 844.84 43.8651C832.125 43.8651 820.961 50.325 814.421 60.0893Z" fill="#B9665B" fill-opacity="0.56"/>
<defs>
<linearGradient id="paint0_linear_14890_27961" x1="61.8913" y1="0" x2="61.8913" y2="143.884" gradientUnits="userSpaceOnUse">
<stop stop-color="#647DB7"/>
<stop offset="1" stop-color="#647DB7"/>
</linearGradient>
<linearGradient id="paint1_linear_14890_27961" x1="748.431" y1="167.398" x2="926.186" y2="98.4725" gradientUnits="userSpaceOnUse">
<stop stop-color="#FF9776"/>
<stop offset="1" stop-color="#FF8B66"/>
</linearGradient>
<clipPath id="clip0_14890_27961">
<rect width="64.545" height="67.2732" fill="white" transform="matrix(-0.936676 -0.315019 -0.326928 0.956378 133.363 417.862)"/>
</clipPath>
</defs>
</svg>
