<svg width="798" height="326" viewBox="0 0 798 326" fill="none" xmlns="http://www.w3.org/2000/svg">
<path opacity="0.5" d="M7 309.01C33.9029 288.185 108.218 250.532 190.256 266.526C292.803 286.518 320.814 331.502 373.512 309.01C426.21 286.518 366.391 246.034 468.938 196.052C571.485 146.071 651.719 224.042 694.922 224.042C738.125 224.042 785.6 171.061 787.974 123.579C790.348 76.097 628.931 123.579 571.485 123.579C514.04 123.579 383.007 166.377 401.048 110.991C419.088 55.6046 514.514 13.1205 592.849 20.6177C671.184 28.1149 704.892 -4.37301 735.751 20.6177" stroke="#C9D1E6" stroke-width="20"/>
<path d="M7 309.01C33.9029 288.185 108.218 250.532 190.256 266.526C292.803 286.518 320.814 331.502 373.512 309.01C426.21 286.518 366.391 246.034 468.938 196.052C571.485 146.071 651.719 224.042 694.922 224.042C738.125 224.042 785.6 171.061 787.974 123.579C790.348 76.097 628.931 123.579 571.485 123.579C514.04 123.579 383.007 166.377 401.048 110.991C419.088 55.6046 514.514 13.1205 592.849 20.6177C671.184 28.1149 704.892 -4.37301 735.751 20.6177" stroke="white" stroke-width="10"/>
<path opacity="0.5" d="M7 309.01C33.9029 288.185 108.218 250.532 190.256 266.526C292.803 286.518 320.814 331.502 373.512 309.01C426.21 286.518 366.391 246.034 468.938 196.052C571.485 146.071 651.719 224.042 694.922 224.042C738.125 224.042 785.6 171.061 787.974 123.579C790.348 76.097 628.931 123.579 571.485 123.579C514.04 123.579 383.007 166.377 401.048 110.991C419.088 55.6046 514.514 13.1205 592.849 20.6177C671.184 28.1149 704.892 -4.37301 735.751 20.6177" stroke="#647DB7" stroke-width="4" stroke-dasharray="20 20"/>
</svg>
