<svg width="922" height="339" viewBox="0 0 922 339" fill="none" xmlns="http://www.w3.org/2000/svg">
<g opacity="0.75">
<circle opacity="0.08" cx="65.5" cy="215.5" r="65.5" fill="url(#paint0_linear)"/>
<circle opacity="0.12" cx="65.8919" cy="215.892" r="47.8503" fill="#647DB7"/>
</g>
<g clip-path="url(#clip0)">
<path d="M53.5059 252.221C54.2604 252.453 55.0859 252.217 55.6039 251.612L101.003 198.596C101.535 197.975 101.633 197.091 101.25 196.368C100.867 195.645 100.081 195.229 99.2676 195.321L29.9046 203.098C29.0754 203.191 28.3921 203.791 28.1924 204.601C27.9927 205.411 28.3191 206.26 29.0099 206.728L45.8991 218.16C49.8062 220.805 52.1348 225.201 52.128 229.919L52.0986 250.313C52.0974 251.148 52.6163 251.894 53.3988 252.184C53.4341 252.197 53.47 252.21 53.5059 252.221Z" fill="#C0CEF3"/>
<path d="M29.905 203.098L99.2679 195.321C100.081 195.229 100.867 195.645 101.25 196.368L50.4817 223.262C49.412 221.243 47.8531 219.482 45.8995 218.16L29.0103 206.728C28.3194 206.26 27.993 205.411 28.1928 204.601C28.3925 203.791 29.0758 203.191 29.905 203.098Z" fill="#ADBCE3"/>
</g>
<path d="M211.28 56.4H227.24C229.9 56.4 231.825 57.008 233.016 58.224C234.232 59.4147 234.84 61.34 234.84 64V67.8C234.84 70.46 234.232 72.398 233.016 73.614C231.825 74.8047 229.9 75.4 227.24 75.4H218.12V83H211.28V56.4ZM228 64C228 62.48 227.24 61.72 225.72 61.72H218.12V70.08H225.72C227.24 70.08 228 69.32 228 67.8V64ZM246.999 78.06C248.341 78.06 249.861 77.8067 251.559 77.3V75.02H246.049C245.669 75.02 245.352 75.1467 245.099 75.4C244.845 75.6533 244.719 75.97 244.719 76.35V76.73C244.719 77.11 244.845 77.4267 245.099 77.68C245.352 77.9333 245.669 78.06 246.049 78.06H246.999ZM239.969 63.24C244.605 62.7333 248.785 62.48 252.509 62.48C254.231 62.48 255.612 62.9993 256.651 64.038C257.689 65.0767 258.209 66.4573 258.209 68.18V83H252.319L251.939 81.1C250.748 81.8853 249.519 82.468 248.253 82.848C247.011 83.2027 245.96 83.38 245.099 83.38H243.769C242.046 83.38 240.665 82.8607 239.627 81.822C238.588 80.7833 238.069 79.4027 238.069 77.68V75.97C238.069 74.2473 238.588 72.8667 239.627 71.828C240.665 70.7893 242.046 70.27 243.769 70.27H251.559V68.75C251.559 68.37 251.432 68.0533 251.179 67.8C250.925 67.5467 250.609 67.42 250.229 67.42C248.582 67.42 246.758 67.496 244.757 67.648C242.781 67.8 241.185 67.914 239.969 67.99V63.24ZM261.618 78.06C266.457 78.44 270.257 78.63 273.018 78.63C273.398 78.63 273.715 78.5033 273.968 78.25C274.221 77.9967 274.348 77.68 274.348 77.3V76.73C274.348 76.35 274.221 76.0333 273.968 75.78C273.715 75.5267 273.398 75.4 273.018 75.4H264.658V70.65H272.258C272.638 70.65 272.955 70.5233 273.208 70.27C273.461 70.0167 273.588 69.7 273.588 69.32V68.94C273.588 68.56 273.461 68.2433 273.208 67.99C272.955 67.7367 272.638 67.61 272.258 67.61H261.998V62.86H274.538C276.235 62.86 277.603 63.3667 278.642 64.38C279.706 65.368 280.238 66.4827 280.238 67.724C280.238 70.2573 279.098 71.8027 276.818 72.36C277.958 72.5627 278.933 73.12 279.744 74.032C280.58 74.944 280.998 76.2107 280.998 77.832C280.998 79.4533 280.479 80.7833 279.44 81.822C278.401 82.8607 277.021 83.38 275.298 83.38C271.067 83.38 266.507 83.1267 261.618 82.62V78.06ZM305.311 77.3C305.311 79.2 304.766 80.6947 303.677 81.784C302.613 82.848 301.131 83.38 299.231 83.38H290.491C288.591 83.38 287.096 82.848 286.007 81.784C284.943 80.6947 284.411 79.2 284.411 77.3V68.56C284.411 66.66 284.943 65.178 286.007 64.114C287.096 63.0247 288.591 62.48 290.491 62.48H299.231C301.131 62.48 302.613 63.0247 303.677 64.114C304.766 65.178 305.311 66.66 305.311 68.56V77.3ZM298.661 69.13C298.661 68.1167 298.154 67.61 297.141 67.61H292.581C291.567 67.61 291.061 68.1167 291.061 69.13V76.73C291.061 77.7433 291.567 78.25 292.581 78.25H297.141C298.154 78.25 298.661 77.7433 298.661 76.73V69.13ZM316.136 66.28C318.594 65.7733 320.747 65.52 322.596 65.52H324.306C326.029 65.52 327.41 66.0393 328.448 67.078C329.487 68.1167 330.006 69.4973 330.006 71.22V77.3C330.006 79.2 329.462 80.6947 328.372 81.784C327.308 82.848 325.826 83.38 323.926 83.38H315.566C313.666 83.38 312.172 82.848 311.082 81.784C310.018 80.6947 309.486 79.2 309.486 77.3V63.81C309.486 61.986 310.094 60.4533 311.31 59.212C312.552 57.9707 314.224 57.2233 316.326 56.97L329.246 55.45L329.816 60.77L318.036 62.1C316.77 62.252 316.136 62.8853 316.136 64V66.28ZM321.836 78.25C322.85 78.25 323.356 77.7433 323.356 76.73V71.98C323.356 71.6 323.23 71.2833 322.976 71.03C322.723 70.7767 322.406 70.65 322.026 70.65H320.696C319.708 70.65 318.822 70.7007 318.036 70.802C317.251 70.9033 316.618 70.9793 316.136 71.03V76.73C316.136 77.7433 316.643 78.25 317.656 78.25H321.836ZM345.41 67.99C344.067 67.99 342.547 68.2433 340.85 68.75V77.87H346.55C347.563 77.87 348.07 77.3633 348.07 76.35V69.32C348.07 68.94 347.943 68.6233 347.69 68.37C347.436 68.1167 347.12 67.99 346.74 67.99H345.41ZM340.85 83V89.46H334.2V62.86H340.09L340.47 64.76C341.66 63.9747 342.876 63.4047 344.118 63.05C345.384 62.67 346.448 62.48 347.31 62.48H349.02C350.742 62.48 352.123 62.9993 353.162 64.038C354.2 65.0767 354.72 66.4573 354.72 68.18V76.92C354.72 78.82 354.175 80.3147 353.086 81.404C352.022 82.468 350.54 83 348.64 83H340.85ZM367.255 78.06C368.598 78.06 370.118 77.8067 371.815 77.3V75.02H366.305C365.925 75.02 365.608 75.1467 365.355 75.4C365.102 75.6533 364.975 75.97 364.975 76.35V76.73C364.975 77.11 365.102 77.4267 365.355 77.68C365.608 77.9333 365.925 78.06 366.305 78.06H367.255ZM360.225 63.24C364.861 62.7333 369.041 62.48 372.765 62.48C374.488 62.48 375.868 62.9993 376.907 64.038C377.946 65.0767 378.465 66.4573 378.465 68.18V83H372.575L372.195 81.1C371.004 81.8853 369.776 82.468 368.509 82.848C367.268 83.2027 366.216 83.38 365.355 83.38H364.025C362.302 83.38 360.922 82.8607 359.883 81.822C358.844 80.7833 358.325 79.4027 358.325 77.68V75.97C358.325 74.2473 358.844 72.8667 359.883 71.828C360.922 70.7893 362.302 70.27 364.025 70.27H371.815V68.75C371.815 68.37 371.688 68.0533 371.435 67.8C371.182 67.5467 370.865 67.42 370.485 67.42C368.838 67.42 367.014 67.496 365.013 67.648C363.037 67.8 361.441 67.914 360.225 67.99V63.24ZM394.415 67.99V83H387.765V67.99H381.495V62.86H400.685V67.99H394.415ZM404.12 83V62.86H410.77V69.13H418.56C420.282 69.13 421.663 69.6493 422.702 70.688C423.74 71.7267 424.26 73.1073 424.26 74.83V77.3C424.26 79.0227 423.74 80.4033 422.702 81.442C421.663 82.4807 420.282 83 418.56 83H404.12ZM416.28 78.25C416.66 78.25 416.976 78.1233 417.23 77.87C417.483 77.6167 417.61 77.3 417.61 76.92V75.21C417.61 74.83 417.483 74.5133 417.23 74.26C416.976 74.0067 416.66 73.88 416.28 73.88H410.77V78.25H416.28ZM445.905 82.62C441.167 83.1267 436.987 83.38 433.365 83.38C431.642 83.38 430.261 82.8607 429.223 81.822C428.184 80.7833 427.665 79.4027 427.665 77.68V68.94C427.665 67.04 428.197 65.558 429.261 64.494C430.35 63.4047 431.845 62.86 433.745 62.86H445.905V67.99H435.835C434.821 67.99 434.315 68.4967 434.315 69.51V76.92C434.315 77.3 434.441 77.6167 434.695 77.87C434.948 78.1233 435.265 78.25 435.645 78.25C437.925 78.25 441.345 78.06 445.905 77.68V82.62ZM469.837 62.86V83H463.187V76.73H459.957L456.347 83H449.317L453.117 76.35C452.053 75.97 451.217 75.324 450.609 74.412C450.001 73.5 449.697 72.3727 449.697 71.03V68.56C449.697 66.8373 450.217 65.4567 451.255 64.418C452.294 63.3793 453.675 62.86 455.397 62.86H469.837ZM457.677 67.61C457.297 67.61 456.981 67.7367 456.727 67.99C456.474 68.2433 456.347 68.56 456.347 68.94V70.65C456.347 71.03 456.474 71.3467 456.727 71.6C456.981 71.8533 457.297 71.98 457.677 71.98H463.187V67.61H457.677Z" fill="#647DB7"/>
<circle cx="325.5" cy="110.5" r="14.5" fill="#121212" stroke="#647DB7" stroke-width="4"/>
<path d="M138 185.949C164.461 173.633 234.457 149 302.755 149C353.68 149 390.625 241.873 425.573 278.822C460.521 315.771 487.117 339.488 566 330.5C644.883 321.512 659.5 287 820 235.5" stroke="#121212" stroke-width="12" stroke-dasharray="40 40"/>
<path d="M138 185.949C164.461 173.633 234.457 149 302.755 149C353.68 149 390.625 241.873 425.573 278.822C460.521 315.771 487.117 339.488 566 330.5C644.883 321.512 659.5 287 820 235.5" stroke="#FF9776" stroke-width="8" stroke-dasharray="40 40"/>
<path d="M921.677 60.8546C921.677 94.4636 860.838 174.957 860.838 174.957C860.838 174.957 800 94.4636 800 60.8546C800 27.2455 827.238 0 860.838 0C894.438 0 921.677 27.2455 921.677 60.8546Z" fill="url(#paint1_linear)"/>
<path d="M872.067 42.7636C871.489 34.4581 868.051 26.3609 861.603 20.0498C855.093 26.4204 851.503 34.5176 850.773 42.7636C854.697 44.7879 858.287 47.4076 861.42 50.5929C864.553 47.4374 868.143 44.8177 872.067 42.7636ZM861.42 60.0893C854.88 50.325 843.716 43.8651 831.001 43.8651C831.001 73.6342 859.352 79.2606 861.42 79.588C863.489 79.2308 891.839 73.6342 891.839 43.8651C879.124 43.8651 867.96 50.325 861.42 60.0893Z" fill="#B9665B" fill-opacity="0.56"/>
<circle cx="861.245" cy="222.721" r="25.2216" fill="url(#paint2_linear)" stroke="#FF9776" stroke-width="8"/>
<path d="M533.48 177.4H556.68C560.469 177.4 563.253 178.27 565.032 180.01C566.811 181.711 567.7 184.321 567.7 187.84C567.7 190.16 567.197 192.055 566.192 193.524C565.187 194.955 563.949 195.96 562.48 196.54C565.612 197.391 567.739 199.479 568.86 202.804C569.247 204.003 569.44 205.395 569.44 206.98C569.44 210.769 568.551 213.553 566.772 215.332C564.993 217.111 562.209 218 558.42 218H533.48V177.4ZM559 205.24C559 202.92 557.84 201.76 555.52 201.76H543.92V209.88H555.52C557.84 209.88 559 208.72 559 206.4V205.24ZM557.26 189C557.26 186.68 556.1 185.52 553.78 185.52H543.92V193.64H553.78C556.1 193.64 557.26 192.48 557.26 190.16V189ZM575.818 218V187.26H585.968V196.83H597.278C599.907 196.83 602.014 197.623 603.6 199.208C605.185 200.793 605.978 202.901 605.978 205.53V209.3C605.978 211.929 605.185 214.037 603.6 215.622C602.014 217.207 599.907 218 597.278 218H575.818ZM593.798 210.75C594.378 210.75 594.861 210.557 595.248 210.17C595.634 209.783 595.828 209.3 595.828 208.72V206.168C595.828 205.588 595.634 205.105 595.248 204.718C594.861 204.331 594.378 204.138 593.798 204.138H585.968V210.75H593.798ZM619.898 218H609.748V187.26H619.898V218ZM637.028 192.48C640.779 191.707 644.065 191.32 646.888 191.32H649.498C652.127 191.32 654.235 192.113 655.82 193.698C657.405 195.283 658.198 197.391 658.198 200.02V209.3C658.198 212.2 657.367 214.481 655.704 216.144C654.08 217.768 651.818 218.58 648.918 218.58H636.158C633.258 218.58 630.977 217.768 629.314 216.144C627.69 214.481 626.878 212.2 626.878 209.3V188.71C626.878 185.926 627.806 183.587 629.662 181.692C631.557 179.797 634.109 178.657 637.318 178.27L657.038 175.95L657.908 184.07L639.928 186.1C637.995 186.332 637.028 187.299 637.028 189V192.48ZM645.728 210.75C647.275 210.75 648.048 209.977 648.048 208.43V201.18C648.048 200.6 647.855 200.117 647.468 199.73C647.081 199.343 646.598 199.15 646.018 199.15H643.988C642.48 199.15 641.127 199.227 639.928 199.382C638.729 199.537 637.763 199.653 637.028 199.73V208.43C637.028 209.977 637.801 210.75 639.348 210.75H645.728ZM681.709 195.09C679.659 195.09 677.339 195.477 674.749 196.25V210.17H683.449C684.995 210.17 685.769 209.397 685.769 207.85V197.12C685.769 196.54 685.575 196.057 685.189 195.67C684.802 195.283 684.319 195.09 683.739 195.09H681.709ZM674.749 218V227.86H664.599V187.26H673.589L674.169 190.16C675.986 188.961 677.842 188.091 679.737 187.55C681.67 186.97 683.294 186.68 684.609 186.68H687.219C689.848 186.68 691.955 187.473 693.541 189.058C695.126 190.643 695.919 192.751 695.919 195.38V208.72C695.919 211.62 695.087 213.901 693.425 215.564C691.801 217.188 689.539 218 686.639 218H674.749ZM715.052 210.46C717.101 210.46 719.421 210.073 722.012 209.3V205.82H713.602C713.022 205.82 712.538 206.013 712.152 206.4C711.765 206.787 711.572 207.27 711.572 207.85V208.43C711.572 209.01 711.765 209.493 712.152 209.88C712.538 210.267 713.022 210.46 713.602 210.46H715.052ZM704.322 187.84C711.398 187.067 717.778 186.68 723.462 186.68C726.091 186.68 728.198 187.473 729.784 189.058C731.369 190.643 732.162 192.751 732.162 195.38V218H723.172L722.592 215.1C720.774 216.299 718.899 217.188 716.966 217.768C715.071 218.309 713.466 218.58 712.152 218.58H710.122C707.492 218.58 705.385 217.787 703.8 216.202C702.214 214.617 701.422 212.509 701.422 209.88V207.27C701.422 204.641 702.214 202.533 703.8 200.948C705.385 199.363 707.492 198.57 710.122 198.57H722.012V196.25C722.012 195.67 721.818 195.187 721.432 194.8C721.045 194.413 720.562 194.22 719.982 194.22C717.468 194.22 714.684 194.336 711.63 194.568C708.614 194.8 706.178 194.974 704.322 195.09V187.84ZM756.506 195.09V218H746.356V195.09H736.786V187.26H766.076V195.09H756.506ZM771.319 218V187.26H781.469V196.83H793.359C795.988 196.83 798.095 197.623 799.681 199.208C801.266 200.793 802.059 202.901 802.059 205.53V209.3C802.059 211.929 801.266 214.037 799.681 215.622C798.095 217.207 795.988 218 793.359 218H771.319ZM789.879 210.75C790.459 210.75 790.942 210.557 791.329 210.17C791.715 209.783 791.909 209.3 791.909 208.72V206.11C791.909 205.53 791.715 205.047 791.329 204.66C790.942 204.273 790.459 204.08 789.879 204.08H781.469V210.75H789.879Z" fill="#647DB7"/>
<path d="M271.48 295H263.56V282.46H252.56V295H244.64V264.2H252.56V276.3H263.56V264.2H271.48V295ZM286.901 289.28C288.455 289.28 290.215 288.987 292.181 288.4V285.76H285.801C285.361 285.76 284.994 285.907 284.701 286.2C284.407 286.493 284.261 286.86 284.261 287.3V287.74C284.261 288.18 284.407 288.547 284.701 288.84C284.994 289.133 285.361 289.28 285.801 289.28H286.901ZM278.761 272.12C284.129 271.533 288.969 271.24 293.281 271.24C295.275 271.24 296.874 271.841 298.077 273.044C299.279 274.247 299.881 275.845 299.881 277.84V295H293.061L292.621 292.8C291.242 293.709 289.819 294.384 288.353 294.824C286.915 295.235 285.698 295.44 284.701 295.44H283.161C281.166 295.44 279.567 294.839 278.365 293.636C277.162 292.433 276.561 290.835 276.561 288.84V286.86C276.561 284.865 277.162 283.267 278.365 282.064C279.567 280.861 281.166 280.26 283.161 280.26H292.181V278.5C292.181 278.06 292.034 277.693 291.741 277.4C291.447 277.107 291.081 276.96 290.641 276.96C288.734 276.96 286.622 277.048 284.305 277.224C282.017 277.4 280.169 277.532 278.761 277.62V272.12ZM314.389 269.48C310.575 269.48 308.669 267.573 308.669 263.76V262.44H314.389V263.54C314.389 263.98 314.535 264.347 314.829 264.64C315.122 264.933 315.489 265.08 315.929 265.08H317.249C317.689 265.08 318.055 264.933 318.349 264.64C318.642 264.347 318.789 263.98 318.789 263.54V262.44H324.509V263.76C324.509 267.573 322.602 269.48 318.789 269.48H314.389ZM320.329 271.68H328.469V295H320.769V282.24L313.289 295H305.149V271.68H312.849V284.44L320.329 271.68ZM347.383 277.62V295H339.683V277.62H332.423V271.68H354.643V277.62H347.383ZM373.801 271.68H381.941V295H374.241V282.24L366.761 295H358.621V271.68H366.321V284.44L373.801 271.68Z" fill="#647DB7"/>
<circle cx="413.5" cy="313.5" r="14.5" fill="#121212" stroke="#647DB7" stroke-width="4"/>
<defs>
<linearGradient id="paint0_linear" x1="65.5" y1="150" x2="65.5" y2="294.839" gradientUnits="userSpaceOnUse">
<stop stop-color="#647DB7"/>
<stop offset="1" stop-color="#647DB7"/>
</linearGradient>
<linearGradient id="paint1_linear" x1="795.431" y1="167.398" x2="973.186" y2="98.4725" gradientUnits="userSpaceOnUse">
<stop stop-color="#FF9776"/>
<stop offset="1" stop-color="#FF8B66"/>
</linearGradient>
<linearGradient id="paint2_linear" x1="861.245" y1="193.5" x2="861.245" y2="263.101" gradientUnits="userSpaceOnUse">
<stop stop-color="#121212"/>
<stop offset="1" stop-color="#121212"/>
</linearGradient>
<clipPath id="clip0">
<rect width="68" height="68" fill="white" transform="matrix(-0.955854 -0.293844 -0.293844 0.955854 101.979 195.981)"/>
</clipPath>
</defs>
</svg>
